<?xml version="1.0" encoding="UTF-8" standalone="no"?>
<svg
   xmlns:dc="http://purl.org/dc/elements/1.1/"
   xmlns:cc="http://creativecommons.org/ns#"
   xmlns:rdf="http://www.w3.org/1999/02/22-rdf-syntax-ns#"
   xmlns:svg="http://www.w3.org/2000/svg"
   xmlns="http://www.w3.org/2000/svg"
   viewBox="0 0 519.6853 519.6853"
   height="519.6853"
   width="519.6853"
   xml:space="preserve"
   id="svg2"
   version="1.1"><metadata
     id="metadata8"><rdf:RDF><cc:Work
         rdf:about=""><dc:format>image/svg+xml</dc:format><dc:type
           rdf:resource="http://purl.org/dc/dcmitype/StillImage" /></cc:Work></rdf:RDF></metadata><defs
     id="defs6"><clipPath
       id="clipPath14"
       clipPathUnits="userSpaceOnUse"><path
         id="path12"
         d="M 0,0 H 768 V 1024 H 0 Z" /></clipPath><clipPath
       id="clipPath22"
       clipPathUnits="userSpaceOnUse"><path
         id="path20"
         d="M 0,1024 H 768 V 0 H 0 Z" /></clipPath></defs><g
     clip-path="url(#clipPath14)"
     transform="matrix(1.3333333,0,0,-1.3333333,-252.824,941.84267)"
     id="g10"><g
       id="g16"><g
         clip-path="url(#clipPath22)"
         id="g18"><g
           transform="translate(207.334,511.4995)"
           id="g24"><path
             id="path26"
             style="fill:#007042;fill-opacity:1;fill-rule:nonzero;stroke:none"
             d="m 0,0 c 0,97.838 79.317,177.166 177.165,177.166 97.839,0 177.166,-79.328 177.166,-177.166 0,-97.847 -79.327,-177.166 -177.166,-177.166 C 79.317,-177.166 0,-97.847 0,0" /></g><g
           transform="translate(212.5605,511.4995)"
           id="g28"><path
             id="path30"
             style="fill:#ffffff;fill-opacity:1;fill-rule:nonzero;stroke:none"
             d="m 0,0 c 0,94.956 76.983,171.93 171.938,171.93 94.967,0 171.94,-76.974 171.94,-171.93 0,-94.956 -76.973,-171.949 -171.94,-171.949 C 76.983,-171.949 0,-94.956 0,0" /></g><g
           transform="translate(218.1602,511.4995)"
           id="g32"><path
             id="path34"
             style="fill:#007042;fill-opacity:1;fill-rule:nonzero;stroke:none"
             d="m 0,0 c 0,91.863 74.477,166.329 166.339,166.329 91.874,0 166.339,-74.466 166.339,-166.329 0,-91.873 -74.465,-166.339 -166.339,-166.339 C 74.477,-166.339 0,-91.873 0,0" /></g><g
           transform="translate(281.6855,512.2012)"
           id="g36"><path
             id="path38"
             style="fill:#ffffff;fill-opacity:1;fill-rule:nonzero;stroke:none"
             d="M 0,0 C 0,56.58 45.859,102.439 102.43,102.439 159,102.439 204.859,56.58 204.859,0 204.859,-56.57 159,-102.431 102.43,-102.431 45.859,-102.431 0,-56.57 0,0" /></g><g
           transform="translate(289.418,506.918)"
           id="g40"><path
             id="path42"
             style="fill:#000000;fill-opacity:1;fill-rule:nonzero;stroke:none"
             d="m 0,0 c -0.076,0.951 -0.124,1.613 -0.124,1.613 8.924,-3.448 16.771,2.95 24.408,6.264 1.817,0.807 4.968,-0.433 5.831,1.729 0.749,1.662 3.325,4.092 0.433,4.754 C 19.386,15.87 12.086,2.314 0.52,8.52 c -1.173,0.644 -0.865,1.729 -0.865,1.729 2.382,32.546 20.74,64.005 51.191,79.49 27.223,15.553 68.98,14.256 94.61,-3.89 13.602,-8.347 26.628,-22.104 33.698,-36.071 6.763,-12.247 9.866,-25.985 10.787,-40.595 -11.805,-8.933 -19.721,8.416 -31.738,4.525 0.644,-1.874 0.999,-3.813 2.362,-5.399 10.664,0.077 18.003,-11.095 29.165,-6.696 -0.019,-0.557 0.019,-1.211 0.01,-1.613 0.067,-2.439 -0.039,-4.121 -0.394,-7.012 -9.856,-2.806 -16.6,7.607 -26.177,6.032 l 1.066,-5.399 c 8.868,-0.287 14.717,-8.828 23.852,-8.462 -0.326,-1.999 -0.835,-7.965 -5.524,-6.724 -7.597,2.372 -10.499,6.896 -17.049,6.896 -0.788,-1.44 -0.125,-3.132 -0.193,-5.311 6.916,-1.086 11.893,-6.916 18.799,-7.993 -0.653,-2.382 -1.345,-4.88 -3.045,-6.55 -5.61,1.373 -10.202,6.472 -16.177,6.32 l -1.085,-4.967 c 5.687,-0.135 9.357,-5.178 14.477,-6.685 0.134,-2.085 -1.739,-3.959 -2.815,-5.841 -4.525,1.374 -7.993,5.262 -13.17,4.975 0.039,2.459 1.076,4.169 0.644,6.254 -5.832,-1.719 -9.712,3.678 -14.034,6.926 C 148.8,-16.926 137.618,-9.952 137.022,0 c -0.116,1.979 -0.077,3.555 1.085,6.369 3.852,9.307 2.527,19.509 -1.508,27.424 -1.643,2.883 -3.381,3.738 -5.399,4.977 2.95,-6.272 5.946,-13.525 4.956,-21.363 -0.68,-5.995 -3.918,-11.682 -3.957,-17.407 -0.01,-2.047 0.423,-4.102 1.585,-6.168 4.689,-8.414 13.112,-16.406 9.953,-27.002 -1.115,-3.334 -3.727,-6.609 -4.121,-9.059 5.475,-4.542 10.672,-9.644 17.935,-9.942 2.593,1.651 0.874,8.501 6.473,5.62 l 7.963,-4.015 c -0.883,-1.952 -2.948,-4.199 -4.072,-5.275 -2.949,1.443 -5.83,3.171 -9.5,3.017 -1.076,-1.143 -2.018,-2.44 -1.94,-4.102 2.583,-0.423 5.176,-1.594 7.338,-3.103 -1.643,-2.151 -3.17,-3.449 -4.966,-5.1 l -6.052,2.161 c -0.999,-1.441 -3.093,-2.949 -2.373,-4.534 1.374,-0.576 3.027,-1.613 3.882,-2.382 -3.084,-2.872 -7.273,-5.764 -9.281,-6.696 -2.805,9.145 -12.026,15.562 -11.239,26.139 l -0.431,0.431 c -2.153,-2.449 -2.335,-6.176 -1.298,-9.5 2.593,-6.629 8.799,-11.728 9.722,-19.011 -1.077,-1.874 -3.526,-2.228 -5.389,-3.026 0.211,13.104 -19.116,20.703 -6.916,36.293 4.773,6.1 11.382,12.67 8.846,21.594 -2.582,8.642 -12.01,14.425 -11.69,23.689 -0.02,0.201 0.058,0.672 0.096,0.998 2.085,10.068 7.714,20.481 3.439,31.489 -1.402,4.111 -4.947,8.982 -9.337,10.778 6.552,-7.482 9.146,-19.711 5.408,-29.808 -1.633,-4.187 -4.496,-8.78 -4.765,-13.486 -0.133,-2.479 0.376,-4.919 1.95,-7.254 4.967,-8.059 14.16,-17.847 8.636,-27.424 -5.6,-8.425 -15.398,-16.984 -9.932,-28.08 3.813,-6.684 10.086,-13.236 8.425,-21.383 l -6.476,-2.16 c 4.314,15.197 -16.848,24.121 -8.001,39.317 5.475,8.136 15.274,15.774 9.721,26.572 -3.305,6.685 -9.683,11.478 -9.952,18.058 0.057,0.461 0.135,1.778 0.25,2.354 2.239,11.844 11.259,23.054 4.947,35.734 -1.651,3.756 -4.966,7.56 -8.636,9.722 l -0.211,-0.211 c 7.348,-7.128 9.578,-18.867 5.619,-28.291 C 115.946,11.422 111.901,5.936 111.066,0 c -0.383,-2.805 -0.057,-5.707 1.555,-8.752 4.679,-7.416 13.2,-15.773 7.782,-24.84 -5.398,-7.926 -14.399,-15.62 -10.806,-25.918 3.716,-8.654 12.238,-17.569 7.77,-28.731 l -6.684,-1.509 c 5.321,10.875 -2.671,21.672 -7.35,31.105 -5.677,13.535 12.238,20.01 12.526,32.401 -0.076,7.992 -8.558,12.517 -10.354,19.865 -1.057,3.603 -7.215,-0.566 -11.759,-0.566 -3.688,0 -8.348,4.601 -10.278,-0.942 -2.305,-8.136 -12.815,-14.111 -8.213,-23.765 4.391,-8.569 14.974,-14.831 11.451,-25.918 -3.171,-10.365 -13.613,-20.229 -7.119,-32.18 -2.67,0.145 -6.599,-0.297 -7.57,3.449 -4.112,14.477 13.381,22.901 7.993,37.367 -2.527,8.867 -13.978,13.756 -11.442,24.409 C 70.423,-15.754 80.259,-9.616 78.866,0 78.751,0.797 78.56,1.623 78.28,2.479 74.603,12.853 67.118,23.218 71.585,35.312 c 1.22,3.458 3.67,6.407 5.831,9.5 C 70.288,40.999 66.695,32.939 66.83,24.717 66.522,15.802 73.133,8.156 74.055,0 74.429,-3.305 73.881,-6.686 71.585,-10.26 66.907,-16.6 60.787,-23.295 63.603,-31.652 66.254,-40.067 76.772,-45.188 76.12,-54.977 76.043,-66.57 62.584,-73.775 66.398,-86.724 l -6.695,2.152 c -2.661,11.527 9.576,17.425 9.72,28.078 1.729,12.248 -13.89,16.773 -12.958,28.742 -0.077,9.059 7.925,14.822 11.44,22.459 0.798,1.863 0.818,3.612 0.731,5.293 -0.432,8.433 -7.454,14.121 -6.782,24.505 0.443,6.993 2.815,13.112 7.349,18.366 C 62.939,40.345 59.952,33.343 58.453,27.079 56.062,16.859 62.786,8.674 63.506,0 c 0.318,-3.833 -0.623,-7.666 -4.236,-11.557 -5.177,-6.129 -10.442,-13.822 -6.685,-22.035 3.957,-9.079 16.407,-16.13 11.018,-27.426 -2.959,-7.138 -10.019,-12.536 -9.722,-20.951 -1.882,0.787 -3.822,1.574 -5.408,3.016 0,10.721 15.264,17.435 7.992,28.732 -0.01,-2.094 -0.23,-4.553 -1.296,-7.781 -2.623,-6.34 -7.926,-11.814 -9.934,-18.578 -3.381,1.297 -6.916,4.044 -9.721,6.926 l 3.882,2.364 c -0.424,1.44 -2.008,3.658 -2.584,3.89 -1.769,0.672 -4.179,-1.288 -6.264,-1.952 -1.806,1.586 -3.535,3.038 -4.976,4.969 1.296,3.678 11.384,0.662 6.274,6.704 -2.46,2.555 -6.917,-0.941 -9.934,-2.374 l -4.111,5.18 c 3.525,2.17 7.051,5.177 11.451,4.322 1.074,-1.941 1.151,-4.822 3.236,-5.832 5.207,-1.315 12.67,5.765 18.358,10.154 -3.958,5.899 -7.196,14.026 -3.68,21.163 2.825,7.147 10.184,13.16 10.52,21.066 0.077,1.795 -0.558,4.621 -1.009,5.725 -3.94,9.981 -5.255,23.535 2.17,32.392 C 54.803,37.031 52.334,31.968 50.933,28.241 47.224,18.713 52.249,9.375 52.44,0 c 0.068,-1.623 0.155,-3.516 -0.518,-5.082 -3.804,-7.703 -10,-14.477 -11.019,-23.332 -4.381,-2.796 -7.983,-7.705 -14.245,-6.053 0,-1.921 0.287,-4.168 0.863,-6.042 -4.965,0.22 -8.357,-3.448 -12.525,-5.187 -2.238,0.73 -2.815,3.612 -3.68,5.629 4.901,1.651 8.436,6.551 14.044,6.475 0.654,1.796 -0.364,3.458 -0.642,5.178 -6.994,3.092 -18.07,-15.322 -19.011,0.662 6.983,0.424 11.451,6.897 18.357,7.55 l 0.22,5.187 c -7.847,0.788 -13.121,-7.522 -20.739,-6.473 l -1.729,6.906 c 9.079,-0.577 14.476,7.56 23.113,7.991 1.152,1.509 1.296,3.737 1.508,5.832 C 17.004,0.461 10.528,-9.972 0.52,-6.801 0.52,-6.801 0.184,-2.46 0,0" /></g><g
           transform="translate(396.6416,569.4536)"
           id="g44"><path
             id="path46"
             style="fill:#ffffff;fill-opacity:1;fill-rule:nonzero;stroke:none"
             d="m 0,0 c 6.551,3.803 13.007,8.636 20.932,9.145 -0.413,-2.363 -3.555,-8.281 -3.65,-12.824 4.149,1.738 9.346,4.389 14.687,4.101 -2.535,-4.409 -8.137,-12.238 -8.424,-19.875 -7.273,2.748 -14.765,6.052 -22.901,7.349 -17.349,2.948 -34.044,-0.864 -48.386,-7.771 -1.221,7.262 -4.745,13.602 -9.069,19.644 1.989,1.23 5.985,-0.414 8.434,-1.288 2.509,-0.932 4.323,-1.747 6.476,-2.602 0.431,4.323 -2.094,8.579 -3.891,12.536 1.633,0.931 3.17,0.211 4.543,-0.221 5.678,-2.152 10.788,-5.533 15.966,-8.627 l -0.01,0.02 4.746,11.623 -8.838,7.982 c -1.009,0.923 -1.076,0.885 -0.355,0.933 1.181,0.066 12.016,0.633 12.016,0.633 0,0 5.082,11.009 5.14,11.124 0.038,0.125 0.115,0 0.115,0 l 5.14,-10.923 c 0,0 11.978,-0.672 12.314,-0.68 0.347,-0.02 0,-0.279 0,-0.279 l -9.49,-9.012 4.524,-10.96 z m 5.023,-22.795 c 0.395,-0.894 1.384,-2.421 0.588,-3.794 -4.237,1.305 -10.807,0.374 -13.171,-1.067 -3.669,-2.738 -3.093,-8.348 -2.162,-12.315 l 1.076,-0.855 c 1.807,0.422 1.883,2.719 3.469,3.237 2.661,-0.653 6.339,-1.585 8.847,0 2.238,-0.067 2.622,-3.294 2.383,-4.755 -1.585,-8.358 -5.12,-17.425 -13.613,-21.392 -3.526,-1.721 -9.471,-0.48 -11.44,0.663 -8.358,4.966 -13.036,14.821 -12.104,23.755 0.182,1.268 1.652,2.449 3.237,1.499 3.391,-2.297 7.06,1.815 10.163,-1.066 3.737,1.652 1.508,6.262 1.508,9.71 -3.026,3.891 -8.213,3.324 -12.747,3.037 -2.122,0.73 -0.029,3.343 0.643,4.534 4.9,6.907 14.266,7.051 22.46,6.032 3.794,-0.49 8.501,-3.054 10.863,-7.223 m -82.131,-2.047 c 6.984,2.651 16.485,7.262 23.977,2.373 -2.315,-1.748 -4.679,-3.458 -6.927,-5.408 -3.659,-3.603 -8.127,-7.983 -10.787,-12.527 -9,1.797 -16.206,-3.458 -23.765,-6.473 -2.584,-0.837 -6.686,-0.875 -9.069,1.075 7.128,11.739 17.204,22.545 14.688,38.011 -0.297,1.854 2.162,0.222 3.026,-0.211 5.542,-4.323 8.203,-10.288 8.857,-16.84 m 57.022,-8.001 v -0.865 c -2.449,0.221 -6.418,2.67 -8.636,-0.433 -1.45,-0.643 -1.585,0.942 -1.614,1.931 -0.038,1.278 0.451,1.96 1.393,2.172 3.391,0.796 7.195,-0.212 8.857,-2.805 m 25.697,1.076 c 0.095,-0.443 0.143,-1.874 -0.856,-2.374 -2.746,1.077 -6.551,2.584 -9.299,0.433 -1.575,3.391 2.825,2.67 4.333,3.67 2.22,0.066 4.821,0.143 5.822,-1.729 M 65.014,-9.51 c -2.805,-14.698 7.271,-25.062 14.035,-36.292 -7.772,-5.187 -15.111,2.804 -22.46,4.755 -3.207,0.74 -7.05,0.931 -10.144,0.433 -4.466,6.906 -10.451,13.39 -17.713,17.271 0.374,2.151 3.736,2.527 6.042,2.805 6.532,0.471 12.018,-2.008 17.272,-4.746 0.548,2.796 1.45,5.034 2.171,7.56 1.728,4.247 5.11,8.568 9.51,10.365 1.114,0.394 1.556,-0.662 1.287,-2.151" /></g><g
           transform="translate(249.333,563.8237)"
           id="g48"><path
             id="path50"
             style="fill:#ffffff;fill-opacity:1;fill-rule:nonzero;stroke:none"
             d="m 0,0 c -4.457,-3.458 -7.628,-8.492 -6.696,-14.245 0.192,-0.874 0.837,-2.267 2.21,-2.422 3.535,-0.229 5.13,3.709 6.435,6.302 2.075,4.121 5.688,9.001 10.798,9.511 4.39,0.278 8.127,-0.875 11.008,-4.324 4.391,-5.263 3.602,-13.745 1.517,-19.874 -1.949,-4.543 -4.975,-9.145 -9.289,-12.104 l -7.78,4.756 c 4.256,2.958 8.713,7.78 9.289,13.188 0,1.931 -0.432,4.524 -2.804,4.746 -4.064,0.172 -5.466,-7.417 -8.858,-10.798 -2.593,-2.67 -5.83,-4.677 -9.933,-4.111 -3.822,0.221 -7.06,2.603 -9.289,5.62 -4.245,6.474 -2.162,15.984 0.432,20.95 C -11.374,0 -9.5,2.805 -6.906,4.976 -4.727,3.42 -2.354,1.662 0,0 M 14.61,44.476 23.227,39.414 16.839,29.059 41.767,12.699 35.196,1.951 9.846,17.704 3.775,7.839 -4.544,13.401 Z M 26.992,57.887 42.382,70.855 79.662,47.463 68.914,40.384 60.701,44.697 50.316,35.61 53.909,26.965 44.514,16.446 Z m 13.622,-0.654 5.351,-12.401 6.098,5.399 z m 47.165,27.896 c -2.391,-1.018 -5.005,-2.103 -7.05,-2.967 1.182,-2.661 2.171,-4.813 3.708,-8.195 l 7.05,2.988 c 1.529,1.057 1.624,3.525 0.913,5.321 -0.99,2.123 -3.131,3.325 -4.621,2.853 M 80.776,48.098 c -4.984,12.171 -11.123,26.426 -15.637,37.839 5.676,2.401 13.227,5.609 19.558,8.299 5.821,2.507 13.515,2.402 18.693,-2.94 2.593,-2.881 3.631,-7.377 3.314,-10.182 -0.298,-2.488 -1.26,-4.755 -3.094,-7.099 4.131,-3.824 9.608,-8.924 14.256,-13.237 L 104.254,57.82 c -4.61,3.707 -7.127,5.686 -11.2,9.049 -1.605,-0.682 -2.92,-1.23 -4.564,-1.922 l 4.948,-10.951 z m 58.358,30.471 c -1.594,0.018 -5.571,0 -7.301,0 0.106,-2.441 0.202,-5.775 0.317,-8.137 2.008,0 5.284,0.02 7.329,0.02 2.643,0.182 2.68,3.045 2.7,4.044 -0.096,1.268 -0.394,3.727 -3.045,4.073 m -0.701,15.244 c -1.605,0.01 -5.562,-0.01 -7.301,-0.01 0.105,-2.43 0.212,-5.273 0.326,-7.636 1.989,0 5.274,0.019 7.311,0.019 2.641,0.182 2.68,2.805 2.7,3.785 -0.097,1.287 -0.384,3.487 -3.036,3.842 m 13.102,5.486 c 2.805,-2.517 3.391,-6.628 2.901,-9.443 -0.557,-2.575 -2.238,-5.11 -4.543,-6.907 2.813,-2.095 5.551,-3.928 6.167,-7.983 0.74,-3.891 -0.404,-6.993 -2.488,-9.731 -4.389,-4.966 -11.047,-4.111 -17.378,-4.333 l -17.069,0.01 -0.116,1.518 -1.757,38.934 c 8.972,0 11.478,0.018 19.73,0.018 11.038,0 12.565,-0.671 14.553,-2.083 m 22.421,-27.733 c -1.422,-3.698 -2.008,-6.446 4.141,-8.444 3.341,-1.086 5.387,0.441 6.819,4.149 l 9.193,22.518 12.93,-5.678 -8.645,-21.699 c -4.736,-12.345 -12.065,-13.92 -24.65,-9.233 -14.062,5.264 -17.395,11.7 -13.112,22.854 l 8.05,22.372 13.526,-4.476 z m 65.369,-9.356 c 2.441,-3.017 4.102,-6.764 5.188,-10.586 -3.027,-1.615 -5.352,-3.122 -8.224,-4.746 -0.71,4.457 -3.169,8.991 -7.55,11.229 -2.094,1.221 -5.187,1.442 -7.559,0.644 -3.67,-1.364 -6.841,-4.534 -8.214,-8.203 -1.22,-3.536 0.154,-6.984 2.162,-9.722 2.806,-3.17 6.551,-4.822 10.807,-4.966 -1.951,-3.152 -3.19,-5.177 -4.755,-7.56 -7.051,1.008 -13.689,4.889 -17.714,11.441 -3.448,5.552 -3.66,14.043 -0.653,19.875 3.169,6.406 9.433,10.509 16.206,11.449 7.608,0.818 15.474,-2.947 20.306,-8.855 M 260.9,36.762 c -3.765,-2.813 -8.511,-6.329 -12.238,-9.134 5.792,-0.653 12.776,-1.355 18.799,-2.028 2.21,-4.092 4.035,-7.482 6.484,-12.007 l -21.642,1.575 C 248.009,7.426 243.85,0.049 239.757,-7.338 c -2.517,3.67 -4.467,8.424 -6.916,12.526 2.775,5.475 5.984,11.873 8.751,17.175 -4.389,-3.246 -8.799,-6.532 -13.362,-9.943 l -7.906,10.577 c 10.693,7.973 32.604,24.284 32.604,24.284 z m 21.182,-42.371 c 3.746,-6.052 5.188,-14.045 3.247,-21.384 l -7.993,0.432 c 1.087,4.822 1.864,10.864 -1.518,14.9 -1.007,1.22 -2.804,1.939 -4.092,1.296 -4.351,-3.486 0.202,-11.287 -2.334,-17.646 -1.163,-3.045 -2.517,-5.101 -6.1,-6.552 -4.534,-1.719 -10.144,-0.854 -13.602,2.604 -6.763,7.051 -9.933,18.001 -5.62,27.214 h 8.425 c -1.432,-3.612 -2.44,-8.713 -1.076,-12.968 0.721,-1.796 1.585,-4.093 3.669,-4.746 6.773,-0.758 2.546,10.144 3.776,14.391 0.816,3.246 2.632,6.916 6.157,8.501 6.485,3.17 14.044,-0.433 17.061,-6.042 m -54.246,-127.041 -12.899,-11.604 4.389,-5.4 c 4.005,3.431 7.405,6.331 11.459,9.828 1.662,-1.93 3.535,-4.187 5.427,-6.436 -3.727,-3.247 -7.664,-6.474 -11.556,-9.845 1.49,-1.799 2.489,-3.027 4.871,-5.909 l 14.15,12.238 5.821,-6.973 c -8.175,-7.051 -17.089,-14.659 -24.88,-21.154 l -24.332,31.7 c 7.81,6.438 15.091,12.816 22.297,19.722 1.67,-1.873 5.253,-6.167 5.253,-6.167 m -98.029,-43.9 c -6.023,1.009 -11.739,2.086 -17.522,2.939 -0.662,-2.785 -1.229,-5.831 -1.758,-7.943 5.351,-0.943 9.674,-1.662 15.226,-2.613 l -1.413,-9.26 c -5.157,0.875 -10.614,1.709 -16.003,2.679 -1.019,-4.13 -2.046,-8.953 -3.19,-13.486 -4.13,0.998 -8.222,2.055 -12.699,3.197 l 9.827,39.885 c 9.568,-2.074 19.386,-3.88 28.722,-5.273 -0.354,-3.064 -0.797,-6.551 -1.19,-10.125 m 70.201,20.702 -15.591,-7.599 2.709,-6.398 c 4.812,2.2 8.875,4.045 13.736,6.302 1.057,-2.326 2.248,-5.024 3.449,-7.685 -4.476,-2.104 -9.165,-4.111 -13.824,-6.283 0.933,-2.141 1.548,-3.601 3.055,-7.022 l 16.965,7.859 3.68,-8.3 c -9.809,-4.524 -20.471,-9.385 -29.751,-13.469 l -14.572,37.11 c 9.28,4.033 17.963,8.222 26.79,12.873 1.096,-2.268 3.354,-7.388 3.354,-7.388 m -33.468,-17.013 c -6.052,-0.865 -11.815,-1.576 -17.569,-2.517 0.212,-2.7 0.383,-4.918 0.556,-7.184 5.418,0.758 10.25,1.45 15.284,2.189 l 1.546,-9.529 c -5.033,-0.73 -10.913,-1.585 -16.07,-2.324 0.278,-4.15 0.672,-9.482 1.036,-14.082 -4.302,-0.358 -8.663,-0.588 -13.063,-0.875 l -2.642,40.624 c 9.75,0.932 19.981,2.257 29.299,3.774 0.499,-3.054 0.989,-6.148 1.623,-10.076 m -90.519,13.67 c -3.091,1.449 -6.617,0.288 -9.068,-1.721 -4.024,-3.957 -6.655,-9.365 -5.07,-15.119 0.672,-2.353 2.967,-4.17 5.244,-5.081 3.304,-1.23 6.541,-0.154 9.116,2.056 3.957,4.033 6.773,9.644 4.323,15.33 -0.577,1.873 -2.67,3.967 -4.545,4.535 m 13.613,0.662 c 4.399,-5.629 4.467,-14.332 1.738,-20.739 -3.074,-6.513 -8.933,-10.663 -15.351,-12.105 -7.77,-1.219 -15.11,1.297 -20.729,6.696 -4.966,5.486 -7.704,13.334 -5.178,20.951 2.229,8.281 10.298,14.334 18.569,15.342 8.568,0.5 16.485,-3.459 20.951,-10.145 m -30.452,22.028 c 1.086,-2.047 2.152,-3.862 2.892,-6.85 -2.421,-1.211 -5.446,-2.699 -8.079,-3.996 -0.643,4.744 -4.822,9.394 -9.501,10.625 -3.89,0.978 -8.136,-0.856 -11.017,-4.324 -2.373,-2.795 -3.094,-6.838 -2.373,-10.365 1.047,-4.092 6.974,-8.433 12.306,-8.568 l 1.518,-0.058 c -1.575,-3.171 -2.527,-5.13 -3.892,-7.791 -8.703,0.289 -17.493,5.4 -20.739,13.825 -2.805,6.838 -1.575,15.695 2.815,21.392 5.331,6.762 13.823,8.635 22.035,6.906 5.88,-1.403 10.721,-5.697 14.035,-10.796 m -59.951,56.329 h -12.862 l 10.057,-8.05 -3.593,-12.286 11.172,6.898 11.211,-6.898 -3.612,12.305 9.96,8.031 H 8.789 l -4.784,11.874 z m 261.804,0 h -12.853 l 10.047,-8.05 -3.592,-12.286 11.172,6.898 11.211,-6.898 -3.613,12.305 9.961,8.031 h -12.775 l -4.784,11.874 z" /></g><g
           transform="translate(388.4375,523.8721)"
           id="g52"><path
             id="path54"
             style="fill:#000000;fill-opacity:1;fill-rule:nonzero;stroke:none"
             d="M 0,0 C -1.306,-2.737 -5.484,-1.009 -7.78,-1.508 -8.578,-1.219 -8.069,-0.374 -8.203,0.211 -5.907,1.796 -1.806,2.008 0,0 m 3.448,-6.052 c -1.719,-2.594 -4.312,-5.84 -7.77,-5.619 -3.881,-0.288 -4.755,2.881 -7.56,4.746 l -0.222,1.306 c 5.188,-0.788 10.875,0.212 15.552,-0.433 m 1.518,49.03 -1.084,-1.076 c -5.4,0.576 -11.509,0.135 -16.195,-0.221 -0.578,0.577 -1.731,1.442 -0.645,2.162 l 8.204,6.263 c 3.391,-1.94 6.983,-4.457 9.72,-7.128" /></g></g></g></g></svg>