<?xml version="1.0" encoding="UTF-8" standalone="no"?>
<svg
   xmlns:dc="http://purl.org/dc/elements/1.1/"
   xmlns:cc="http://creativecommons.org/ns#"
   xmlns:rdf="http://www.w3.org/1999/02/22-rdf-syntax-ns#"
   xmlns:svg="http://www.w3.org/2000/svg"
   xmlns="http://www.w3.org/2000/svg"
   viewBox="0 0 793.70135 1122.52"
   height="1122.52"
   width="793.70135"
   xml:space="preserve"
   id="svg2"
   version="1.1"><metadata
     id="metadata8"><rdf:RDF><cc:Work
         rdf:about=""><dc:format>image/svg+xml</dc:format><dc:type
           rdf:resource="http://purl.org/dc/dcmitype/StillImage" /></cc:Work></rdf:RDF></metadata><defs
     id="defs6"><clipPath
       id="clipPath18"
       clipPathUnits="userSpaceOnUse"><path
         id="path16"
         d="M 0,841.89 H 595.276 V 0 H 0 Z" /></clipPath></defs><g
     transform="matrix(1.3333333,0,0,-1.3333333,0,1122.52)"
     id="g10"><g
       id="g12"><g
         clip-path="url(#clipPath18)"
         id="g14"><g
           transform="translate(259.6992,467.4741)"
           id="g20"><path
             id="path22"
             style="fill:#ed1c24;fill-opacity:1;fill-rule:nonzero;stroke:none"
             d="m 0,0 h -3.137 c -4.927,0 -9.705,3.595 -9.705,12.582 0,9.362 4.479,13.181 9.033,13.181 l 3.809,0 z m 4.927,30.555 h -8.512 c -8.36,0 -15.453,-6.366 -15.453,-18.722 0,-7.415 3.435,-12.881 9.555,-15.577 l -11.42,-20.67 c -0.373,-0.674 0,-1.197 0.595,-1.197 h 5.3 c 0.448,0 0.747,0.15 0.897,0.523 L -3.734,-4.792 H 0 v -20.296 c 0,-0.224 0.224,-0.523 0.521,-0.523 h 4.63 c 0.448,0 0.598,0.224 0.598,0.597 v 54.82 c 0,0.525 -0.299,0.749 -0.822,0.749" /></g><g
           transform="translate(292.6875,479.4102)"
           id="g24"><path
             id="path26"
             style="fill:#231f20;fill-opacity:1;fill-rule:nonzero;stroke:none"
             d="m 0,0 h -4.628 c -0.374,0 -0.598,-0.299 -0.598,-0.523 v -14.304 h -8.587 v 14.304 c 0,0.374 -0.147,0.523 -0.52,0.523 h -4.631 c -0.371,0 -0.595,-0.225 -0.595,-0.523 V -36.92 c 0,-0.374 0.15,-0.598 0.52,-0.598 h 4.706 c 0.299,0 0.52,0.224 0.52,0.598 v 17.373 h 8.587 V -36.92 c 0,-0.374 0.224,-0.598 0.598,-0.598 H 0 c 0.373,0 0.522,0.299 0.522,0.598 V -0.523 C 0.522,-0.225 0.299,0 0,0" /></g><g
           transform="translate(398.3711,444.2871)"
           id="g28"><path
             id="path30"
             style="fill:#231f20;fill-opacity:1;fill-rule:nonzero;stroke:none"
             d="m 0,0 -0.598,2.547 c -0.072,0.224 -0.146,0.298 -0.371,0.298 -0.373,0 -2.388,-0.822 -5.301,-0.822 -5.673,0 -8.437,5.465 -8.437,14.153 0,7.64 2.316,15.203 6.197,15.203 1.047,0 2.317,-0.299 4.33,-2.173 0.225,-0.225 0.373,-0.299 0.598,-0.299 0.225,0 0.447,0.152 0.672,0.525 l 2.017,3.294 c 0.149,0.226 0.223,0.453 0.223,0.676 0,0.299 -0.299,0.523 -0.746,0.747 -3.063,1.574 -5.152,1.872 -6.943,1.872 -7.02,0 -12.469,-8.386 -12.469,-21.491 0,-11.309 5.226,-17.823 12.691,-17.823 3.139,0 6.496,1.496 7.84,2.471 C 0,-0.598 0.074,-0.299 0,0" /></g><g
           transform="translate(365.9258,462.4868)"
           id="g32"><path
             id="path34"
             style="fill:#231f20;fill-opacity:1;fill-rule:nonzero;stroke:none"
             d="m 0,0 8.957,16.4 c 0.15,0.225 0.074,0.523 -0.225,0.523 H 4.328 c -1.269,0 -1.717,-0.448 -2.162,-1.422 L -4.557,1.497 C -4.928,0.672 -5.301,0.149 -5.674,-0.077 V 16.4 c 0,0.299 -0.15,0.523 -0.449,0.523 h -4.852 c -0.224,0 -0.449,-0.224 -0.449,-0.523 v -36.472 c 0,-0.224 0.151,-0.523 0.449,-0.523 h 4.852 c 0.299,0 0.449,0.224 0.449,0.523 v 18.798 c 0.223,-0.15 0.373,-0.374 0.522,-0.675 l 8.509,-17.523 c 0.45,-0.899 1.122,-1.123 2.092,-1.123 h 4.778 c 0.298,0 0.373,0.299 0.224,0.523 z" /></g><g
           transform="translate(315.084,446.6094)"
           id="g36"><path
             id="path38"
             style="fill:#231f20;fill-opacity:1;fill-rule:nonzero;stroke:none"
             d="m 0,0 h -10.824 c 3.808,6.515 5.301,13.854 5.822,22.84 0.15,1.947 0.225,3.971 0.225,5.243 H 0 Z M 8.064,0 H 7.168 C 6.048,0 5.749,0.448 5.749,1.347 v 30.931 c 0,0.373 -0.149,0.523 -0.448,0.523 h -14.93 c -0.375,0 -0.598,-0.225 -0.598,-0.523 v -2.696 c 0,-9.061 -0.523,-20.744 -5.3,-29.582 h -1.644 c -0.448,0 -0.598,-0.227 -0.598,-0.6 v -10.933 c 0,-0.376 0.299,-0.523 0.523,-0.523 h 3.586 c 0.818,0 1.117,0.598 1.117,1.123 v 6.216 H 3.436 v -6.816 c 0,-0.299 0.222,-0.523 0.521,-0.523 h 3.809 c 0.445,0 0.893,0.373 0.893,1.123 V -0.6 C 8.659,-0.227 8.436,0 8.064,0" /></g><g
           transform="translate(337.5566,464.0576)"
           id="g40"><path
             id="path42"
             style="fill:#231f20;fill-opacity:1;fill-rule:nonzero;stroke:none"
             d="m 0,0 c -1.719,0 -4.404,-0.299 -4.404,-0.299 0,0 0,1.123 0.148,2.323 0.67,6.366 2.238,9.584 4.853,9.584 2.389,0 3.882,-3.294 4.255,-9.061 C 4.926,1.35 4.926,0 4.926,0 Z m 0.82,16.251 c -8.06,0 -11.646,-10.184 -11.646,-21.267 0,-11.309 5.076,-18.048 12.543,-18.048 3.658,0 6.869,1.421 8.51,2.472 0.298,0.149 0.373,0.373 0.298,0.672 l -0.597,2.547 c -0.074,0.298 -0.224,0.448 -0.598,0.448 -0.296,0 -2.462,-0.822 -5.523,-0.822 -5.749,0 -8.436,5.017 -8.436,11.606 v 1.773 c 0,0 2.91,-0.349 4.629,-0.349 h 10.898 v 3.146 c 0,11.606 -4.107,17.822 -10.078,17.822" /></g></g></g></g></svg>