<?xml version="1.0" encoding="UTF-8" standalone="no"?>
<svg
   xmlns:dc="http://purl.org/dc/elements/1.1/"
   xmlns:cc="http://creativecommons.org/ns#"
   xmlns:rdf="http://www.w3.org/1999/02/22-rdf-syntax-ns#"
   xmlns:svg="http://www.w3.org/2000/svg"
   xmlns="http://www.w3.org/2000/svg"
   viewBox="0 0 1024 1365.3333"
   height="1365.3333"
   width="1024"
   xml:space="preserve"
   id="svg2"
   version="1.1"><metadata
     id="metadata8"><rdf:RDF><cc:Work
         rdf:about=""><dc:format>image/svg+xml</dc:format><dc:type
           rdf:resource="http://purl.org/dc/dcmitype/StillImage" /></cc:Work></rdf:RDF></metadata><defs
     id="defs6"><clipPath
       id="clipPath18"
       clipPathUnits="userSpaceOnUse"><path
         id="path16"
         d="M 0,1024 H 768 V 0 H 0 Z" /></clipPath></defs><g
     transform="matrix(1.3333333,0,0,-1.3333333,0,1365.3333)"
     id="g10"><g
       id="g12"><g
         clip-path="url(#clipPath18)"
         id="g14"><g
           transform="translate(395.8467,500.1973)"
           id="g20"><path
             id="path22"
             style="fill:#231f20;fill-opacity:1;fill-rule:evenodd;stroke:none"
             d="m 0,0 c -0.693,0 -1.559,0 -2.079,0.172 -0.173,2.424 -0.346,12.641 -0.173,21.646 1.039,0.347 1.731,0.52 2.598,0.52 3.809,0 5.887,-4.503 5.887,-10.044 C 6.233,5.367 3.636,0 0,0 m 3.982,25.109 c -2.424,0 -4.329,-0.52 -6.234,-1.558 0,5.54 0,10.562 0.173,12.294 l -11.602,-2.078 v -1.039 l 1.212,-0.173 c 1.559,-0.346 2.078,-1.212 2.424,-3.29 0.347,-4.156 0.174,-26.322 0,-29.958 3.117,-0.694 6.407,-1.213 9.698,-1.213 9.178,0 14.719,5.715 14.719,14.719 0,7.101 -4.502,12.296 -10.39,12.296" /></g><g
           transform="translate(338.5264,535.3491)"
           id="g24"><path
             id="path26"
             style="fill:#231f20;fill-opacity:1;fill-rule:evenodd;stroke:none"
             d="m 0,0 h -30.477 v -1.558 l 1.732,-0.173 c 2.251,-0.346 3.117,-1.731 3.462,-5.022 0.521,-6.234 0.347,-17.49 0,-22.858 -0.345,-3.291 -1.211,-4.849 -3.462,-5.021 l -1.732,-0.348 v -1.385 h 19.568 v 1.385 l -2.078,0.348 c -2.251,0.172 -3.117,1.73 -3.463,5.021 -0.174,2.252 -0.347,5.888 -0.347,10.39 l 4.156,-0.173 c 2.599,0 3.809,-2.078 4.329,-5.023 h 1.559 v 12.295 h -1.559 c -0.52,-2.943 -1.73,-5.021 -4.329,-5.021 l -4.156,-0.173 c 0,5.887 0.173,11.429 0.347,14.719 h 6.059 c 4.677,0 7.101,-2.944 8.832,-8.139 l 1.732,0.52 z" /></g><g
           transform="translate(347.8779,523.9204)"
           id="g28"><path
             id="path30"
             style="fill:#231f20;fill-opacity:1;fill-rule:evenodd;stroke:none"
             d="m 0,0 c -3.81,0 -4.848,-5.195 -4.848,-11.948 0,-6.58 1.731,-11.949 5.196,-11.949 3.981,0 5.021,5.195 5.021,11.949 C 5.369,-5.368 3.637,0 0,0 m 0.52,1.732 c 8.658,0 12.988,-5.888 12.988,-13.68 0,-7.447 -4.849,-13.681 -13.508,-13.681 -8.658,0 -12.987,5.888 -12.987,13.681 0,7.446 4.848,13.68 13.507,13.68" /></g><g
           transform="translate(420.4355,515.0884)"
           id="g32"><path
             id="path34"
             style="fill:#231f20;fill-opacity:1;fill-rule:evenodd;stroke:none"
             d="M 0,0 8.14,0.174 C 8.14,3.637 7.62,8.832 4.677,8.832 1.732,8.832 0.173,3.984 0,0 m -7.965,-3.289 c 0,7.099 4.502,13.853 13.334,13.853 7.273,0 10.736,-5.369 10.736,-12.468 H 0 c -0.173,-6.407 2.944,-11.083 9.179,-11.083 2.77,0 4.156,0.692 5.887,1.904 l 0.693,-0.865 c -1.733,-2.424 -5.541,-4.849 -10.39,-4.849 -7.793,0 -13.334,5.541 -13.334,13.508" /></g><g
           transform="translate(457.1475,524.2661)"
           id="g36"><path
             id="path38"
             style="fill:#231f20;fill-opacity:1;fill-rule:evenodd;stroke:none"
             d="m 0,0 c -2.078,0.867 -4.849,1.386 -7.965,1.386 -6.407,0 -10.39,-3.809 -10.39,-8.312 0,-4.503 2.943,-6.407 7.1,-7.793 4.328,-1.557 5.541,-2.77 5.541,-4.848 0,-2.078 -1.558,-3.982 -4.329,-3.982 -3.29,0 -5.715,1.904 -7.62,7.099 l -1.212,-0.347 0.173,-7.62 c 2.078,-0.865 5.888,-1.558 9.179,-1.558 6.752,0 11.083,3.465 11.083,8.832 0,3.637 -1.906,5.714 -6.409,7.447 -4.848,1.904 -6.58,3.116 -6.58,5.368 0,2.251 1.56,3.81 3.637,3.81 3.117,0 5.195,-1.905 6.754,-6.581 l 1.212,0.346 z" /></g><g
           transform="translate(383.8975,524.9595)"
           id="g40"><path
             id="path42"
             style="fill:#231f20;fill-opacity:1;fill-rule:evenodd;stroke:none"
             d="m 0,0 c -2.943,1.732 -8.139,0.866 -10.91,-5.368 l 0.173,6.061 -11.602,-2.252 v -1.038 l 1.212,-0.174 c 1.559,-0.173 2.251,-1.038 2.424,-3.29 0.347,-4.156 0.174,-11.43 0,-15.066 -0.173,-2.077 -0.865,-3.116 -2.424,-3.29 l -1.212,-0.173 v -1.385 h 16.105 v 1.385 l -2.079,0.173 c -1.731,0.174 -2.25,1.213 -2.424,3.29 -0.346,3.291 -0.346,9.871 -0.173,14.027 0.866,1.213 4.676,2.251 8.139,0 z" /></g></g></g></g></svg>