<?xml version="1.0" encoding="UTF-8" standalone="no"?>
<svg
   xmlns:dc="http://purl.org/dc/elements/1.1/"
   xmlns:cc="http://creativecommons.org/ns#"
   xmlns:rdf="http://www.w3.org/1999/02/22-rdf-syntax-ns#"
   xmlns:svg="http://www.w3.org/2000/svg"
   xmlns="http://www.w3.org/2000/svg"
   viewBox="0 0 394.66666 192.888"
   height="192.888"
   width="394.66666"
   xml:space="preserve"
   id="svg2"
   version="1.1"><metadata
     id="metadata8"><rdf:RDF><cc:Work
         rdf:about=""><dc:format>image/svg+xml</dc:format><dc:type
           rdf:resource="http://purl.org/dc/dcmitype/StillImage" /></cc:Work></rdf:RDF></metadata><defs
     id="defs6"><clipPath
       id="clipPath14"
       clipPathUnits="userSpaceOnUse"><path
         id="path12"
         d="M 0,0 H 612 V 792 H 0 Z" /></clipPath><clipPath
       id="clipPath30"
       clipPathUnits="userSpaceOnUse"><path
         id="path28"
         d="M 0,792 H 612 V 0 H 0 Z" /></clipPath></defs><g
     clip-path="url(#clipPath14)"
     transform="matrix(1.3333333,0,0,-1.3333333,-211.11067,623.556)"
     id="g10"><g
       transform="translate(250.9229,373.999)"
       id="g16"><path
         id="path18"
         style="fill:#0079c2;fill-opacity:1;fill-rule:nonzero;stroke:none"
         d="M 0,0 H 18.454 V -6.029 H 9.676 V -48.397 H 0 Z" /></g><g
       transform="translate(269.6035,325.6016)"
       id="g20"><path
         id="path22"
         style="fill:#0079c2;fill-opacity:1;fill-rule:nonzero;stroke:none"
         d="m 0,0 h 9.473 l 0.896,12.853 h 4.563 L 15.832,0 h 9.469 L 20.255,48.397 H 5.046 L 0,0 m 10.714,18.169 1.659,24.199 h 0.555 l 1.658,-24.199 z" /></g><g
       id="g24"><g
         clip-path="url(#clipPath30)"
         id="g26"><g
           transform="translate(308.7607,342.541)"
           id="g32"><path
             id="path34"
             style="fill:#0079c2;fill-opacity:1;fill-rule:nonzero;stroke:none"
             d="m 0,0 v -9.124 c 0,-1.23 0.952,-1.587 1.508,-1.587 0.912,0 1.547,0.754 1.547,1.587 V 2.143 c 0,1.506 -0.278,3.172 -3.888,3.172 H -4.76 v 5.316 h 4.086 c 2.737,0 3.729,0.636 3.729,3.61 v 9.6 c 0,0.833 -0.635,1.588 -1.547,1.588 C 0.952,25.429 0,25.111 0,23.841 v -7.894 h -9.679 v 6.864 c 0,3.371 0.397,8.647 7.18,8.647 h 8.014 c 6.782,0 7.219,-5.276 7.219,-8.647 V 15.075 C 12.734,9.799 9.046,8.37 6.149,8.489 V 8.013 c 6.506,0.159 6.585,-4.839 6.585,-6.545 v -9.759 c 0,-3.411 -0.437,-8.648 -7.219,-8.648 h -8.014 c -6.783,0 -7.18,5.237 -7.18,8.648 l 0,8.291 H 0" /></g><g
           transform="translate(327.8428,373.999)"
           id="g36"><path
             id="path38"
             style="fill:#0079c2;fill-opacity:1;fill-rule:nonzero;stroke:none"
             d="m 0,0 h 22.413 v -48.397 h -9.68 V -6.029 H 9.679 V -48.397 H 0 Z" /></g><g
           transform="translate(356.6025,325.6016)"
           id="g40"><path
             id="path42"
             style="fill:#0079c2;fill-opacity:1;fill-rule:nonzero;stroke:none"
             d="m 0,0 h 9.68 v 16.464 h 5.553 c 6.744,0 7.181,5.236 7.181,8.647 V 39.75 c 0,3.371 -0.437,8.647 -7.181,8.647 H 0 V 0 m 9.68,21.778 v 20.59 h 1.269 c 1.031,0 1.784,-0.873 1.784,-2.421 V 24.199 c 0,-1.548 -0.753,-2.421 -1.784,-2.421 z" /></g><g
           transform="translate(385.3633,334.25)"
           id="g44"><path
             id="path46"
             style="fill:#0079c2;fill-opacity:1;fill-rule:nonzero;stroke:none"
             d="m 0,0 c 0,-3.411 0.437,-8.648 7.181,-8.648 h 8.052 c 6.744,0 7.181,5.237 7.181,8.648 v 31.102 c 0,3.371 -0.437,8.647 -7.181,8.647 H 7.181 C 0.437,39.749 0,34.473 0,31.102 V 0 m 12.733,-0.833 c 0,-0.833 -0.633,-1.587 -1.545,-1.587 -0.556,0 -1.508,0.357 -1.508,1.587 v 32.965 c 0,1.27 0.952,1.588 1.508,1.588 0.912,0 1.545,-0.755 1.545,-1.588 z" /></g><g
           transform="translate(439.2744,373.999)"
           id="g48"><path
             id="path50"
             style="fill:#0079c2;fill-opacity:1;fill-rule:nonzero;stroke:none"
             d="M 0,0 H 12.614 V -48.397 H 2.936 v 30.348 H 2.578 l -4.997,-30.348 h -7.736 l -4.959,30.348 h -0.358 V -48.397 H -25.15 V 0 h 12.575 l 6.307,-34.037 z" /></g><g
           transform="translate(237.5186,418.1514)"
           id="g52"><path
             id="path54"
             style="fill:#0079c2;fill-opacity:1;fill-rule:nonzero;stroke:none"
             d="m 0,0 c -0.111,-4.958 -0.702,-10.195 -1.456,-13.329 0.269,5.395 -0.377,12.972 -1.615,18.922 -1.237,5.911 -4.74,15.828 -7.537,20.391 -2.582,-4.364 -5.764,-12.932 -7.43,-20.351 -1.674,-7.418 -1.722,-16.423 -1.722,-19.121 -0.444,2.261 -1.554,10.394 -1.241,18.526 0.262,6.704 1.833,13.646 2.693,16.82 3.285,10.592 7.002,17.375 7.7,18.447 0.699,-1.072 5.379,-9.442 7.807,-18.209 C -0.385,13.329 0.103,4.919 0,0 m -10.552,-37.885 c -1.456,2.738 -3.717,7.934 -3.931,16.027 -0.056,7.775 3.066,14.48 3.979,15.868 0.813,-1.388 3.502,-7.22 3.824,-15.194 0.218,-7.775 -2.369,-13.923 -3.872,-16.701 M 0.861,22.017 c -2.964,12.972 -10.39,23.524 -11.413,25.23 -1.619,-2.42 -7.541,-11.743 -10.552,-22.057 -3.289,-11.544 -3.773,-21.778 -2.638,-31.815 1.126,-10.076 5.383,-20.43 5.383,-20.43 2.261,-5.395 5.649,-11.226 7.855,-14.083 3.232,4.205 10.663,16.741 12.98,33.085 1.289,9.124 1.344,17.097 -1.615,30.07" /></g><g
           transform="translate(231.9922,373.999)"
           id="g56"><path
             id="path58"
             style="fill:#0079c2;fill-opacity:1;fill-rule:nonzero;stroke:none"
             d="m 0,0 h -22.528 v -15.114 c 0.02,0 0.036,0.039 0.055,0.039 5.308,5.316 13.916,5.316 19.228,0 5.308,-5.276 5.308,-13.884 0,-19.199 -0.024,-0.04 -0.047,-0.04 -0.071,-0.08 -0.028,0 -0.056,-0.04 -0.08,-0.079 -5.295,-5.236 -12.214,-7.855 -19.132,-7.855 -6.95,0 -13.9,2.619 -19.2,7.934 -9.347,9.323 -10.453,23.801 -3.329,34.354 0.96,1.428 2.067,2.776 3.329,4.047 5.3,5.315 12.25,7.933 19.2,7.933 v 36.337 c -26.706,0 -48.354,-21.619 -48.354,-48.317 0,-26.697 21.648,-48.357 48.354,-48.357 13.924,0 26.468,5.91 35.29,15.313 L 12.762,0 H 0" /></g></g></g></g></svg>