<?xml version="1.0" encoding="UTF-8" standalone="no"?>
<svg
   xmlns:dc="http://purl.org/dc/elements/1.1/"
   xmlns:cc="http://creativecommons.org/ns#"
   xmlns:rdf="http://www.w3.org/1999/02/22-rdf-syntax-ns#"
   xmlns:svg="http://www.w3.org/2000/svg"
   xmlns="http://www.w3.org/2000/svg"
   viewBox="0 0 1024 376.52267"
   height="376.52267"
   width="1024"
   xml:space="preserve"
   id="svg2"
   version="1.1"><metadata
     id="metadata8"><rdf:RDF><cc:Work
         rdf:about=""><dc:format>image/svg+xml</dc:format><dc:type
           rdf:resource="http://purl.org/dc/dcmitype/StillImage" /></cc:Work></rdf:RDF></metadata><defs
     id="defs6"><clipPath
       id="clipPath14"
       clipPathUnits="userSpaceOnUse"><path
         id="path12"
         d="M 0,0 H 768 V 1024 H 0 Z" /></clipPath><clipPath
       id="clipPath22"
       clipPathUnits="userSpaceOnUse"><path
         id="path20"
         d="M 0,1024 H 768 V 0 H 0 Z" /></clipPath></defs><g
     clip-path="url(#clipPath14)"
     transform="matrix(1.3333333,0,0,-1.3333333,0,870.26133)"
     id="g10"><g
       id="g16"><g
         clip-path="url(#clipPath22)"
         id="g18"><g
           transform="translate(480.8135,499.2227)"
           id="g24"><path
             id="path26"
             style="fill:#fa0029;fill-opacity:1;fill-rule:nonzero;stroke:none"
             d="m 0,0 c -0.765,-0.416 -1.53,-0.904 -2.296,-1.252 -2.296,-1.042 -4.66,-1.32 -6.746,-1.32 -2.226,0 -5.705,0.14 -9.252,2.713 -4.936,3.478 -7.094,9.458 -7.094,14.675 0,10.781 8.766,16.066 15.929,16.066 2.503,0 5.078,-0.627 7.163,-1.949 3.477,-2.292 4.381,-5.283 4.867,-6.883 l -16.343,-6.608 -5.356,-0.418 C -17.39,6.191 -11.407,1.045 -4.8,1.045 c 3.547,0 6.121,1.252 8.487,2.434 L 0,0 m -6.538,20.728 c 1.32,0.487 2.017,0.904 2.017,1.878 0,2.781 -3.13,5.981 -6.886,5.981 -2.783,0 -7.998,-2.156 -7.998,-9.668 0,-1.183 0.137,-2.435 0.208,-3.688 z" /></g><g
           transform="translate(453.7559,497.6953)"
           id="g28"><path
             id="path30"
             style="fill:#138f34;fill-opacity:1;fill-rule:nonzero;stroke:none"
             d="m 0,0 h -12.312 c 1.601,2.086 1.879,2.294 1.879,3.684 v 11.337 c 0,5.425 0.07,13.148 0.279,20.379 0.07,3.547 0.347,7.998 0.417,11.199 h -5.425 l 5.219,2.505 H 0 C -2.154,47.849 -2.851,47.433 -3.129,44.999 -3.685,39.644 -3.754,31.157 -3.754,21.28 V 5.215 c 0,-2.713 0.485,-3.129 2.782,-3.339 1.183,-0.14 2.365,-0.208 3.547,-0.349 z" /></g><g
           transform="translate(430.9443,526.6982)"
           id="g32"><path
             id="path34"
             style="fill:#0860a8;fill-opacity:1;fill-rule:nonzero;stroke:none"
             d="m 0,0 c 1.599,-1.322 4.938,-4.104 4.938,-9.391 0,-5.147 -2.921,-7.582 -5.842,-9.876 -0.905,-0.904 -1.95,-1.879 -1.95,-3.409 0,-1.53 1.045,-2.365 1.809,-2.991 l 2.505,-1.945 c 3.061,-2.574 5.842,-4.94 5.842,-9.741 0,-6.537 -6.329,-13.144 -18.293,-13.144 -10.084,0 -14.953,4.799 -14.953,9.947 0,2.504 1.252,6.051 5.357,8.486 4.312,2.643 10.155,2.988 13.283,3.199 -0.974,1.253 -2.086,2.575 -2.086,4.729 0,1.182 0.347,1.878 0.696,2.713 -0.767,-0.068 -1.53,-0.14 -2.227,-0.14 -7.372,0 -11.545,5.497 -11.545,10.92 0,3.198 1.46,6.748 4.451,9.321 3.965,3.268 8.694,3.824 12.45,3.824 H 8.763 L 4.312,0 H 0 m -4.939,-30.883 c -0.556,0.071 -0.905,0.071 -1.598,0.071 -0.627,0 -4.384,-0.14 -7.305,-1.115 -1.53,-0.555 -5.981,-2.224 -5.981,-7.163 0,-4.937 4.799,-8.483 12.242,-8.483 6.677,0 10.224,3.197 10.224,7.51 0,3.547 -2.294,5.423 -7.582,9.18 m 2.019,13.214 c 1.598,1.603 1.737,3.827 1.737,5.08 0,5.006 -2.99,12.797 -8.763,12.797 -1.809,0 -3.756,-0.905 -4.869,-2.297 -1.183,-1.461 -1.532,-3.337 -1.532,-5.145 0,-4.66 2.713,-12.381 8.695,-12.381 1.739,0 3.618,0.835 4.732,1.946" /></g><g
           transform="translate(387.8213,496.791)"
           id="g36"><path
             id="path38"
             style="fill:#ffe500;fill-opacity:1;fill-rule:nonzero;stroke:none"
             d="m 0,0 c -11.058,0 -16.97,8.624 -16.97,16.414 0,9.109 7.443,16.899 18.013,16.899 10.225,0 16.624,-7.998 16.624,-16.414 C 17.667,8.693 11.337,0 0,0 m 8.694,5.633 c 1.668,2.223 2.087,5.008 2.087,7.72 0,6.121 -2.923,17.804 -11.547,17.804 -2.294,0 -4.591,-0.904 -6.259,-2.364 -2.711,-2.436 -3.199,-5.496 -3.199,-8.486 0,-6.884 3.407,-18.221 11.823,-18.221 2.713,0 5.495,1.32 7.095,3.547" /></g><g
           transform="translate(350.8184,496.791)"
           id="g40"><path
             id="path42"
             style="fill:#fa0029;fill-opacity:1;fill-rule:nonzero;stroke:none"
             d="m 0,0 c -11.059,0 -16.97,8.624 -16.97,16.414 0,9.109 7.442,16.899 18.014,16.899 10.223,0 16.623,-7.998 16.623,-16.414 C 17.667,8.693 11.339,0 0,0 m 8.694,5.633 c 1.671,2.223 2.087,5.008 2.087,7.72 0,6.121 -2.92,17.804 -11.545,17.804 -2.298,0 -4.591,-0.904 -6.259,-2.364 -2.713,-2.436 -3.202,-5.496 -3.202,-8.486 0,-6.884 3.41,-18.221 11.826,-18.221 2.712,0 5.496,1.32 7.093,3.547" /></g><g
           transform="translate(329.4268,499.2168)"
           id="g44"><path
             id="path46"
             style="fill:#0860a8;fill-opacity:1;fill-rule:nonzero;stroke:none"
             d="m 0,0 -9.324,-2.152 c -3.783,-0.586 -7.175,-1.11 -10.76,-1.11 -17.998,10e-4 -24.843,13.239 -24.843,23.607 0,12.651 9.716,24.387 26.344,24.387 3.521,0 6.911,-0.522 9.976,-1.37 4.891,-1.371 7.172,-3.065 8.607,-4.043 l -5.413,-5.152 -2.281,-0.52 1.631,2.61 c -2.216,2.149 -6.263,6.127 -13.955,6.127 -10.303,0 -18.063,-7.826 -18.063,-19.238 0,-12.257 8.868,-23.798 23.083,-23.798 4.175,0 6.325,0.847 8.281,1.63 v 10.499 l -9.845,-0.522 5.215,2.804 H 2.478 L 0.784,12.129 C 0.326,11.737 0.262,11.606 0.13,11.087 0.064,10.498 0,8.607 0,7.956 Z" /></g></g></g></g></svg>