<?xml version="1.0" encoding="UTF-8" standalone="no"?>
<svg
   xmlns:dc="http://purl.org/dc/elements/1.1/"
   xmlns:cc="http://creativecommons.org/ns#"
   xmlns:rdf="http://www.w3.org/1999/02/22-rdf-syntax-ns#"
   xmlns:svg="http://www.w3.org/2000/svg"
   xmlns="http://www.w3.org/2000/svg"
   viewBox="0 0 600 320"
   height="320"
   width="600"
   xml:space="preserve"
   id="svg2"
   version="1.1"><metadata
     id="metadata8"><rdf:RDF><cc:Work
         rdf:about=""><dc:format>image/svg+xml</dc:format><dc:type
           rdf:resource="http://purl.org/dc/dcmitype/StillImage" /></cc:Work></rdf:RDF></metadata><defs
     id="defs6"><clipPath
       id="clipPath14"
       clipPathUnits="userSpaceOnUse"><path
         id="path12"
         d="M 0,0 H 768 V 1024 H 0 Z" /></clipPath><clipPath
       id="clipPath22"
       clipPathUnits="userSpaceOnUse"><path
         id="path20"
         d="M 0,1024 H 768 V 0 H 0 Z" /></clipPath></defs><g
     clip-path="url(#clipPath14)"
     transform="matrix(1.3333333,0,0,-1.3333333,-212.66667,842)"
     id="g10"><g
       id="g16"><g
         clip-path="url(#clipPath22)"
         id="g18"><g
           transform="translate(340.4829,541.8149)"
           id="g24"><path
             id="path26"
             style="fill:#000000;fill-opacity:1;fill-rule:nonzero;stroke:none"
             d="M 0,0 C -0.546,0.338 -0.253,0.422 1.967,0.568 3.793,0.688 3.947,0.665 3.262,0.379 2.215,-0.058 0.43,-0.266 0,0 m 4.625,-20.025 c -1.398,1.469 -1.139,3.54 0.669,5.348 1.298,1.298 3.151,1.913 6.47,2.147 l 2.163,0.153 -0.361,1.046 c -0.396,1.149 -0.114,3.05 0.588,3.977 0.323,0.426 0.361,0.349 0.368,-0.764 0.009,-1.326 0.528,-2.84 1.249,-3.636 0.606,-0.673 2.669,-1.698 4.846,-2.41 2.149,-0.702 1.89,-0.739 -1.703,-0.243 -4.939,0.682 -7.955,0.774 -9.81,0.299 -2.683,-0.688 -4.158,-2.155 -4.158,-4.137 0,-1.053 0.949,-1.972 2.042,-1.978 0.533,-0.003 0.595,-0.058 0.289,-0.255 -0.76,-0.492 -1.946,-0.289 -2.652,0.453 m -9.896,18.591 c 0.48,0.376 0.469,0.392 -0.253,0.324 -0.417,-0.039 -0.806,-0.216 -0.864,-0.394 -0.147,-0.448 0.51,-0.407 1.117,0.07 m -2.476,-0.742 c 0,0.049 -0.095,0.089 -0.212,0.089 -0.325,0 -2.377,-1.82 -2.377,-2.108 0,-0.14 0.582,0.237 1.294,0.838 0.713,0.601 1.295,1.132 1.295,1.181 m 96.359,-29.412 c -1.763,0.532 -7.182,3.279 -11.785,5.976 -7.907,4.629 -21.022,11.466 -20.814,10.849 0.05,-0.149 1.586,-1.845 3.412,-3.77 1.827,-1.925 3.25,-3.499 3.162,-3.499 -0.352,0 -3.23,2.283 -5.058,4.014 -2.375,2.247 -3.842,3.269 -6.431,4.476 -1.781,0.831 -2.221,0.929 -4.235,0.946 -2.561,0.021 -2.436,0.277 0.325,0.669 1.04,0.147 1.931,0.307 1.978,0.355 0.197,0.197 -14.421,5.498 -19.353,7.018 -3.31,1.02 -6.458,1.795 -6.622,1.63 -0.067,-0.067 0.106,-0.632 0.385,-1.255 0.279,-0.624 0.461,-1.18 0.404,-1.237 -0.056,-0.056 -0.636,0.367 -1.288,0.941 -2.487,2.19 -7.3,4.126 -11.951,4.809 C 8.151,0.715 7.106,0.553 5.798,-0.434 L 4.967,-1.062 6.861,-2.935 c 2.454,-2.426 3.097,-3.53 1.165,-2.004 -1.758,1.39 -3.46,2.245 -5.48,2.752 -1.595,0.401 -2.78,0.97 -2.781,1.336 0,0.103 0.612,0.152 1.36,0.108 1.085,-0.064 1.646,0.068 2.773,0.648 2.506,1.29 2.18,1.453 -2.611,1.313 -3.379,-0.1 -4.59,-0.238 -5.954,-0.678 -1.833,-0.592 -3.186,-1.468 -2.924,-1.892 0.092,-0.149 0.458,0.025 0.859,0.409 0.736,0.706 2.123,0.9 2.871,0.403 0.597,-0.397 -1.157,-1.894 -2.872,-2.452 -2.853,-0.927 -3.836,-2.341 -2.246,-3.231 0.924,-0.517 1.338,-0.258 2.594,1.625 1.435,2.149 2.348,2.428 3.751,1.144 1.388,-1.271 0.768,-3.763 -1.385,-5.563 -1.276,-1.067 -1.356,-1.255 -0.629,-1.485 0.73,-0.232 1.432,0.23 2.323,1.524 0.603,0.876 0.993,1.172 1.733,1.31 1.421,0.267 2.43,1.399 2.43,2.729 0,0.59 -0.125,1.305 -0.277,1.589 -0.269,0.504 -0.255,0.506 0.54,0.095 0.449,-0.232 1.169,-0.99 1.6,-1.683 0.716,-1.152 0.932,-1.306 2.519,-1.788 0.955,-0.29 2.254,-0.894 2.886,-1.343 1.322,-0.938 3.352,-2.837 3.352,-3.135 0,-0.111 -0.631,0.202 -1.401,0.694 -5.457,3.491 -9.37,3.444 -13.539,-0.165 -1.967,-1.702 -3.479,-1.105 -3.376,1.331 0.053,1.273 0.075,1.307 0.737,1.162 0.534,-0.117 0.801,0.001 1.23,0.546 0.617,0.784 0.688,1.432 0.25,2.263 -0.639,1.214 -1.593,1.278 -2.179,0.146 -0.284,-0.548 -0.363,-1.101 -0.247,-1.717 0.167,-0.892 0.156,-0.906 -0.56,-0.734 -0.402,0.095 -1.197,0.275 -1.767,0.398 -1.182,0.256 -2.72,1.805 -2.72,2.739 0,0.347 0.493,1.031 1.262,1.75 0.694,0.649 1.337,1.481 1.43,1.848 0.559,2.23 7.168,4.014 13.627,3.678 5.017,-0.26 8.725,-0.89 15.412,-2.62 10.762,-2.783 23.161,-7.81 40.02,-16.228 6.997,-3.494 10.7,-5.502 19.238,-10.431 1.678,-0.969 4.243,-2.291 5.7,-2.94 2.308,-1.028 2.931,-1.194 4.85,-1.292 l 2.202,-0.114 2.261,1.197 c 1.713,0.907 2.425,1.156 2.936,1.028 0.925,-0.232 1.332,-1.183 0.902,-2.11 -0.327,-0.705 -0.332,-0.707 -0.549,-0.137 -0.361,0.955 -1.289,0.976 -3.338,0.078 -2.062,-0.906 -4.675,-1.222 -6.227,-0.754 m -8.175,0.377 c -1.744,1.047 -3.023,2.198 -3.76,3.385 -0.663,1.07 -1.408,1.336 -4.54,1.622 -2.662,0.243 -4.933,0.969 -5.598,1.787 -0.286,0.351 -0.264,0.383 0.154,0.227 1.204,-0.452 2.849,-0.715 5.78,-0.924 3.762,-0.268 4.444,-0.592 5.913,-2.809 0.545,-0.82 1.616,-2.104 2.382,-2.852 0.766,-0.748 1.351,-1.36 1.3,-1.36 -0.05,0 -0.784,0.416 -1.631,0.924 m -4.129,-3.362 c -3.235,1.784 -4.048,1.97 -9.584,2.183 -5.583,0.214 -6.908,0.537 -9.771,2.382 -2.009,1.295 -4.696,4.041 -5.9,6.031 -2.118,3.499 -3.062,3.865 -9.325,3.607 -4.805,-0.197 -9.232,0.175 -12.149,1.019 l -2.096,0.608 -1.36,-0.674 c -1.17,-0.578 -1.689,-0.671 -3.692,-0.661 -1.948,0.01 -2.694,0.145 -4.534,0.82 -5.706,2.092 -5.987,2.174 -7.201,2.096 -1.14,-0.073 -1.222,-0.128 -1.302,-0.856 -0.101,-0.928 -0.562,-1.527 -0.562,-0.731 0,0.296 -0.181,0.688 -0.402,0.872 -0.564,0.468 -0.364,1.338 0.402,1.745 0.959,0.51 3.6,0.23 6.475,-0.687 3.413,-1.089 4.78,-1.366 6.768,-1.37 2.024,-0.004 3.133,0.476 3.863,1.673 0.618,1.014 0.666,3.067 0.119,5.104 -0.21,0.783 -0.384,1.447 -0.386,1.474 -0.002,0.026 0.959,-0.458 2.134,-1.079 1.175,-0.619 3.07,-1.457 4.209,-1.861 l 2.073,-0.736 -1.735,-0.076 c -0.956,-0.042 -2.391,0.094 -3.194,0.304 -1.35,0.353 -1.445,0.349 -1.272,-0.053 0.102,-0.239 0.242,-1.109 0.311,-1.936 0.124,-1.487 0.136,-1.506 1.324,-2.094 3.812,-1.885 5.812,-2.206 13.391,-2.147 l 5.717,0.044 1.031,-0.681 c 0.803,-0.532 1.27,-1.178 2.127,-2.947 1.795,-3.706 4.854,-6.296 8.405,-7.115 0.601,-0.139 2.783,-0.258 4.849,-0.264 6.034,-0.017 9.05,-0.949 12.044,-3.719 0.855,-0.792 1.497,-1.435 1.425,-1.429 -0.071,0.006 -1.062,0.524 -2.202,1.154 m 7.512,-4.208 c -0.57,0.187 -1.327,0.505 -1.684,0.707 -0.608,0.347 -0.516,0.378 1.522,0.511 1.962,0.128 2.228,0.21 2.785,0.856 1.112,1.293 0.599,2.478 -1.457,3.363 -1.555,0.669 -0.369,0.469 2.207,-0.373 3.065,-1.002 5.27,-0.975 7.895,0.095 1.941,0.792 1.375,0.215 -0.777,-0.794 -1.045,-0.489 -1.98,-0.696 -3.507,-0.776 l -2.081,-0.11 0.1,-0.853 c 0.08,-0.685 -0.073,-1.041 -0.778,-1.809 -0.709,-0.775 -1.095,-0.975 -2.032,-1.057 -0.637,-0.055 -1.623,0.053 -2.193,0.24 m 18.55,-12.623 c 2.284,1.321 2.383,5.134 0.167,6.444 -0.574,0.338 -1.498,0.526 -2.975,0.604 l -2.143,0.112 v -3.952 -3.95 l 2.037,0.117 c 1.375,0.08 2.32,0.282 2.914,0.625 m -7.998,0.166 0.068,8.095 2.591,0.077 c 5.017,0.15 8.286,-0.64 9.513,-2.3 1.375,-1.86 0.975,-4.715 -0.884,-6.306 -0.595,-0.509 -1.235,-0.926 -1.423,-0.926 -0.189,0 -0.34,-0.087 -0.338,-0.194 0.002,-0.107 1.053,-1.627 2.334,-3.378 l 2.329,-3.185 -1.859,0.076 -1.86,0.076 -2.083,3.043 -2.083,3.044 h -1.629 -1.629 v -3.108 -3.109 h -1.558 -1.558 z m -14.308,-2.258 c 0,0.076 -0.723,1.717 -1.605,3.647 l -1.605,3.509 -0.896,-1.769 c -0.493,-0.973 -1.283,-2.614 -1.755,-3.647 l -0.861,-1.878 h 3.362 c 1.848,0 3.36,0.062 3.36,0.138 m -11.397,-5.706 c 0,0.073 1.81,3.751 4.023,8.175 l 4.023,8.043 0.927,-0.079 0.926,-0.08 3.848,-7.9 c 2.116,-4.346 3.851,-7.989 3.857,-8.095 0.005,-0.107 -0.792,-0.195 -1.771,-0.195 h -1.783 l -0.92,2.137 -0.92,2.138 -4.125,0.07 -4.126,0.071 -1.007,-2.206 c -1.005,-2.195 -1.014,-2.205 -1.981,-2.208 -0.534,-10e-4 -0.971,0.057 -0.971,0.129 m -63.756,9 c -0.857,1.888 -1.636,3.511 -1.732,3.607 -0.097,0.096 -0.954,-1.448 -1.906,-3.432 l -1.73,-3.607 h 3.462 3.462 z m -5.991,-1.036 4.083,8.095 h 0.891 c 1.002,0 0.782,0.385 6.386,-11.203 l 2.412,-4.987 H 10.879 9.067 l -1.012,2.202 -1.013,2.202 H 3.013 -1.016 l -1.091,-2.202 c -1.083,-2.184 -1.101,-2.202 -2.074,-2.202 h -0.982 z m 52.529,-8.351 c -2.995,0.535 -4.456,1.549 -5.178,3.595 -0.314,0.891 -0.398,2.385 -0.398,7.068 v 5.938 l 1.489,-0.078 1.489,-0.077 0.13,-6.217 c 0.147,-7.065 0.254,-7.491 2.115,-8.44 1.47,-0.75 5.238,-0.651 6.333,0.167 1.923,1.436 2.135,2.371 2.156,9.519 l 0.016,5.133 0.842,-0.081 0.842,-0.081 v -6.087 c 0,-5.744 -0.032,-6.146 -0.559,-7.124 -0.76,-1.406 -1.822,-2.363 -3.139,-2.828 -1.412,-0.499 -4.487,-0.702 -6.138,-0.407 m -23.708,-0.109 c -3.739,0.618 -5.445,1.366 -6.845,3.003 -1.888,2.205 -2.205,5.686 -0.782,8.591 1.624,3.316 5.124,5.158 9.766,5.139 2.195,-0.009 3.179,-0.169 4.66,-0.756 0.856,-0.339 0.971,-0.489 0.971,-1.264 0,-0.483 -0.062,-0.879 -0.138,-0.879 -0.076,0 -0.746,0.313 -1.489,0.693 -1.816,0.929 -5.056,1.15 -6.847,0.466 -1.635,-0.625 -3.308,-2.222 -3.881,-3.705 -0.691,-1.791 -0.623,-4.74 0.147,-6.324 0.715,-1.472 2.245,-2.849 3.624,-3.262 1.221,-0.366 4.418,-0.395 5.33,-0.047 0.66,0.251 0.664,0.27 0.664,3.25 v 2.999 l 1.49,-0.079 1.489,-0.077 v -3.364 -3.363 l -1.603,-0.433 c -1.642,-0.443 -5.397,-0.78 -6.556,-0.588 m -47.334,-2.497 c 1.981,2.203 2.069,2.665 2.2,11.487 l 0.114,7.718 1.464,-0.076 1.463,-0.077 0.078,-6.347 c 0.048,-3.956 -0.033,-6.93 -0.215,-7.9 -0.6,-3.193 -2.481,-5.211 -5.533,-5.938 -0.737,-0.174 -0.73,-0.156 0.429,1.133" /></g></g></g></g></svg>