<?xml version="1.0" encoding="UTF-8" standalone="no"?>
<svg
   xmlns:dc="http://purl.org/dc/elements/1.1/"
   xmlns:cc="http://creativecommons.org/ns#"
   xmlns:rdf="http://www.w3.org/1999/02/22-rdf-syntax-ns#"
   xmlns:svg="http://www.w3.org/2000/svg"
   xmlns="http://www.w3.org/2000/svg"
   viewBox="0 0 1024 1024"
   height="1024"
   width="1024"
   xml:space="preserve"
   id="svg2"
   version="1.1"><metadata
     id="metadata8"><rdf:RDF><cc:Work
         rdf:about=""><dc:format>image/svg+xml</dc:format><dc:type
           rdf:resource="http://purl.org/dc/dcmitype/StillImage" /></cc:Work></rdf:RDF></metadata><defs
     id="defs6"><clipPath
       id="clipPath14"
       clipPathUnits="userSpaceOnUse"><path
         id="path12"
         d="M 0,0 H 768 V 1024 H 0 Z" /></clipPath><clipPath
       id="clipPath22"
       clipPathUnits="userSpaceOnUse"><path
         id="path20"
         d="M 0,1024 H 768 V 0 H 0 Z" /></clipPath><clipPath
       id="clipPath58"
       clipPathUnits="userSpaceOnUse"><path
         id="path56"
         d="M 272.476,436.103 H 491.519 V 405.322 H 272.476 Z" /></clipPath></defs><g
     clip-path="url(#clipPath14)"
     transform="matrix(1.3333333,0,0,-1.3333333,0,1194)"
     id="g10"><g
       id="g16"><g
         clip-path="url(#clipPath22)"
         id="g18"><g
           transform="translate(383.8276,451.6777)"
           id="g24"><path
             id="path26"
             style="fill:#1a377a;fill-opacity:1;fill-rule:nonzero;stroke:none"
             d="m 0,0 c 31.122,24.487 45.747,56.179 52.257,81.096 6.661,25.517 7.675,50.033 7.652,50.91 l -0.042,1.381 -1.03,0.843 C 33.48,157.685 0.739,170.222 -0.805,170.73 l -0.82,0.274 -0.818,-0.274 c -1.544,-0.508 -33.493,-13.045 -59.641,-36.5 l -1.033,-0.843 -0.039,-1.381 c -0.026,-0.877 0.697,-25.464 7.625,-50.91 C -49.121,57.563 -35.516,23.556 -3.248,0 l 1.623,-1.186 z" /></g><g
           transform="translate(382.2412,599.3677)"
           id="g28"><path
             id="path30"
             style="fill:#cb9f18;fill-opacity:1;fill-rule:nonzero;stroke:none"
             d="M 0,0 C -5.446,-1.772 -36.926,-12.332 -56.104,-26.627 -56.045,-36.806 -52.655,-102.805 0,-143.803 51.434,-102.805 55.965,-36.802 56.023,-26.627 36.845,-12.332 5.446,-1.772 0,0" /></g><g
           transform="translate(380.9385,618.2842)"
           id="g32"><path
             id="path34"
             style="fill:#cb9f18;fill-opacity:1;fill-rule:nonzero;stroke:none"
             d="m 0,0 0.082,-3.094 c -1.144,0.798 -2.694,1.221 -4.479,1.221 -0.837,0 -1.925,-0.209 -2.85,-0.57 l 0.163,-2.117 c 0.96,0.544 1.856,0.651 2.769,0.651 2.618,0 4.478,-1.961 4.478,-4.559 0,-2.583 -1.85,-4.56 -4.56,-4.56 -1,0 -2.169,0.178 -2.769,0.488 l -0.081,-2.117 c 0.928,-0.218 1.886,-0.407 2.85,-0.407 1.739,0 3.309,0.387 4.479,1.14 L 0,-16.693 h 1.222 1.302 v 2.687 c 1.137,-0.667 2.596,-1.058 4.235,-1.058 0.964,0 1.922,0.189 2.849,0.407 l -0.081,2.117 c -0.599,-0.31 -1.768,-0.488 -2.768,-0.488 -2.707,0 -4.316,1.98 -4.316,4.56 0,2.602 1.619,4.559 4.234,4.559 0.912,0 1.804,-0.104 2.768,-0.651 l 0.163,2.117 c -0.924,0.365 -2.012,0.57 -2.849,0.57 -1.678,0 -3.117,-0.433 -4.235,-1.14 V 0 H 1.222 Z" /></g><g
           transform="translate(382.1602,462.3477)"
           id="g36"><path
             id="path38"
             style="fill:#cb9f18;fill-opacity:1;fill-rule:nonzero;stroke:none"
             d="m 0,0 v -6.758 c 2.479,1.931 4.82,3.911 7.084,5.945 z M 0,16.123 V 0 l 12.784,4.642 c 2.658,2.687 5.15,5.426 7.491,8.224 z M 0,32.246 V 32.165 16.123 l 29.803,9.527 c 0.117,0.176 0.212,0.391 0.326,0.571 z M 0,48.288 V 32.246 l 30.779,8.632 7.085,-1.385 c 0.629,1.232 1.205,2.44 1.791,3.665 L 30.779,41.04 Z M 0,64.411 V 48.288 l 30.779,7.573 13.111,-3.095 c 0.86,2.147 1.619,4.251 2.361,6.352 L 30.779,55.942 Z M 0,80.452 V 64.411 l 30.779,6.351 17.752,-4.886 c 0.873,2.844 1.6,5.616 2.281,8.306 L 30.779,70.844 Z M 0,96.575 V 80.452 l 30.779,5.212 21.254,-6.596 c 0.769,3.423 1.371,6.664 1.872,9.69 L 30.779,85.826 Z m 0,16.123 v -0.081 -16.042 l 30.779,4.071 23.697,-8.305 c 0.596,4.104 0.912,7.726 1.139,10.667 l -24.836,-2.28 z m 0,16.041 v -16.041 l 30.779,2.85 25.081,-9.69 c 0.111,1.993 0.157,3.563 0.162,4.56 -2.863,2.133 -6.002,4.156 -9.282,6.107 l -15.961,-0.896 z m 0,8.306 v -8.306 l 19.38,1.14 C 10.006,133.723 2.433,136.257 0,137.045" /></g><g
           transform="translate(382.1602,462.3477)"
           id="g40"><path
             id="path42"
             style="fill:#e3b80f;fill-opacity:1;fill-rule:nonzero;stroke:none"
             d="M 0,0 -7.166,-0.896 C -4.906,-2.925 -2.476,-4.83 0,-6.758 Z m 0,16.123 -20.357,-3.257 c 2.328,-2.781 4.849,-5.553 7.491,-8.224 L 0,0 Z m 0,16.042 -30.21,-5.944 c 0.107,-0.163 0.218,-0.326 0.326,-0.489 L 0,16.123 Z m 0,16.123 -30.78,-7.248 -8.957,2.118 c 0.589,-1.235 1.156,-2.424 1.791,-3.665 L -30.78,40.878 0,32.246 Z m 0,16.123 -30.78,-8.469 -15.553,3.176 c 0.746,-2.111 1.58,-4.196 2.442,-6.352 L -30.78,55.861 0,48.288 Z m 0,16.041 -30.78,-9.608 -20.113,3.42 c 0.684,-2.698 1.485,-5.535 2.361,-8.388 L -30.78,70.762 0,64.411 Z m 0,16.123 -30.78,-10.749 -23.208,2.932 c 0.505,-3.032 1.186,-6.254 1.955,-9.69 L -30.78,85.664 0,80.452 Z m 0,16.123 -30.78,-11.97 -24.917,2.28 c 0.228,-2.948 0.622,-6.553 1.221,-10.667 L -30.78,100.646 0,96.575 Z m 0,16.041 -30.78,-13.11 -15.96,0.896 c -3.283,-1.954 -6.42,-3.97 -9.283,-6.107 0.006,-1 -0.033,-2.557 0.081,-4.56 l 25.162,9.69 30.78,-2.85 z m 0,8.306 c -2.43,-0.788 -10.094,-3.322 -19.462,-7.166 L 0,128.739 Z" /></g><g
           transform="translate(369.2944,466.9639)"
           id="g44"><path
             id="path46"
             style="fill:#da442d;fill-opacity:1;fill-rule:nonzero;stroke:none"
             d="m 0,0 c 1.843,-1.866 3.693,-3.739 5.7,-5.537 l 7.166,0.896 z m -17.019,21.091 c 2.86,-4.356 6.01,-8.664 9.527,-12.866 l 20.358,3.257 z m -0.896,15.145 -7.166,-1.384 c 2.271,-4.436 4.867,-8.866 7.736,-13.273 l 30.211,6.025 z m 0,14.983 -13.11,-3.094 c 1.261,-3.146 2.622,-6.407 4.153,-9.608 l 8.957,-2.118 30.781,7.247 z m 0,14.902 -17.751,-4.886 c 0.677,-2.215 1.388,-4.469 2.199,-6.758 l 15.552,-3.176 30.781,8.468 z m 0,14.901 -21.252,-6.596 c 0.352,-1.573 0.723,-3.159 1.14,-4.804 l 20.112,-3.42 30.781,9.609 z m 0,14.983 -23.695,-8.306 c 0.166,-1.143 0.286,-2.364 0.488,-3.583 l 23.207,-2.931 30.781,10.749 z m 0,14.902 -25.08,-9.69 c 0.049,-0.86 0.082,-1.827 0.163,-2.85 l 24.917,-2.281 30.781,11.971 z m 11.4,14.331 c -8.501,-3.485 -18.464,-8.065 -27.36,-13.354 l 15.96,-0.896 30.781,13.11 z" /></g><g
           transform="translate(394.9443,466.9639)"
           id="g48"><path
             id="path50"
             style="fill:#c83e29;fill-opacity:1;fill-rule:nonzero;stroke:none"
             d="M 0,0 -12.784,-4.641 -5.7,-5.455 C -3.71,-3.67 -1.83,-1.853 0,0 M 17.019,21.009 -12.784,11.482 7.491,8.225 c 3.508,4.192 6.674,8.442 9.528,12.784 m 0.976,15.227 -30.779,-8.632 30.129,-6.025 c 2.869,4.407 5.468,8.837 7.735,13.273 z m 0,14.983 -30.779,-7.573 30.779,-7.247 8.876,2.118 c 1.538,3.211 2.975,6.452 4.234,9.608 z m 0,14.902 -30.779,-6.352 30.779,-8.468 15.472,3.176 c 0.811,2.296 1.596,4.53 2.28,6.758 z m 0,14.901 -30.779,-5.211 30.779,-9.609 20.032,3.339 c 0.42,1.654 0.867,3.303 1.222,4.885 z m 0,14.983 -30.779,-4.071 30.779,-10.749 23.126,2.931 c 0.202,1.229 0.404,2.43 0.57,3.583 z m 0,14.902 -30.779,-2.85 30.779,-11.971 24.918,2.281 c 0.081,1.035 0.117,1.98 0.163,2.85 z m -11.399,14.331 -19.38,-1.14 30.779,-13.11 15.961,0.896 c -8.893,5.289 -18.859,9.866 -27.36,13.354" /></g><g
           id="g52"><g
             id="g54" /><g
             id="g66"><g
               style="opacity:0.94117701"
               id="g64"
               clip-path="url(#clipPath58)"><g
                 id="g62"
                 transform="translate(374.4243,410.29)"><path
                   id="path60"
                   style="fill:#181a21;fill-opacity:1;fill-rule:nonzero;stroke:none"
                   d="m 0,0 -101.297,-0.163 -0.652,-4.805 101.379,0.163 z M 68.888,0.081 25.65,0 c 0,0 -0.241,-3.271 -1.791,-4.805 l 44.46,0.082 z M -41.447,17.182 c 1.319,0 2.273,-0.698 2.035,-2.606 l -0.162,-1.304 h -4.56 l 0.162,1.548 c 0.18,1.437 1.235,2.358 2.525,2.362 m -22.801,0.081 c 2.271,0.003 2.02,-1.993 1.955,-2.525 l -0.814,-6.759 c -0.118,-0.97 -0.336,-2.523 -2.606,-2.523 -2.27,-0.004 -2.075,1.553 -1.954,2.523 l 0.814,6.759 c 0.065,0.532 0.339,2.525 2.605,2.525 m 124.749,0.082 c 1.32,0 2.274,-0.78 2.037,-2.688 l -0.163,-1.303 h -4.561 l 0.163,1.628 c 0.18,1.44 1.234,2.359 2.524,2.363 m -45.762,0.244 c 2.269,0 2.045,-2.049 1.954,-2.769 L 15.878,8.387 C 15.817,7.886 15.543,5.703 13.273,5.7 11.41,5.696 11.192,7.191 11.319,8.225 l 0.895,6.839 c 0.144,1.16 0.762,2.521 2.525,2.525 m 91.118,0.081 c 0.187,0.04 0.432,0 0.651,0 2.271,0 1.965,-2.049 1.873,-2.769 L 107.568,8.55 c -0.063,-0.501 -0.336,-2.766 -2.607,-2.769 -1.863,-0.003 -2.003,1.492 -1.873,2.525 l 0.815,6.84 c 0.126,1.011 0.648,2.243 1.954,2.524 m -22.312,0 c 2.271,0.003 2.046,-2.049 1.955,-2.769 L 84.686,8.469 C 84.624,7.967 84.35,5.784 82.08,5.781 c -1.863,0 -2.084,1.492 -1.955,2.525 l 0.897,6.84 c 0.143,1.156 0.762,2.521 2.523,2.524 M 2.605,21.009 -5.293,20.927 -7.655,1.791 h 7.899 z m -48.124,0.081 c -3.488,-0.007 -5.664,-0.997 -6.107,-4.56 L -52.929,6.107 c -0.485,-3.909 1.749,-4.563 4.56,-4.56 h 10.098 c 3.149,0.007 5.26,1.026 5.699,4.56 l 0.163,1.384 h -7.899 c -0.302,-1.628 -1.677,-2.032 -2.524,-2.035 -2.064,0 -2.078,1.603 -1.954,2.606 l 0.163,1.302 h 12.458 l 0.896,7.166 c 0.456,3.661 -1.573,4.564 -4.723,4.56 z m -23.044,0 c -2.238,-0.003 -5.41,-0.244 -5.944,-4.56 L -75.81,6.107 c -0.499,-4.003 1.876,-4.644 4.723,-4.641 l 9.771,0.081 c 3.254,0.004 5.44,1.153 5.863,4.56 l 1.303,10.423 c 0.446,3.596 -1.306,4.564 -4.56,4.56 z m 100.401,0.081 c -2.376,-0.26 -4.017,-1.496 -4.397,-4.56 L 27.116,14.006 C 26.53,9.279 29.379,9.182 32.49,9.12 l 6.595,-0.163 -0.081,-0.57 c -0.071,-0.564 -0.39,-2.765 -2.931,-2.769 -0.544,0 -1.065,0.095 -1.466,0.407 -0.403,0.284 -0.664,0.727 -0.651,1.385 H 26.138 L 25.976,6.27 C 25.438,1.922 28.379,1.625 31.024,1.629 h 9.69 c 3.32,0.003 5.443,1.264 5.864,4.641 l 0.325,2.524 c 0.544,4.381 -2.622,4.502 -5.293,4.56 l -6.677,0.082 0.163,1.465 c 0.296,2.378 2.404,2.362 2.606,2.362 0.305,0 0.784,-0.095 1.22,-0.408 0.437,-0.312 0.812,-0.804 0.734,-1.709 h 7.898 l 0.163,1.465 c 0.427,3.444 -1.3,4.564 -4.315,4.56 H 32.897 c -0.368,0 -0.719,0.038 -1.059,0 m -21.904,0 C 6.986,21.168 4.912,20.116 4.479,16.611 L 3.257,6.352 C 2.814,2.784 4.69,1.788 7.573,1.791 h 2.524 c 1.32,0 2.808,0.17 3.908,1.141 0.574,0.501 0.622,0.696 1.385,2.198 h 0.081 L 14.82,-0.081 H 3.013 L 2.442,-4.886 H 16.53 c 2.339,0 5.68,0.381 6.188,4.479 l 2.607,21.416 h -7.9 L 17.1,18.24 h -0.082 c -0.501,1.691 -1.557,2.935 -4.234,2.931 z m -25.161,0 c -2.303,0 -3.124,-0.533 -3.99,-1.221 -0.723,-0.658 -0.854,-0.88 -1.303,-2.036 h -0.082 l 0.326,3.013 h -7.898 L -30.536,1.71 h 7.899 l 1.547,12.621 c 0.091,0.753 0.368,2.929 2.606,2.932 2.302,0.003 2.055,-1.873 1.954,-2.687 l -1.547,-12.866 7.898,0.081 1.792,14.739 c 0.472,3.784 -1.538,4.645 -4.316,4.641 z m 115.791,0.082 C 98.189,20.999 96.627,19.76 96.249,16.692 L 94.946,6.433 C 94.502,2.866 96.379,1.87 99.261,1.873 h 2.525 c 1.319,0 2.804,0.251 3.909,1.222 0.569,0.501 0.703,0.615 1.466,2.116 L 106.59,0.081 94.702,0 l -0.571,-4.805 14.087,0.082 c 2.339,0.003 5.759,0.3 6.271,4.397 l 2.605,21.416 h -7.898 l -0.407,-2.688 c -0.501,1.691 -1.639,2.854 -4.316,2.851 h -2.768 c -0.369,0 -0.801,0.036 -1.141,0 m -21.822,0 C 75.793,21.25 73.719,20.197 73.286,16.692 L 72.064,6.433 C 71.622,2.866 73.417,1.87 76.298,1.873 h 2.606 c 1.319,0.003 2.808,0.169 3.909,1.14 0.573,0.502 0.622,0.697 1.385,2.198 h 0.081 L 83.627,0 H 71.739 L 71.25,-4.805 h 14.005 c 2.339,0 5.759,0.382 6.271,4.479 l 2.605,21.416 h -7.898 l -0.325,-2.769 h -0.082 c -0.502,1.691 -1.557,2.935 -4.235,2.932 z m -22.312,0 C 52.938,21.246 50.766,20.181 50.323,16.611 L 49.02,6.188 C 48.535,2.28 50.769,1.625 53.58,1.629 h 10.097 c 3.15,0.006 5.26,1.022 5.7,4.559 l 0.164,1.466 h -7.9 C 61.338,6.029 59.964,5.54 59.117,5.537 c -2.065,0 -2.077,1.606 -1.954,2.606 l 0.163,1.384 h 12.459 l 0.895,7.165 c 0.456,3.662 -1.573,4.564 -4.722,4.561 z m -154.552,4.478 -3.013,-24.102 h 7.899 l 1.221,10.016 h 0.082 l 4.886,-9.935 h 8.713 l -6.352,12.54 8.55,11.481 h -8.224 l -7.003,-9.608 h -0.081 l 1.139,9.608 z m 93.48,0.082 -0.407,-3.257 7.899,0.081 0.326,3.176 z" /></g></g></g></g><g
           transform="translate(382.1602,618.2593)"
           id="g68"><path
             id="path70"
             style="fill:#cb9f18;fill-opacity:1;fill-rule:nonzero;stroke:none"
             d="m 0,0 v -16.693 h 1.303 v 2.687 c 1.136,-0.667 2.595,-1.058 4.234,-1.058 0.964,0 1.922,0.189 2.85,0.407 l -0.081,2.117 c -0.6,-0.31 -1.769,-0.489 -2.769,-0.489 -2.707,0 -4.316,1.981 -4.316,4.56 0,2.603 1.619,4.56 4.234,4.56 0.912,0 1.805,-0.104 2.769,-0.651 l 0.163,2.117 c -0.925,0.365 -2.013,0.57 -2.85,0.57 -1.678,0 -3.117,-0.433 -4.234,-1.14 l 0,3.013 z" /></g><g
           transform="translate(380.9385,618.2593)"
           id="g72"><path
             id="path74"
             style="fill:#e3b80f;fill-opacity:1;fill-rule:nonzero;stroke:none"
             d="m 0,0 0.082,-3.094 c -1.144,0.798 -2.694,1.221 -4.479,1.221 -0.837,0 -1.925,-0.209 -2.85,-0.57 l 0.163,-2.117 c 0.96,0.544 1.856,0.651 2.769,0.651 2.618,0 4.478,-1.961 4.478,-4.56 0,-2.583 -1.85,-4.56 -4.56,-4.56 -1,0 -2.169,0.179 -2.769,0.489 l -0.081,-2.117 c 0.928,-0.218 1.886,-0.407 2.85,-0.407 1.739,0 3.309,0.387 4.479,1.14 L 0,-16.693 H 1.222 V 0 Z" /></g></g></g></g></svg>