<?xml version="1.0" encoding="UTF-8" standalone="no"?>
<svg
   xmlns:dc="http://purl.org/dc/elements/1.1/"
   xmlns:cc="http://creativecommons.org/ns#"
   xmlns:rdf="http://www.w3.org/1999/02/22-rdf-syntax-ns#"
   xmlns:svg="http://www.w3.org/2000/svg"
   xmlns="http://www.w3.org/2000/svg"
   viewBox="0 0 930.80243 314.36267"
   height="314.36267"
   width="930.80243"
   xml:space="preserve"
   id="svg2"
   version="1.1"><metadata
     id="metadata8"><rdf:RDF><cc:Work
         rdf:about=""><dc:format>image/svg+xml</dc:format><dc:type
           rdf:resource="http://purl.org/dc/dcmitype/StillImage" /></cc:Work></rdf:RDF></metadata><defs
     id="defs6"><clipPath
       id="clipPath14"
       clipPathUnits="userSpaceOnUse"><path
         id="path12"
         d="M 0,0 H 768 V 1024 H 0 Z" /></clipPath><clipPath
       id="clipPath22"
       clipPathUnits="userSpaceOnUse"><path
         id="path20"
         d="M 0,1024 H 768 V 0 H 0 Z" /></clipPath></defs><g
     clip-path="url(#clipPath14)"
     transform="matrix(1.3333333,0,0,-1.3333333,-47.2656,839.18133)"
     id="g10"><g
       id="g16"><g
         clip-path="url(#clipPath22)"
         id="g18"><g
           transform="translate(502.252,530.8555)"
           id="g24"><path
             id="path26"
             style="fill:#034ea1;fill-opacity:1;fill-rule:nonzero;stroke:none"
             d="m 0,0 c -12.201,0 -12.646,-9.313 -12.646,-18.479 0,-12.892 0.381,-18.284 11.336,-18.773 4.054,1.715 7.931,3.48 11.627,5.244 0.618,1.029 1.069,2.156 1.088,3.432 v 11.518 H -0.104 l -0.004,-5.196 h 2.391 v -5.244 c 0,-2.402 -1.205,-2.844 -2.435,-2.844 -1.883,0 -2.598,1.029 -2.598,2.844 0,2.107 0.004,10.489 -0.035,16.959 0,2.304 0.736,3.48 2.564,3.48 3.22,0 2.46,-2.842 2.46,-5.245 h 9.166 C 12.066,-4.02 7.303,0 0,0 m -24.189,-36.469 v 34.606 h -8.913 l 0.039,-20.832 -8.886,20.832 h -11.352 v -34.606 h 8.877 l -0.01,20.783 9.499,-20.783 h 10.746 M -90.553,-1.863 V -26.91 c 0,-6.666 4.088,-10.882 12.573,-10.882 9.401,0 12.513,5.588 12.513,10.882 v 25.047 h -9.617 v -24.851 c 0,-2.599 0.006,-3.971 -3,-3.971 -2.572,0 -2.578,1.372 -2.578,3.971 v 24.851 h -9.891 m -64.897,-19.165 -2.941,18.773 h -15.332 l -0.632,-34.458 h 8.744 l 0.441,25.488 5.465,-25.488 h 9.201 l 5.391,25.586 0.128,-25.586 h 9.097 l -0.735,34.458 h -15.283 l -3.544,-18.773 m -42.35,11.077 4.083,-26.861 h 9.533 l -5.92,34.361 h -15.161 l -5.926,-34.361 h 9.543 l 3.848,26.861 m -35.983,-28.135 c 6.074,0 13.744,1.177 13.744,10.343 0,14.361 -15.165,11.077 -15.165,16.861 0,1.617 0.093,2.745 2.681,2.745 2.681,0 2.5,-2.451 2.504,-4.951 h 9.049 c 1.034,9.117 -3.113,11.47 -11.122,11.47 -0.975,0 -1.887,-0.049 -2.72,-0.098 -2.868,-1.225 -5.637,-2.451 -8.323,-3.725 -1.015,-1.666 -1.353,-3.921 -1.353,-6.813 0,-12.598 14.543,-9.755 14.548,-15.882 -0.005,-2.156 -0.784,-2.989 -2.166,-2.989 -3.25,0 -3.143,1.96 -3.143,5.244 h -9.95 c -0.686,-6.813 1.534,-12.205 11.416,-12.205 m 132.99,10.931 c 0,14.312 -15.165,11.028 -15.165,16.812 0,1.618 0.093,2.745 2.687,2.745 2.68,0 2.503,-2.451 2.503,-4.95 h 9.049 c 1.03,9.116 -3.117,11.469 -11.122,11.469 -10.239,0 -12.396,-3.284 -12.396,-10.636 0,-12.598 14.544,-9.755 14.544,-15.882 0,-2.156 -0.786,-2.989 -2.167,-2.989 -3.245,0 -3.142,2.01 -3.142,5.244 h -9.95 c -0.682,-6.812 1.534,-12.205 11.415,-12.205 6.078,0 13.744,1.177 13.744,10.392 M 55.662,12.106 c 4.887,-26.909 -68.794,-62.838 -164.557,-80.239 -95.772,-17.4 -177.384,-9.607 -182.271,17.303 -4.887,26.959 68.794,62.888 164.566,80.239 95.763,17.401 177.375,9.656 182.262,-17.303" /></g></g></g></g></svg>