<?xml version="1.0" encoding="UTF-8" standalone="no"?>
<svg
   xmlns:dc="http://purl.org/dc/elements/1.1/"
   xmlns:cc="http://creativecommons.org/ns#"
   xmlns:rdf="http://www.w3.org/1999/02/22-rdf-syntax-ns#"
   xmlns:svg="http://www.w3.org/2000/svg"
   xmlns="http://www.w3.org/2000/svg"
   viewBox="0 0 1024 1365.3333"
   height="1365.3333"
   width="1024"
   xml:space="preserve"
   id="svg2"
   version="1.1"><metadata
     id="metadata8"><rdf:RDF><cc:Work
         rdf:about=""><dc:format>image/svg+xml</dc:format><dc:type
           rdf:resource="http://purl.org/dc/dcmitype/StillImage" /></cc:Work></rdf:RDF></metadata><defs
     id="defs6"><clipPath
       id="clipPath20"
       clipPathUnits="userSpaceOnUse"><path
         id="path18"
         d="M 0,1024 H 768 V 0 H 0 Z" /></clipPath></defs><g
     transform="matrix(1.3333333,0,0,-1.3333333,0,1365.3333)"
     id="g10"><path
       id="path12"
       style="fill:#ffffff;fill-opacity:1;fill-rule:nonzero;stroke:none"
       d="M 287,608 H 479.756 V 415.244 H 287 Z" /><g
       id="g14"><g
         clip-path="url(#clipPath20)"
         id="g16"><g
           transform="translate(306.4453,547.2671)"
           id="g22"><path
             id="path24"
             style="fill:#231f20;fill-opacity:1;fill-rule:evenodd;stroke:none"
             d="M 0,0 C 0.275,0.344 0.619,0.62 0.963,0.963 V 0 Z m -5.23,-0.963 c 0,0.482 0,0.482 0.963,0.482 v -0.482 z m 34.682,0.482 V -1.445 H 28.97 c 0,0.964 0,0.964 0.482,0.964 m 36.127,-1.446 c 0,0.482 0,0.482 0.894,0.482 v -0.482 z m -69.364,0 c 0,0.482 0,0.482 0.964,0.482 v -0.482 z m 35.163,-0.482 c -0.206,0.138 -0.344,0.345 -0.481,0.482 0,0.482 0,0.482 0.895,0.482 0,-0.964 0,-0.964 -0.414,-0.964 M -5.23,-1.445 v -0.964 c -0.482,0 -0.482,0 -0.482,0.964 z M 9.014,-2.821 c -0.137,0.137 -0.344,0.275 -0.481,0.412 0,0.482 0,0.482 0.963,0.482 v -0.894 z m -0.481,0 v 0.412 C 8.67,-2.546 8.877,-2.684 9.014,-2.821 Z m -0.482,0 c 0.137,0.137 0.344,0.275 0.482,0.412 v -0.412 z m 1.445,-0.482 v 0.482 c 0.688,-0.345 0.688,-0.345 0.482,-0.482 z M 8.533,-2.821 H 9.014 9.496 V -3.303 C 9.152,-3.166 8.877,-2.959 8.533,-2.821 M 66.955,-3.785 H 68.4 v -0.481 h -1.445 z m -72.667,0 c 0.138,0.138 0.276,0.345 0.482,0.482 -0.413,-0.757 -0.413,-0.757 -0.482,-0.482 m 15.69,0 V -4.748 H 9.496 c 0,0.963 0,0.963 0.482,0.963 M 20.85,-5.711 c 0.138,0.137 0.344,0.344 0.482,0.481 v -0.481 z m 49.889,2.408 h 0.964 v -2.89 c -0.344,0.963 -0.62,1.927 -0.964,2.89 M 21.332,-5.711 h 0.481 v -0.482 c -0.137,0.137 -0.344,0.344 -0.481,0.482 m -14.726,0 H 7.087 V -6.192 H 6.606 Z m -8.533,0.481 h 0.481 v -0.963 h -0.481 z m 3.785,-1.927 v 0.482 c 1.445,0 1.445,0 1.445,-0.482 z m 18.58,-0.481 v 0.963 h 0.412 c 0,-0.963 0,-0.963 -0.412,-0.963 M 3.303,-7.157 C 3.922,-7.432 4.542,-7.776 5.229,-8.12 H 3.303 Z m 4.748,-1.376 c -0.138,0.138 -0.275,0.345 -0.344,0.551 0.275,0.138 0.55,0.275 0.826,0.344 C 8.395,-7.914 8.188,-8.257 8.051,-8.533 m -15.69,0 h 0.482 v -0.481 h -0.482 z m 7.157,-0.963 c 0.138,0.138 0.275,0.344 0.482,0.482 0.207,-0.138 0.207,-0.138 -0.482,-0.482 m 72.185,0 -0.482,-0.482 c -0.206,0.138 -0.206,0.138 0.482,0.482 m -9.496,-0.963 v 1.926 h 0.963 c -0.344,-0.619 -0.688,-1.307 -0.963,-1.926 m -72.185,0 h -0.963 c 0.275,0.137 0.619,0.344 0.963,0.481 z m 76.451,-0.482 h 0.481 v -0.482 h -0.481 z m -2.34,0 h 0.482 v -0.482 H 64.133 Z M 7.569,-11.423 v 0.482 c 0.482,-0.069 0.964,-0.138 1.445,-0.207 -0.688,-0.481 -0.688,-0.481 -1.445,-0.275 m -8.532,-0.482 c 0,0.482 -0.964,0.482 -0.964,0.964 h 1.445 v -0.482 c -0.206,-0.138 -0.344,-0.275 -0.481,-0.482 m -8.052,0.964 h 0.895 c -0.069,-0.344 -0.137,-0.62 -0.206,-0.964 -0.207,0.344 -0.482,0.62 -0.689,0.964 m 71.222,-1.445 c 0.137,0.206 0.275,0.344 0.481,0.481 v -0.481 z m 0,0 h 0.482 v -0.482 h -0.482 z m 0.481,-0.964 v 0.482 0.482 c 0.138,0.206 0.275,0.344 0.482,0.481 h 0.482 0.481 c -0.206,-0.481 -0.343,-0.963 -0.481,-1.445 H 63.17 Z m -0.481,0.482 h 0.481 v -0.482 c -0.206,0.207 -0.344,0.345 -0.481,0.482 m 1.445,-0.963 v 0.481 c 0.138,-0.137 0.275,-0.275 0.481,-0.481 z m -0.276,0 c -0.068,0.137 -0.137,0.206 -0.206,0.275 v 0.206 h 0.482 v -0.481 z m -0.688,0 v 0.481 h 0.482 v -0.206 c -0.138,-0.069 -0.207,-0.138 -0.275,-0.275 z m 0.482,-0.207 c -0.138,0.069 -0.207,0.138 -0.275,0.207 0.068,0.137 0.137,0.206 0.275,0.275 0.069,-0.069 0.138,-0.138 0.206,-0.275 -0.068,-0.069 -0.137,-0.138 -0.206,-0.207 m 0,-0.275 v 0.275 c 0.069,0.069 0.138,0.138 0.206,0.207 h 0.276 c -0.207,-0.138 -0.344,-0.275 -0.482,-0.482 m -0.482,0.482 h 0.207 c 0.068,-0.069 0.137,-0.138 0.275,-0.207 v -0.275 c -0.207,0.207 -0.344,0.344 -0.482,0.482 m -22.364,-0.482 v 0.963 c 0.482,0 0.482,0 0.482,-0.963 z m -45.554,0 h 0.482 v -0.413 H -5.23 Z m -4.266,0.482 c 0.137,-0.275 0.275,-0.62 0.481,-0.895 h -0.963 c 0,0.895 0,0.895 0.482,0.895 m 30.828,-1.858 H 20.85 v 2.34 h 0.482 z m 10.941,1.376 h 0.482 v -2.34 h -0.482 z m -3.785,-2.34 v 0.482 0.482 c 0,0.481 0,0.481 0.964,0.481 v -1.445 z m -5.229,0.482 h 0.481 v -0.482 h -0.481 z m 16.652,-0.963 H 39.43 v 1.445 h 0.481 z m -11.423,0.481 h 0.964 c 0,-0.481 0,-0.481 -0.964,-0.481 z m 41.77,-0.963 v 0.963 c 0.481,0 0.481,0 0.481,-0.963 z m -31.31,-0.963 h 0.963 c 0,-0.482 0,-0.482 -0.963,-0.482 z m -8.533,-0.482 v 0.963 c 0.482,0 0.482,0 0.482,-0.963 z m -20.437,0 H 9.497 v 2.408 h 0.481 z m 60.28,0 c 0.757,-0.344 0.757,-0.344 0.481,-0.481 -0.137,0.206 -0.343,0.343 -0.481,0.481 M 28.97,-19.542 c 0.344,0.756 0.344,0.756 0.482,0.481 -0.206,-0.138 -0.345,-0.275 -0.482,-0.481 m -7.638,2.408 h 0.963 v -2.408 c -0.344,0.825 -0.619,1.651 -0.963,2.408 m 31.378,-2.822 c 0,0.414 0,0.414 1.446,0.414 v -0.414 z m -18.51,0 c -0.207,0.138 -0.345,0.276 -0.482,0.414 -0.963,0.274 -0.963,0.274 -1.582,0.894 0.068,0.688 0.068,1.376 0.137,1.995 h 0.482 v 2.34 h -0.482 v 0.482 c 0.482,0.206 0.963,0.344 1.445,0.481 H 34.2 c 0.137,0.207 0.275,0.345 0.482,0.482 v 0.963 h 1.858 c 0.137,-0.137 0.344,-0.275 0.481,-0.481 0.344,-0.138 0.62,-0.276 0.963,-0.482 0.138,-0.137 0.276,-0.275 0.482,-0.482 h 0.482 0.482 0.481 0.413 v -0.963 c -0.137,-0.413 -0.275,-0.895 -0.413,-1.376 H 39.43 v -1.445 h 0.481 c 0.138,-0.138 0.276,-0.276 0.413,-0.482 -0.137,-0.275 -0.275,-0.619 -0.413,-0.963 h -0.963 c -0.207,0.206 -0.344,0.344 -0.482,0.481 -0.206,-0.137 -0.344,-0.275 -0.482,-0.481 -0.137,-0.138 -0.343,-0.275 -0.481,-0.482 v -0.481 c -0.138,-0.138 -0.344,-0.276 -0.482,-0.414 H 36.54 35.645 Z m -33.719,0.414 h 0.964 v -0.414 c -0.964,0 -0.964,0 -0.964,0.414 m 63.652,-0.896 v 0.896 c 0.138,-0.276 0.276,-0.62 0.482,-0.896 z m -28.488,0.482 h 0.895 c 0,-0.482 0,-0.482 -0.895,-0.482 z m 28.488,-0.963 v 0.481 h 0.482 c -0.206,-0.137 -0.344,-0.274 -0.482,-0.481 m -1.445,0 c 0.482,0.207 0.964,0.344 1.445,0.481 v -0.481 z m -13.762,0 v 0.963 c 0.963,0 0.963,0 0.963,-0.482 -0.344,-0.137 -0.688,-0.274 -0.963,-0.481 m 13.762,0 v -0.963 c -0.481,0 -0.481,0 -0.481,0.963 z m -69.845,0 0.482,-0.482 c 0,-0.481 0,-0.481 -0.964,-0.481 0,0.963 0,0.963 0.482,0.963 m 70.327,-1.927 c 0.413,0.069 0.826,0.138 1.308,0.138 -0.138,-0.207 -0.276,-0.413 -0.345,-0.62 -0.343,0.207 -0.688,0.345 -0.963,0.482 m -2.821,-0.482 v 0.482 h 0.482 c -0.207,-0.137 -0.345,-0.275 -0.482,-0.482 m -0.482,0.964 c 0.138,-0.137 0.275,-0.275 0.482,-0.482 v -0.482 c -0.207,-0.137 -0.344,-0.275 -0.482,-0.481 -0.344,0.275 -0.688,0.481 -0.963,0.757 0.275,0.206 0.619,0.482 0.963,0.688 m 0.482,-1.858 v 0.894 c 0.137,0.207 0.275,0.345 0.482,0.482 0.137,-0.413 0.274,-0.894 0.481,-1.376 z m -0.482,0.413 c 0.138,0.206 0.275,0.344 0.482,0.481 v -0.894 c -0.207,0.138 -0.344,0.275 -0.482,0.413 m -38.054,0.481 v -0.894 c -0.481,0 -0.481,0 -0.481,0.894 z m 42.32,0 h 0.482 v -1.376 h -0.482 z m -67.712,-1.376 c -0.068,0.069 -0.137,0.138 -0.206,0.207 0.275,0.137 0.619,0.206 0.964,0.275 0,-0.482 0,-0.482 -0.758,-0.482 m -0.206,-0.275 -0.275,0.275 c 0.069,0.069 0.138,0.138 0.275,0.207 0.069,-0.069 0.138,-0.138 0.206,-0.207 -0.068,-0.068 -0.137,-0.137 -0.206,-0.275 m 55.532,0.275 h 2.409 v -0.482 h -2.409 z m -56.014,0 h 0.207 l 0.275,-0.275 v -0.207 c -0.206,0.139 -0.344,0.345 -0.482,0.482 m 46.999,-1.445 h -0.481 v 2.34 h 0.481 z m -14.725,0.963 h 0.481 v -1.445 h -0.481 z m 0,-1.444 h -0.482 v 1.445 h 0.482 z m 45.623,0 h 0.481 v -0.482 H 73.63 Z m -23.741,0 v -0.964 c -0.482,0 -0.482,0 -0.482,0.964 z m -27.594,0 c -0.137,-0.276 -0.344,-0.62 -0.482,-0.964 -1.375,0.482 -1.375,0.482 -1.375,0.964 z m -25.598,-0.964 v 0.964 h 0.482 c 0,-0.964 0,-0.964 -0.482,-0.964 m 78.309,0.482 h 0.481 c -0.206,-0.275 -0.481,-0.619 -0.687,-0.964 0.068,0.345 0.137,0.689 0.206,0.964 m -67.919,0 h 0.482 v -0.963 H 7.087 Z m 65.098,-1.376 c 0.137,0.275 0.344,0.619 0.481,0.894 v -0.482 c -0.137,-0.137 -0.344,-0.275 -0.481,-0.412 m -0.482,0 h 0.482 v -0.482 c -0.138,0.137 -0.345,0.344 -0.482,0.482 m -1.445,1.376 h 0.481 v -1.858 h -0.481 z m -55.532,-1.376 h 0.413 v -0.482 h -0.413 z m -0.482,-0.482 c 0.138,0.137 0.276,0.344 0.482,0.482 V -28.97 Z M 3.785,-28.488 H 4.266 V -28.97 H 3.785 Z m 68.675,-0.964 c -0.138,0.069 -0.207,0.138 -0.275,0.206 v 0.276 0.482 c 0.137,0.137 0.344,0.275 0.481,0.412 0.138,-0.137 0.344,-0.275 0.482,-0.412 v -0.482 c -0.138,-0.138 -0.344,-0.344 -0.482,-0.482 z m -43.49,6.124 c 0.276,-2.064 0.619,-4.059 0.964,-6.124 H 28.97 Z m -14.244,-6.124 v 0.482 h 0.413 c -0.138,-0.138 -0.276,-0.344 -0.413,-0.482 m -5.712,0.482 h 0.482 v -0.481 H 9.014 Z m 63.171,-0.757 c -0.069,0.138 -0.138,0.206 -0.207,0.275 0.069,0.069 0.138,0.138 0.207,0.206 0.068,-0.068 0.137,-0.137 0.275,-0.206 -0.138,-0.069 -0.207,-0.137 -0.275,-0.275 m 0,-0.207 v 0.207 c 0.068,0.138 0.137,0.206 0.275,0.275 h 0.206 c -0.137,-0.137 -0.344,-0.344 -0.481,-0.482 m -1.927,0.482 h 0.963 c 0,0.964 0,0.964 0.482,0.964 0.137,-0.138 0.344,-0.345 0.482,-0.482 v -0.276 c -0.069,-0.068 -0.138,-0.137 -0.207,-0.206 -0.275,-0.137 -0.482,-0.344 -0.757,-0.482 -0.344,0.138 -0.619,0.345 -0.963,0.482 m -42.733,-0.482 h 0.482 v -0.481 h -0.482 z m 43.971,-0.963 c -0.137,0.069 -0.206,0.138 -0.275,0.207 v 0.275 0.481 c 0.275,0.138 0.482,0.345 0.757,0.482 0.069,-0.069 0.138,-0.137 0.207,-0.275 v -0.207 c -0.138,-0.344 -0.345,-0.619 -0.482,-0.963 z m -0.757,0 0.482,0.482 v -0.275 l -0.206,-0.207 z m 0.482,-0.275 c -0.069,0.137 -0.138,0.206 -0.206,0.275 l 0.206,0.207 c 0.069,-0.069 0.138,-0.138 0.275,-0.207 -0.137,-0.069 -0.206,-0.138 -0.275,-0.275 m 0,-0.206 v 0.206 c 0.069,0.137 0.138,0.206 0.275,0.275 h 0.207 c -0.138,-0.138 -0.344,-0.344 -0.482,-0.481 m -0.482,0.481 h 0.276 c 0.068,-0.069 0.137,-0.138 0.206,-0.275 v -0.206 c -0.138,0.137 -0.344,0.343 -0.482,0.481 m -48.444,-0.481 h -0.481 v 1.445 h 0.481 z m -19.956,1.444 h 0.482 v -1.445 H 2.339 Z m 68.4,-0.963 c 0.138,-0.138 0.344,-0.344 0.482,-0.481 0,-0.482 0,-0.482 -0.963,-0.482 0,0.963 0,0.963 0.481,0.963 m -20.437,-1.445 v 0.482 c 0.964,0 0.964,0 0.964,-0.482 z m -38.948,0.482 h 0.963 v -0.482 h -0.963 z m 54.225,-0.482 h 0.413 v -0.413 h -0.413 z m -31.861,0.964 h -0.963 v -1.377 h -0.482 v 1.858 h 1.445 z M 22.295,-31.86 v -0.895 c -0.482,0 -0.482,0 -0.482,0.895 z m 11.423,-0.482 c 0.137,-0.137 0.275,-0.275 0.482,-0.413 0,-0.482 0,-0.482 -0.964,-0.482 0,0.895 0,0.895 0.482,0.895 m -14.726,0 h 0.481 v -1.376 h -0.481 z m -9.978,-0.895 h 0.482 v -0.481 H 9.014 Z m -4.748,0 v 0.482 c 0.276,-0.275 0.62,-0.482 0.963,-0.757 -0.343,0.138 -0.687,0.207 -0.963,0.275 M 23.259,-34.2 c 0.137,0.137 0.275,0.344 0.481,0.482 V -34.2 Z m 0.481,0.482 c -0.206,-0.138 -0.344,-0.345 -0.481,-0.482 -0.482,0 -0.482,0 -0.482,0.963 0.963,0 0.963,0 0.963,-0.481 M -1.927,-34.2 H 0 v -0.482 h -1.927 z m 40.875,0 v -0.964 h -0.482 c 0,0.964 0,0.964 0.482,0.964 m 32.273,-1.445 v 0.963 c 0.344,-0.068 0.619,-0.137 0.964,-0.275 -0.345,-0.207 -0.62,-0.481 -0.964,-0.688 m -19.474,0 v 0.481 c 0.138,-0.137 0.344,-0.343 0.482,-0.481 z m -1.858,0 v 0.963 c 0.895,0 0.895,0 0.895,-0.482 -0.344,-0.137 -0.619,-0.343 -0.895,-0.481 m 14.726,-0.481 v 0.962 h 0.482 c 0,-0.962 0,-0.962 -0.482,-0.962 m -69.363,0 h 1.927 v -0.482 h -1.927 z m 64.615,0 h 0.482 V -37.09 H 59.867 Z M 44.178,-37.09 v 0.964 h 0.412 c 0,-0.964 0,-0.964 -0.412,-0.964 m 8.532,0.481 c -0.137,0.139 -0.344,0.345 -0.481,0.483 v 0.481 c -0.138,0.138 -0.344,0.344 -0.482,0.481 v 0.482 c -0.138,0.138 -0.344,0.345 -0.481,0.482 h -0.482 c 0.137,0.619 0.344,1.239 0.482,1.858 0,0.482 0,0.482 -0.964,0.482 v -0.482 c -0.137,-0.275 -0.275,-0.619 -0.413,-0.895 -0.206,0.482 -0.344,0.964 -0.482,1.377 v 0.482 c 0.138,0.343 0.276,0.619 0.482,0.963 v 0.481 0.482 0.482 0.482 0.894 0.964 c 0.138,0.206 0.276,0.343 0.413,0.481 0.344,0.138 0.619,0.344 0.964,0.482 0.137,0.137 0.343,0.344 0.481,0.481 h 2.409 0.481 c 0.482,-0.137 0.964,-0.344 1.377,-0.481 0,-0.482 0.963,-0.482 0.963,-0.963 v -0.482 -0.482 c 0.137,-0.137 0.275,-0.275 0.481,-0.482 v -0.412 c 0.138,-0.62 0.276,-1.308 0.482,-1.927 v -0.963 c -0.206,-0.138 -0.344,-0.345 -0.482,-0.482 -0.344,-0.344 -0.344,-0.344 0,-1.858 -0.206,-0.138 -0.344,-0.345 -0.481,-0.482 v -0.964 c -0.138,-0.137 -0.344,-0.343 -0.482,-0.481 -0.344,-0.138 -0.619,-0.344 -0.894,-0.481 -0.207,-0.344 -0.344,-0.62 -0.482,-0.964 v -0.482 h -0.963 c -0.964,0.276 -0.964,0.276 -1.446,0.963 m 1.446,-0.963 h 0.963 c 0,-0.413 0,-0.413 -0.963,-0.413 z m -2.409,-0.413 c -0.138,0.138 -0.344,0.276 -0.481,0.413 -0.138,0.206 -0.345,0.344 -0.482,0.482 -0.138,0.207 -0.344,0.344 -0.482,0.481 -0.137,0.139 -0.275,0.345 -0.413,0.483 v 0.481 c 0.276,0.138 0.551,0.344 0.895,0.481 0.137,-0.137 0.344,-0.343 0.482,-0.481 h 0.481 c 0.138,-0.825 0.344,-1.583 0.482,-2.34 z m -7.569,0.895 c 0,-0.482 -0.964,-0.482 -0.964,-0.895 -0.482,0 -0.482,0 -0.482,0.895 z m -14.726,-0.482 c 0.137,-0.275 0.275,-0.551 0.482,-0.894 h -1.446 c 0,0.481 0,0.481 0.964,0.894 m -8.602,-0.894 v 0.481 c 0.138,-0.138 0.344,-0.344 0.482,-0.481 z m -0.412,0.481 h 0.413 v -0.481 h -0.413 z m -0.482,-0.481 v 0.894 c 0.137,-0.137 0.275,-0.275 0.482,-0.413 v -0.481 z M 0,-37.572 v -0.894 h -0.482 c 0,0.894 0,0.894 0.482,0.894 m -2.409,-0.413 v -0.481 c -0.894,0 -0.894,0 -0.894,0.481 z m 63.721,-0.963 v 0.963 c 0.413,0 0.413,0 0.413,-0.963 z m -40.874,0 v 0.482 h 0.412 c -0.138,-0.138 -0.275,-0.344 -0.412,-0.482 m -0.482,0.482 h 0.482 v -0.481 h -0.482 z m 54.568,0.481 h 0.481 v -1.445 h -0.481 z m -76.451,-0.963 h 0.963 V -39.43 H -1.927 Z M 73.63,-39.43 h 0.481 v -0.481 H 73.63 Z m -51.335,0 c 0.688,-0.344 0.688,-0.344 0.482,-0.482 -0.138,0.138 -0.344,0.345 -0.482,0.482 m 1.927,2.34 h 0.481 v -3.303 h -0.481 z m 39.43,-3.303 h 0.481 v -0.964 h -0.481 z m -33.237,-0.482 v -0.963 h -0.481 c 0,0.963 0,0.963 0.481,0.963 m 33.718,-1.445 h 0.482 v -0.481 h -0.482 z m -30.415,0 v -0.964 c -0.482,0 -0.482,0 -0.482,0.964 z m -21.401,0 v -0.964 c -0.482,0 -0.482,0 -0.482,0.964 z m 50.853,0 h 0.482 v -1.376 H 63.17 Z m -32.548,-1.376 c -0.069,0.069 -0.138,0.138 -0.207,0.206 v 0.689 c 0.138,-0.276 0.275,-0.62 0.482,-0.895 z m -17.341,0.895 h 0.963 v -0.895 h -0.963 z m -2.408,-0.483 h 0.481 v -0.412 h -0.481 z m 19.542,-0.687 c -0.138,0.138 -0.207,0.206 -0.275,0.275 0.068,0.069 0.137,0.138 0.275,0.206 0.069,-0.068 0.138,-0.137 0.207,-0.206 -0.069,-0.069 -0.138,-0.137 -0.207,-0.275 m -0.481,0.275 h 0.206 c 0.068,-0.069 0.137,-0.137 0.275,-0.275 v -0.207 c -0.207,0.137 -0.344,0.345 -0.481,0.482 m -16.653,-0.482 v 0.482 h 0.963 c -0.344,-0.137 -0.619,-0.345 -0.963,-0.482 m 52.022,-0.482 c -0.069,0.07 -0.137,0.138 -0.206,0.207 0.275,0.138 0.619,0.206 0.894,0.275 0,-0.482 0,-0.482 -0.688,-0.482 m -34.888,0.482 v 0.207 c 0.069,0.138 0.138,0.206 0.207,0.275 h 0.275 c -0.413,-0.757 -0.413,-0.757 -0.482,-0.482 m -37.09,0 h 0.963 v -0.481 h -0.963 z m 71.772,-0.757 c -0.138,0.138 -0.206,0.207 -0.275,0.275 0.069,0.07 0.137,0.138 0.275,0.207 0.069,-0.069 0.137,-0.137 0.206,-0.207 -0.069,-0.068 -0.137,-0.137 -0.206,-0.275 m -53.743,-0.206 c 0,0.481 0,0.481 0.963,0.481 v -0.481 z m 52.779,-0.482 v 0.482 c 0.207,0.138 0.482,0.344 0.689,0.481 0.069,-0.068 0.137,-0.137 0.275,-0.275 v -0.688 z m -53.26,0 c 0.137,0.206 0.343,0.344 0.481,0.482 h 0.963 v -0.482 z m -15.14,0.482 h 0.482 v -0.481 h -0.482 z m 66.474,-1.445 c -0.207,0.343 -0.345,0.688 -0.482,0.963 0.137,0.206 0.275,0.344 0.482,0.482 h 0.963 c -0.207,-0.482 -0.344,-0.964 -0.482,-1.445 z m -1.376,0 v 0.481 h 0.481 c 0.138,0.207 0.275,0.345 0.413,0.482 0.137,-0.275 0.275,-0.62 0.482,-0.963 h -0.482 z m -21.883,0 h -0.481 v 2.408 h 0.481 z m -24.704,0.481 h 0.481 v -0.481 h -0.481 z m -22.777,0 h 0.413 v -0.481 c -0.137,0.207 -0.344,0.343 -0.413,0.481 m 83.057,-0.481 h 0.481 v -0.481 h -0.481 z m -11.836,-0.482 v 0.482 c 0.138,0.481 0.275,0.963 0.482,1.445 0.138,0.344 0.275,0.619 0.482,0.963 0.138,-0.344 0.275,-0.619 0.481,-0.963 v -0.482 -1.445 z m -0.481,0.482 h 0.482 v -0.481 h -0.482 z m -1.376,0 h 0.894 c 0,-0.482 0,-0.482 -0.894,-0.482 z m -62.276,0.963 h 0.482 v -1.445 h -0.482 z m -3.785,-1.445 h 0.963 v -0.481 H -5.23 Z m 68.4,-0.481 h 0.482 V -48.03 H 63.17 Z m -0.963,0.481 h 0.481 v -0.963 c -0.206,0.344 -0.344,0.688 -0.481,0.963 m -23.259,0 v -0.963 h -0.482 c 0,0.963 0,0.963 0.482,0.963 m -47.963,0.963 h 0.482 c 0.069,-0.138 0.276,-0.274 0.413,-0.481 -0.137,-0.482 -0.344,-0.963 -0.413,-1.445 -0.206,0.137 -0.413,0.275 -0.619,0.412 0,0.483 0.069,1.033 0.137,1.514 m 84.502,-2.133 c -0.069,0.069 -0.137,0.138 -0.206,0.207 0.069,0.137 0.137,0.206 0.206,0.275 0.07,-0.069 0.138,-0.138 0.276,-0.275 -0.138,-0.069 -0.206,-0.138 -0.276,-0.207 m -0.963,-0.275 c 0.276,0.207 0.482,0.344 0.757,0.482 0.069,-0.069 0.137,-0.138 0.206,-0.207 v -0.275 z m -5.161,0.964 c 0.276,-0.276 0.619,-0.62 0.895,-0.964 h -0.895 z m -56.564,-1.446 v 0.964 h 0.482 c 0,-0.964 0,-0.964 -0.482,-0.964 m 50.371,0 h 1.445 v -0.413 H 63.17 Z m -24.222,-0.894 v 0.894 c 0.482,0 0.482,0 0.482,-0.894 z m -4.266,0 H 34.2 v 1.376 h 0.482 z m 41.287,0 h 0.482 v -0.482 c -0.138,0.206 -0.344,0.344 -0.482,0.482 m -32.755,0.481 v -0.963 c -0.482,0 -0.482,0 -0.482,0.963 z m -31.86,-1.445 v 0.964 c 0.344,-0.069 0.619,-0.138 0.963,-0.207 -0.344,-0.275 -0.619,-0.482 -0.963,-0.757 m -2.821,0.482 c 0,0.482 0,0.482 0.963,0.482 v -0.964 c -0.344,0.207 -0.619,0.345 -0.963,0.482 m 35.163,-0.482 h 0.894 v -0.963 c -0.275,0.344 -0.55,0.689 -0.894,0.963 m 19.474,-1.926 c 0.069,0.344 0.138,0.688 0.206,0.963 0.276,-0.275 0.482,-0.619 0.757,-0.963 z m -69.363,0.963 v -0.963 c -0.482,0 -0.482,0 -0.482,0.963 z m 27.043,-1.445 v 0.964 c 0.963,0 0.963,0 0.963,-0.482 -0.344,-0.138 -0.619,-0.275 -0.963,-0.482 m -16.102,0 c -0.206,0.207 -0.344,0.344 -0.482,0.482 v 0.963 c 0.276,-0.138 0.62,-0.275 0.963,-0.481 -0.206,-0.276 -0.343,-0.62 -0.481,-0.964 m -0.482,0 v 0.482 c 0.138,-0.138 0.276,-0.275 0.482,-0.482 z m 40.806,-0.482 v 0.964 c 0.345,-0.207 0.62,-0.482 0.964,-0.688 -0.344,-0.07 -0.619,-0.138 -0.964,-0.276 m 18.58,-0.413 c 0.138,0.138 0.275,0.276 0.481,0.413 v -0.206 c -0.137,-0.069 -0.206,-0.138 -0.275,-0.207 z m -28.007,0.895 v -0.895 c -0.482,0 -0.482,0 -0.482,0.895 z m -41.357,-0.895 v 0.895 c 0.138,-0.276 0.276,-0.619 0.482,-0.895 z m 69.845,-0.275 c -0.137,0.138 -0.206,0.207 -0.275,0.275 0.069,0.069 0.138,0.138 0.275,0.207 0.069,-0.069 0.138,-0.138 0.207,-0.207 -0.069,-0.068 -0.138,-0.137 -0.207,-0.275 m -70.326,-0.206 c 0.137,0.137 0.275,0.344 0.481,0.481 h 0.482 c -0.206,-0.137 -0.344,-0.344 -0.482,-0.481 z m 70.326,-0.482 v 0.688 c 0.069,0.138 0.138,0.207 0.207,0.275 h 0.275 c -0.206,-0.344 -0.344,-0.619 -0.482,-0.963 m -39.911,0.482 c 0.137,0.275 0.276,0.619 0.482,0.894 h 0.482 v -1.376 c -0.964,0 -0.964,0 -0.964,0.482 m -27.043,0 h 0.895 v -0.481 h -0.895 z m 32.273,-0.964 h -0.481 v 11.905 h 0.481 z m 39.911,-0.482 v 0.964 c 0.482,0 0.482,0 0.482,-0.964 z m -33.718,0 h -0.482 v 1.445 h 0.482 z m -39.43,0.964 c 0.413,-0.275 0.895,-0.62 1.376,-0.964 h -1.376 z m 67.437,-1.926 c -0.207,0.206 -0.344,0.343 -0.482,0.481 v 0.481 c 0.138,0.689 0.275,1.308 0.482,1.927 h 0.206 c 0.069,-0.068 0.138,-0.137 0.275,-0.275 v -0.688 -1.926 z m -59.867,0.962 h 0.481 v -0.963 H 3.785 Z m -4.267,-1.169 c -0.138,0.069 -0.206,0.137 -0.275,0.207 0.069,0.136 0.137,0.206 0.275,0.275 0.069,-0.069 0.138,-0.139 0.207,-0.275 -0.069,-0.07 -0.138,-0.138 -0.207,-0.207 m -1.445,0.688 c 0.069,0.275 0.482,-0.481 1.17,-0.481 0.069,-0.07 0.137,-0.138 0.275,-0.207 v -0.276 h -1.445 z m 12.8,-0.964 c 0.137,0.345 0.343,0.689 0.481,0.964 0.138,-0.619 0.344,-1.239 0.481,-1.858 h -0.481 c -0.138,0.275 -0.344,0.619 -0.481,0.894 m 54.224,-1.376 h 0.895 v -0.481 h -0.895 z m -53.743,-0.481 v 0.963 h 0.481 c 0.138,-0.138 0.345,-0.344 0.482,-0.482 v -0.481 z m 28.076,8.051 h 0.481 v -8.532 H 39.43 Z m -28.076,-8.051 h 0.963 c 0,-0.482 0,-0.482 -0.963,-0.482 z m 52.779,-0.482 h 0.963 v -0.482 H 64.133 Z M 9.014,-60.349 v 0.482 c 0.138,-0.137 0.276,-0.344 0.482,-0.482 z m -4.541,-0.482 c -0.069,0.07 -0.138,0.138 -0.207,0.206 0,0.758 0,0.758 0.482,0.758 -0.138,-0.344 -0.206,-0.62 -0.275,-0.964 m -0.207,-0.275 c -0.137,0.138 -0.206,0.206 -0.275,0.275 0.069,0.07 0.138,0.138 0.275,0.206 0.069,-0.068 0.138,-0.136 0.207,-0.206 -0.069,-0.069 -0.138,-0.137 -0.207,-0.275 m 4.748,0.757 h 0.482 0.482 c 0.137,-0.138 0.275,-0.344 0.413,-0.482 -0.276,-0.069 -0.62,-0.137 -0.895,-0.275 -0.206,0.275 -0.344,0.481 -0.482,0.757 m -5.229,-0.482 h 0.206 c 0.069,-0.069 0.138,-0.137 0.275,-0.275 v -0.206 c -0.206,0.138 -0.344,0.344 -0.481,0.481 m 66.06,-0.481 v -0.964 h -0.482 c 0,0.964 0,0.964 0.482,0.964 m -23.809,-0.964 c 0.275,0.345 0.482,0.689 0.756,0.964 0.069,-0.275 0.138,-0.619 0.207,-0.964 z m -37.985,0 v 0.964 c 0.482,0 0.482,0 0.482,-0.964 z m 20.437,-0.412 c -0.206,0.137 -0.343,0.274 -0.481,0.412 v 0.964 c -0.207,0.138 -0.344,0.344 -0.482,0.481 v 0.482 c -0.206,0.138 -0.344,0.345 -0.482,0.482 -0.137,0.137 -0.344,0.344 -0.413,0.482 v 0.481 c -0.206,0.138 -0.344,0.344 -0.481,0.482 v 0.413 c 0.137,0.343 0.275,0.688 0.481,0.964 v 0.481 c -0.206,0.344 -0.344,0.689 -0.481,0.963 -0.207,0.207 -0.344,0.345 -0.482,0.482 v 2.34 0.482 0.481 c -0.207,0.206 -0.344,0.344 -0.481,0.482 -0.207,0.343 -0.345,0.688 -0.482,0.963 -0.206,0.963 -0.345,1.927 -0.482,2.822 v 0.481 c -0.206,0.206 -0.344,0.344 -0.482,0.482 v 3.785 0.481 0.482 c 0.138,0.344 0.276,0.62 0.482,0.963 v 0.482 h 0.482 v 3.303 h -0.482 c -0.206,0.344 -0.344,0.62 -0.482,0.964 0,0.481 -0.963,0.481 -0.963,0.962 l -0.482,0.482 v 1.927 0.895 0.482 1.444 0.482 c 0.138,0.138 0.344,0.344 0.482,0.482 v 0.482 c -0.138,0.137 -0.344,0.275 -0.482,0.412 -0.137,0.207 -0.344,0.345 -0.482,0.482 0.138,0.344 0.345,0.688 0.482,0.964 0.138,0.343 0.344,0.619 0.482,0.963 v 0.481 c -0.138,0.139 -0.344,0.345 -0.482,0.482 -0.137,0.138 -0.344,0.344 -0.482,0.482 v 0.894 1.446 c 0.138,0.206 0.345,0.343 0.482,0.481 v 1.859 2.408 h -0.963 v 1.445 2.339 c -0.138,0.482 -0.344,0.964 -0.482,1.445 0.138,0.207 0.344,0.344 0.482,0.482 v 0.964 c -0.138,0.344 -0.344,0.619 -0.482,0.963 v 0.482 c -0.138,0.137 -0.275,0.344 -0.412,0.481 v 0.895 c 0.412,0 0.412,0 0.412,0.963 h -0.412 v 0.482 0.482 h 0.412 0.482 v 0.481 c 0.137,0.138 0.344,0.344 0.481,0.482 v 0.482 0.481 c -0.137,0.138 -0.344,0.345 -0.481,0.482 v 0.482 0.412 c 0.137,0.482 0.344,0.964 0.481,1.446 0.138,0.137 0.345,0.344 0.482,0.482 V 0 l 0.482,0.482 v 0.481 c 0.619,0.138 1.239,0.345 1.927,0.482 h 0.482 C 25.323,1.308 25.46,1.101 25.667,0.963 25.805,0.826 25.942,0.62 26.149,0.482 h 0.894 0.482 c 0.138,0.138 0.275,0.344 0.482,0.481 0.138,0.138 0.275,0.345 0.481,0.482 0.138,0.138 0.276,0.275 0.482,0.413 0.137,0.344 0.276,0.688 0.482,0.963 h 0.482 C 30.071,2.546 30.208,2.202 30.415,1.858 V 1.445 C 30.208,1.308 30.071,1.101 29.934,0.963 V 0.482 C 29.727,0.344 29.589,0.138 29.452,0 v -0.481 c -0.482,0 -0.482,0 -0.482,-0.964 h 0.482 v -0.482 c 0.137,-0.137 0.275,-0.344 0.482,-0.482 0.274,0.138 0.619,0.345 0.963,0.482 0.137,-0.137 0.275,-0.344 0.481,-0.482 C 31.172,-2.546 31.034,-2.684 30.897,-2.821 30.69,-2.959 30.553,-3.166 30.415,-3.303 30.208,-3.44 30.071,-3.647 29.934,-3.785 V -4.266 C 29.727,-4.404 29.589,-4.61 29.452,-4.748 V -5.23 -5.711 -6.193 -6.675 C 29.246,-7.5 29.107,-8.257 28.97,-9.014 V -9.496 C 28.764,-9.634 28.626,-9.84 28.488,-9.978 v -0.963 l 0.482,-0.482 v -0.482 c 0.137,-0.137 0.276,-0.275 0.482,-0.481 v -0.482 h 0.482 c 0.137,0.206 0.274,0.344 0.481,0.482 h 0.482 v -0.482 -0.482 c -0.207,-0.137 -0.344,-0.275 -0.482,-0.481 v -0.895 -0.482 -0.481 -2.409 -0.963 h -0.963 c -0.138,0.275 -0.138,0.275 -0.482,-0.481 v -0.414 -0.482 c -0.206,-0.756 -0.344,-1.582 -0.482,-2.408 l 0.482,-0.482 v -6.124 h 0.964 v -0.482 c 0.137,-0.137 0.274,-0.344 0.481,-0.481 v -0.482 c -0.207,-0.619 -0.344,-1.238 -0.481,-1.858 -0.207,-0.344 -0.345,-0.619 -0.482,-0.963 -0.206,-0.138 -0.345,-0.345 -0.482,-0.482 v -0.482 c 0.137,-0.963 0.276,-1.927 0.482,-2.89 -0.964,-0.413 -0.964,-0.413 -0.964,-0.894 h 1.446 v -0.482 c 0.137,-0.137 0.274,-0.344 0.481,-0.482 0.138,-0.137 0.275,-0.344 0.482,-0.482 -0.207,-0.137 -0.344,-0.343 -0.482,-0.481 v -0.482 c -0.481,0 -0.481,0 -0.481,-0.963 h 0.481 v -0.963 -0.689 c -0.138,-0.068 -0.207,-0.137 -0.275,-0.206 H 29.934 29.452 28.97 v -11.905 h 0.482 v -0.482 c 0.137,-0.137 0.275,-0.275 0.482,-0.481 v -2.34 c 0.137,-0.344 0.274,-0.619 0.481,-0.963 v -0.482 c -0.207,-0.138 -0.344,-0.344 -0.481,-0.482 v -0.481 c -0.207,-0.275 -0.345,-0.619 -0.482,-0.964 v -0.412 z m 36.609,0 h 0.482 v -0.482 h -0.482 z m -14.795,-0.964 v 0.964 c 0.482,0 0.482,0 0.482,-0.964 z m -11.354,1.376 h 0.482 v -1.376 h -0.482 z m -10.46,-0.412 h 0.964 c -0.138,-0.345 -0.206,-0.62 -0.275,-0.964 -0.207,0.344 -0.482,0.619 -0.689,0.964 M 6.606,-63.17 h 0.481 v -0.481 H 6.606 Z m 37.984,-1.446 c 0.345,-0.136 0.62,-0.343 0.964,-0.481 0,-0.482 0,-0.482 -0.964,-0.482 z m -7.087,-0.963 c -0.138,1.583 -0.344,3.165 -0.482,4.748 -0.344,1.24 -0.619,2.546 -0.963,3.786 -0.138,0.206 -0.275,0.343 -0.413,0.481 v 0.481 1.446 0.481 0.895 0.964 c -0.344,0.206 -0.688,0.343 -0.963,0.481 v 1.927 1.376 1.927 c -0.207,0.343 -0.345,0.688 -0.482,0.963 -0.207,0.826 -0.345,1.582 -0.482,2.339 v 0.964 0.963 c -0.206,0.207 -0.344,0.345 -0.482,0.482 -0.206,0.138 -0.343,0.344 -0.481,0.482 v 0.481 c -0.207,0.138 -0.344,0.345 -0.482,0.482 v 0.482 c 0.138,0.138 0.275,0.344 0.482,0.482 h 0.481 c 0.138,0.894 0.276,1.857 0.482,2.821 v 0.963 c -0.206,0.345 -0.344,0.619 -0.482,0.964 -0.206,0.344 -0.343,0.619 -0.481,0.963 v 1.377 h 0.963 v -0.964 c -0.482,0 -0.482,0 -0.482,-0.895 0.964,0 0.964,0 0.964,0.482 v 3.303 c -0.207,0.138 -0.345,0.344 -0.482,0.482 -0.206,0.137 -0.344,0.344 -0.482,0.482 v 0.412 c -0.206,0.207 -0.343,0.345 -0.481,0.482 v 0.482 l -0.482,0.482 v 0.481 0.482 0.481 c 0.138,0.139 0.275,0.345 0.482,0.482 0.138,0.138 0.275,0.344 0.481,0.482 0.138,0.138 0.276,0.275 0.482,0.413 v 0.963 c 0.137,0.207 0.275,0.345 0.482,0.482 h 0.482 c 0.137,0.206 0.275,0.344 0.481,0.482 0.275,0.206 0.62,0.343 0.895,0.481 h 0.482 c 0.137,-0.138 0.344,-0.275 0.481,-0.481 h 0.482 0.963 c 0.138,-0.138 0.275,-0.276 0.482,-0.482 v -0.482 c 0.137,-0.275 0.275,-0.619 0.482,-0.963 v -0.895 -0.482 -0.481 c 0.137,-0.138 0.275,-0.344 0.481,-0.482 -0.206,-0.275 -0.344,-0.619 -0.481,-0.963 v -0.482 c 0.137,-0.619 0.275,-1.239 0.481,-1.858 h 0.413 v -0.482 c -0.137,-0.137 -0.275,-0.344 -0.413,-0.481 -0.206,-0.62 -0.344,-1.308 -0.481,-1.927 -0.207,-0.275 -0.345,-0.619 -0.482,-0.895 V -34.2 c -0.482,0 -0.482,0 -0.482,-0.964 h 0.482 c 0.137,-0.619 0.275,-1.238 0.482,-1.926 v -0.482 -0.413 c -0.207,-0.344 -0.345,-0.619 -0.482,-0.963 v -5.23 h -0.482 v -2.408 h 0.482 v -0.482 c -0.482,0 -0.482,0 -0.482,-0.963 h 0.482 v -0.964 -0.894 c 0.137,-0.482 0.275,-0.964 0.482,-1.445 v -8.533 -0.964 -0.481 c -0.207,-0.138 -0.345,-0.275 -0.482,-0.482 v -0.482 -1.376 -0.481 -0.483 -0.963 c -0.207,-0.137 -0.344,-0.343 -0.482,-0.481 -0.344,0.138 -0.619,0.344 -0.963,0.481 M 7.087,-66.06 c -0.137,0.138 -0.344,0.344 -0.481,0.481 -0.138,0.138 -0.344,0.344 -0.481,0.482 -0.139,0.138 -0.276,0.345 -0.414,0.481 -0.206,0.138 -0.344,0.345 -0.482,0.483 v 0.963 c -0.206,0.137 -0.343,0.344 -0.481,0.482 -0.206,0.274 -0.344,0.619 -0.482,0.894 v 0.482 0.206 c 0.069,0.138 0.138,0.206 0.207,0.275 0.069,0.344 0.137,0.62 0.275,0.964 -0.482,0 -0.482,0 -0.482,-0.758 -0.137,-0.068 -0.206,-0.136 -0.275,-0.206 H 3.785 c -0.207,0.344 -0.345,0.62 -0.482,0.964 -0.138,0.619 -0.344,1.239 -0.482,1.858 H 2.339 1.858 c -0.62,0.206 -1.239,0.343 -1.858,0.481 h -0.482 v 0.276 c 0.069,0.069 0.138,0.137 0.207,0.207 -0.069,0.136 -0.138,0.206 -0.207,0.275 -0.138,-0.069 -0.206,-0.139 -0.275,-0.275 -0.688,0 -1.101,0.756 -1.17,0.481 -0.206,0.206 -0.344,0.344 -0.482,0.481 -0.481,0.344 -0.963,0.689 -1.376,0.964 v 0.482 c -0.206,0.137 -0.344,0.344 -0.482,0.481 H -4.748 -5.23 c -0.206,0.276 -0.344,0.619 -0.482,0.895 -0.206,0.207 -0.344,0.344 -0.481,0.482 v 0.963 0.482 c -0.345,0.207 -0.62,0.343 -0.964,0.481 v 0.964 c -0.137,0.206 -0.343,0.344 -0.482,0.481 -0.137,0.138 -0.343,0.276 -0.481,0.413 v 0.482 c -0.137,0.207 -0.344,0.344 -0.413,0.482 0.069,0.482 0.276,0.963 0.413,1.445 v 0.481 h -0.413 -0.482 v 0.964 h 0.482 c 0.413,0 0.413,0 0.413,0.963 -0.344,0.069 -0.619,0.137 -0.895,0.207 0.138,0.275 0.276,0.481 0.482,0.687 v 0.483 0.481 c 0.069,0.344 0.276,0.689 0.413,0.963 0.138,0.207 0.344,0.345 0.481,0.482 0.139,0.344 0.345,0.62 0.482,0.963 0.138,0.138 0.276,0.345 0.482,0.482 0.137,0.482 0.275,0.964 0.482,1.445 v 0.413 c 0.137,0.206 0.275,0.344 0.481,0.482 -0.206,0.481 -0.344,0.964 -0.481,1.445 0.137,0.138 0.275,0.344 0.481,0.481 h 0.482 c 0.138,-0.137 0.275,-0.343 0.482,-0.481 v -0.481 -0.483 h 1.927 v 0.483 0.962 0.482 H -2.409 -1.927 0 v -2.89 c -0.482,0 -0.482,0 -0.482,-0.894 H 0 c 0.138,-0.138 0.275,-0.344 0.481,-0.482 V -39.43 C 0.275,-39.567 0.138,-39.774 0,-39.912 c -0.207,-0.137 -0.344,-0.343 -0.482,-0.481 v -0.482 -0.482 c -0.206,-0.137 -0.344,-0.274 -0.481,-0.481 v -0.482 c -0.207,-0.138 -0.345,-0.275 -0.482,-0.481 h -0.482 c -0.206,-0.138 -0.344,-0.276 -0.482,-0.483 -0.137,-0.137 -0.275,-0.274 -0.412,-0.412 0.137,-0.137 0.275,-0.345 0.412,-0.482 0.138,-0.137 0.276,-0.344 0.482,-0.482 0.138,-0.343 0.275,-0.619 0.482,-0.963 v -1.445 c -0.138,-0.206 -0.207,-0.481 -0.276,-0.688 0.276,-0.275 0.482,-0.482 0.758,-0.757 0.275,-0.138 0.619,-0.276 0.963,-0.482 0.138,-0.137 0.275,-0.275 0.481,-0.413 0.138,-0.137 0.276,-0.275 0.482,-0.481 h 0.482 0.413 0.481 v -0.482 c 0.138,-0.137 0.345,-0.275 0.482,-0.482 v -0.481 c 0.138,-0.138 0.344,-0.276 0.482,-0.482 h 0.963 v -0.963 -0.482 h 0.482 c 0.138,0.344 0.275,0.688 0.481,0.964 h 1.377 c 0.137,0.343 0.344,0.687 0.481,0.963 h 0.482 c 0.138,0.343 0.344,0.688 0.482,0.963 h 0.482 c 0.344,-0.137 0.619,-0.275 0.963,-0.482 h 1.858 c 0.344,0.275 0.619,0.482 0.963,0.757 -0.344,0.069 -0.619,0.138 -0.963,0.207 v 0.481 c 0.138,0.138 0.344,0.276 0.481,0.413 h 0.964 c 0.482,0 0.482,0 0.482,0.964 h -0.482 v 0.482 c -0.138,0.206 -0.344,0.343 -0.482,0.481 -0.137,0.206 -0.344,0.344 -0.482,0.482 h -0.481 -0.481 -0.482 c 0.137,0.343 0.343,0.688 0.482,0.963 h 1.444 0.964 v 0.482 0.963 h -0.964 v 0.894 0.964 0.482 c 0.138,0.207 0.344,0.344 0.482,0.481 v 0.482 c -0.138,0.344 -0.344,0.62 -0.482,0.963 -0.137,0.138 -0.344,0.345 -0.482,0.482 -0.137,0.138 -0.343,0.345 -0.481,0.482 -0.138,0.138 -0.344,0.344 -0.481,0.482 -0.62,0.137 -1.239,0.343 -1.859,0.481 -0.137,0.138 -0.344,0.276 -0.481,0.413 -0.345,0.206 -0.62,0.344 -0.964,0.482 -0.344,0.207 -0.619,0.344 -0.963,0.481 v 0.483 c 0.963,0.137 1.927,0.343 2.89,0.481 -0.206,0.138 -0.344,0.344 -0.482,0.481 -0.344,0.138 -0.619,0.345 -0.963,0.482 v 0.482 c -0.138,0.137 -0.344,0.344 -0.482,0.482 H 6.606 6.125 v 1.376 c -0.139,0.207 -0.276,0.344 -0.414,0.482 H 4.748 c -0.206,-0.138 -0.344,-0.275 -0.482,-0.482 v -0.413 -0.482 c -0.481,0 -0.481,0 -0.481,0.895 H 2.821 c -0.137,0.207 -0.344,0.344 -0.482,0.482 v 0.482 h 0.482 v 1.444 H 2.339 1.858 c -0.482,0.138 -0.963,0.345 -1.377,0.482 -0.343,0.344 -0.688,0.619 -0.963,0.964 -0.206,0.137 -0.344,0.275 -0.481,0.412 -0.689,-0.137 -1.308,-0.275 -1.858,-0.412 -0.207,0.137 -0.345,0.275 -0.482,0.412 v 0.482 c 0.482,0 0.482,0 0.482,0.964 h -0.482 c -0.482,0.206 -0.964,0.343 -1.445,0.481 v 0.482 c 0.275,0.137 0.619,0.344 0.963,0.481 v 0.207 c 0.069,0.138 0.138,0.207 0.206,0.275 0.758,0 0.758,0 0.758,0.482 -0.345,-0.069 -0.689,-0.138 -0.964,-0.275 -0.137,-0.069 -0.206,-0.138 -0.275,-0.207 h -0.207 c -0.206,0.138 -0.343,0.344 -0.481,0.482 H -5.23 c -0.344,0.138 -0.688,0.275 -0.963,0.413 h -0.482 v 0.481 c 0.275,0.207 0.619,0.345 0.963,0.482 0.138,0.207 0.276,0.345 0.482,0.482 v 0.963 c -0.206,0.207 -0.344,0.344 -0.482,0.482 -0.344,-0.138 -0.688,-0.275 -0.963,-0.482 l -0.482,0.482 v 2.34 c -0.137,0.481 -0.343,0.963 -0.482,1.445 -0.137,0.206 -0.343,0.343 -0.481,0.481 -0.137,0.207 -0.344,0.344 -0.413,0.482 -0.206,0.482 -0.344,0.963 -0.482,1.445 -0.206,0.275 -0.344,0.62 -0.481,0.895 0.137,0.206 0.275,0.344 0.481,0.481 v 0.482 c -0.206,0.206 -0.344,0.344 -0.481,0.482 -0.482,0 -0.482,0.963 -0.964,0.963 -0.206,0.207 -0.344,0.344 -0.481,0.482 v 0.482 h 0.963 c 0.138,-0.138 0.275,-0.345 0.482,-0.482 h 0.481 v 2.408 c 0.138,0.138 0.276,0.276 0.482,0.413 v 0.963 c 0.069,0.344 0.276,0.62 0.413,0.964 0.138,0.137 0.344,0.344 0.481,0.482 0.139,0.481 0.345,0.963 0.482,1.445 0.138,0.138 0.276,0.344 0.482,0.481 h 0.963 c 0.069,-0.275 0.069,-0.275 0.482,0.482 v 0.894 0.964 0.482 h 0.963 v -0.482 -0.482 h 0.482 0.964 c 0.137,-0.137 0.275,-0.344 0.412,-0.482 0.138,0.138 0.276,0.345 0.482,0.482 0.275,0.482 0.619,0.964 0.964,1.446 l 0,0.481 H 0 0.963 V 0.963 H 1.445 C 1.583,0.62 1.72,0.344 1.858,0 v -0.481 -0.482 h 0.963 0.482 v -0.482 h 0.482 c 0.275,0.138 0.619,0.344 0.963,0.482 h 0.481 v -0.482 c 0.276,-0.138 0.62,-0.344 0.896,-0.482 h 0.481 c 0.137,-0.344 0.344,-0.619 0.481,-0.894 0.138,-0.138 0.345,-0.345 0.482,-0.482 0.138,0.137 0.344,0.344 0.482,0.482 h 0.482 c 0.344,-0.138 0.619,-0.345 0.963,-0.482 h 0.482 v -0.482 c -0.482,0 -0.482,0 -0.482,-0.963 h 0.482 c 0.137,-0.138 0.275,-0.344 0.413,-0.482 0.137,-0.137 0.343,-0.344 0.482,-0.481 0.137,-0.345 0.343,-0.62 0.481,-0.964 0.138,-0.138 0.344,-0.275 0.481,-0.482 0.138,-0.137 0.345,-0.275 0.482,-0.481 0.138,0.206 0.344,0.344 0.482,0.481 0.138,0.207 0.344,0.344 0.482,0.482 h 1.445 c 0.137,0.138 0.275,0.344 0.413,0.482 h 0.481 v -0.482 c -0.688,-2.477 -0.826,-3.372 0,-5.711 0.138,-0.138 0.344,-0.276 0.482,-0.482 v -3.303 c 0.138,-0.138 0.344,-0.275 0.482,-0.482 -0.138,-0.275 -0.344,-0.619 -0.482,-0.963 -0.138,-1.238 -0.344,-2.546 -0.482,-3.785 v -0.963 c -0.138,-0.137 -0.344,-0.275 -0.481,-0.482 v -0.482 -0.894 c -0.138,-0.138 -0.276,-0.344 -0.413,-0.482 v -0.963 c 0.137,-0.138 0.275,-0.344 0.413,-0.482 -0.138,-0.275 -0.276,-0.619 -0.413,-0.963 -0.206,0.206 -0.344,0.344 -0.482,0.482 v 0.481 c -0.138,0.138 -0.344,0.344 -0.481,0.482 -0.138,0.137 -0.345,0.344 -0.482,0.481 -0.138,0.139 -0.344,0.345 -0.482,0.482 v 0.482 c -0.138,0.138 -0.344,0.275 -0.482,0.413 -0.344,0.206 -0.619,0.344 -0.963,0.481 -0.138,0.207 -0.344,0.345 -0.481,0.482 -0.482,0.207 -0.964,0.345 -1.377,0.482 v 0.963 c 0.138,0.344 0.275,0.689 0.482,0.963 h 0.413 c -0.138,0.482 -0.276,0.964 -0.413,1.377 v 2.408 0.482 0.482 c -0.207,0.206 -0.344,0.344 -0.482,0.481 v 1.377 c -0.206,0.344 -0.344,0.688 -0.482,0.963 -0.137,0.206 -0.344,0.344 -0.481,0.482 -0.62,0.206 -1.308,0.344 -1.927,0.481 -0.138,0.344 -0.344,0.62 -0.481,0.964 -0.139,0.137 -0.276,0.344 -0.414,0.482 v 0.481 c 0.414,0.138 0.895,0.344 1.376,0.482 v 0.482 C 6.95,-8.877 6.743,-8.67 6.606,-8.533 6.468,-8.395 6.262,-8.257 6.125,-8.12 H 5.229 c -0.687,0.344 -1.307,0.688 -1.926,0.963 0,0.482 0,0.482 -1.445,0.482 V -7.157 H 1.445 C 1.238,-6.95 1.101,-6.813 0.963,-6.675 0.619,-6.813 0.275,-6.95 0,-7.157 0.138,-7.294 0.275,-7.432 0.481,-7.638 0.275,-8.12 0.138,-8.533 0,-9.014 -0.207,-9.152 -0.344,-9.358 -0.482,-9.496 h -0.481 c -0.207,-0.344 -0.345,-0.619 -0.482,-0.963 -0.207,-0.138 -0.344,-0.345 -0.482,-0.482 0,-0.482 0.964,-0.482 0.964,-0.964 -0.207,-0.275 -0.345,-0.619 -0.482,-0.963 -0.207,-0.275 -0.344,-0.619 -0.482,-0.963 v -0.482 -0.413 c 0.138,-0.137 0.275,-0.344 0.482,-0.482 v -0.481 c 0.137,-0.138 0.275,-0.275 0.482,-0.482 v -0.482 c 0.137,-0.275 0.275,-0.619 0.481,-0.963 v -0.482 c 0.138,-0.137 0.275,-0.275 0.482,-0.481 0.138,-0.275 0.275,-0.62 0.481,-0.963 0,-0.414 0,-0.414 0.964,-0.414 v 0.414 0.481 c 0.138,0.344 0.275,0.688 0.413,0.963 h 0.481 0.482 c 0.138,-0.137 0.344,-0.275 0.482,-0.481 v -0.482 c -0.138,-0.413 -0.344,-0.895 -0.482,-1.377 v -0.963 c 0.138,-0.138 0.344,-0.275 0.482,-0.481 v -0.964 c 0.137,-0.137 0.275,-0.275 0.482,-0.482 0.137,-0.137 0.275,-0.275 0.481,-0.481 h 0.482 c 0.275,-0.138 0.619,-0.275 0.963,-0.413 h 0.414 c 0.137,-0.138 0.343,-0.344 0.481,-0.482 0.137,-0.137 0.344,-0.343 0.481,-0.482 0.138,-0.137 0.345,-0.344 0.482,-0.481 h 0.482 l 0.482,-0.482 c 0.137,-0.138 0.344,-0.275 0.481,-0.481 l 0.482,-0.482 c 0.413,-0.275 0.895,-0.619 1.377,-0.964 0.343,-0.137 0.619,-0.275 0.962,-0.412 0.62,-0.138 1.308,-0.345 1.928,-0.482 h 0.481 0.482 v -0.482 -0.963 c 0.137,-0.138 0.275,-0.344 0.413,-0.482 0.137,-0.138 0.343,-0.344 0.481,-0.481 0.138,-0.138 0.344,-0.345 0.482,-0.482 0.138,-0.275 0.344,-0.619 0.482,-0.895 0.137,-0.138 0.344,-0.344 0.481,-0.482 0.482,0.276 0.964,0.62 1.446,0.895 h 0.481 v -1.376 -0.482 c -0.206,-0.137 -0.344,-0.344 -0.481,-0.482 v -0.482 -0.481 c 0.619,-0.138 1.238,-0.344 1.927,-0.481 -0.345,-0.138 -0.689,-0.344 -0.964,-0.483 v -0.481 c 0.137,-0.138 0.275,-0.276 0.482,-0.482 v -0.894 -0.482 h 0.482 c 0.137,0.138 0.274,0.344 0.412,0.482 h 0.482 v -0.482 c 0.137,-0.137 0.344,-0.344 0.481,-0.482 h 0.482 c 0.138,-0.137 0.344,-0.344 0.482,-0.482 v -0.481 -0.482 -0.482 c -0.138,-0.137 -0.344,-0.274 -0.482,-0.481 h -0.482 -0.481 c -0.138,-0.138 -0.344,-0.276 -0.482,-0.482 0.138,-0.138 0.344,-0.275 0.482,-0.481 v -1.377 -0.482 -1.445 c 0.137,-0.138 0.344,-0.274 0.481,-0.481 v -0.482 c 0.138,-0.138 0.345,-0.275 0.482,-0.481 v -2.822 c 0.138,-0.137 0.344,-0.275 0.482,-0.482 0.138,-0.138 0.275,-0.274 0.482,-0.481 0.137,-0.138 0.275,-0.276 0.481,-0.482 0.138,-0.275 0.276,-0.619 0.482,-0.963 0.137,-0.275 0.276,-0.62 0.482,-0.964 -0.206,-0.275 -0.345,-0.619 -0.482,-0.894 -1.445,0.688 -1.445,0.688 -1.927,1.376 -0.137,0.207 -0.344,0.344 -0.482,0.482 0,0.482 0,0.482 -0.963,0.482 v -0.964 h -0.412 c -0.482,-0.138 -0.964,-0.276 -1.446,-0.482 h -0.481 c -0.344,-0.137 -0.62,-0.275 -0.964,-0.413 -0.137,-0.137 -0.344,-0.344 -0.482,-0.481 -0.825,-0.138 -1.583,-0.345 -2.339,-0.482 -0.206,-0.137 -0.344,-0.275 -0.482,-0.482 -0.481,-0.138 -0.963,-0.274 -1.445,-0.482 -0.482,-0.137 -0.964,-0.275 -1.445,-0.481 -0.138,-0.275 -0.344,-0.619 -0.481,-0.964 -0.276,-0.138 -0.62,-0.275 -0.895,-0.481 v -0.413 C 9.634,-58.56 9.29,-58.766 9.014,-58.904 v -0.963 -0.482 H 8.051 v -0.963 -0.964 -0.894 -0.482 -1.445 -0.482 -0.963 c -0.138,-0.137 -0.344,-0.275 -0.482,-0.482 -0.137,0.345 -0.344,0.62 -0.482,0.964 m 42.32,-7.088 c -0.481,0.344 -0.963,0.619 -1.445,0.895 -0.137,0.688 -0.344,1.307 -0.482,1.926 -0.137,0.138 -0.343,0.344 -0.481,0.482 v 0.481 0.483 1.444 0.413 0.482 0.482 1.927 c -0.138,0.137 -0.344,0.343 -0.481,0.481 -0.62,-0.344 -0.62,-0.344 -0.964,-1.445 -0.344,0.138 -0.619,0.345 -0.964,0.481 v 2.822 c 0.138,0.344 0.345,0.62 0.482,0.963 v 0.482 c 0.138,0.138 0.345,0.345 0.482,0.482 v 0.482 c 0.138,0.343 0.344,0.619 0.482,0.963 v 0.894 c -0.138,0.345 -0.344,0.689 -0.482,0.964 -0.137,0.344 -0.344,0.689 -0.482,0.963 v 1.858 c 0.345,0.138 0.62,0.206 0.964,0.276 -0.344,0.206 -0.619,0.481 -0.964,0.688 v 0.482 c -0.137,0.206 -0.344,0.343 -0.482,0.481 v 0.963 h -0.894 c -0.137,0.207 -0.344,0.345 -0.482,0.482 v 0.963 c 0.138,0.138 0.345,0.276 0.482,0.413 v 0.964 c -0.137,0.206 -0.344,0.344 -0.482,0.482 -0.137,0.206 -0.343,0.343 -0.482,0.481 v 3.784 c 0.139,0.345 0.345,0.689 0.482,0.964 0.138,0.206 0.345,0.344 0.482,0.482 v 0.963 0.482 c -0.137,0.344 -0.344,0.619 -0.482,0.963 v 0.482 c 0.138,0.138 0.345,0.344 0.482,0.482 -0.137,0.137 -0.344,0.343 -0.482,0.481 0,0.413 0.964,0.413 0.964,0.895 0.412,0 0.412,0 0.412,0.964 h -0.412 c -0.619,0.962 -1.307,1.926 -1.927,2.889 l -0.482,0.482 v 0.895 c 0.344,0.137 0.62,0.344 0.963,0.482 v 0.481 1.927 c 0.139,0.137 0.345,0.344 0.482,0.482 v 0.894 c -0.137,0.207 -0.343,0.344 -0.482,0.482 v 0.963 2.34 0.481 c 0.139,0.345 0.345,0.689 0.482,0.964 v 0.482 c 0.138,0.206 0.345,0.343 0.482,0.481 0.137,0.689 0.344,1.239 0.482,1.859 0.137,0.206 0.275,0.343 0.412,0.481 v 0.482 c 0.138,0.344 0.345,0.688 0.482,0.963 0.964,-0.206 0.964,-0.206 1.446,-0.963 0.137,-0.413 0.343,-0.895 0.481,-1.377 v -0.963 h 1.927 c 0.275,0.207 0.619,0.344 0.963,0.481 h 1.858 c 0.138,0.138 0.344,0.345 0.482,0.482 h 0.481 1.446 0.481 0.482 c 0.138,-0.137 0.275,-0.344 0.482,-0.482 h 0.413 c 0.481,-0.137 0.963,-0.274 1.444,-0.481 h 0.964 c 0,-0.963 0,-0.963 0.482,-0.963 0.137,-0.138 0.275,-0.276 0.481,-0.482 h 0.482 c -0.344,-0.206 -0.688,-0.482 -0.963,-0.688 0.275,-0.276 0.619,-0.482 0.963,-0.757 0.138,-0.138 0.275,-0.275 0.482,-0.413 h 0.963 c 0.138,-0.344 0.275,-0.619 0.413,-0.964 0.137,-0.963 0.275,-1.926 0.482,-2.89 v -0.412 -0.482 c 0.137,-0.826 0.275,-1.583 0.481,-2.408 0.138,-0.482 0.275,-0.895 0.482,-1.377 v -0.482 c -0.207,-0.344 -0.344,-0.619 -0.482,-0.963 v -0.482 c -0.206,-0.963 -0.344,-1.927 -0.481,-2.89 -0.345,-0.137 -0.62,-0.275 -0.895,-0.413 v -0.963 h -0.481 -0.482 c -0.344,-0.137 -0.688,-0.344 -0.964,-0.482 -0.206,-0.137 -0.344,-0.344 -0.481,-0.482 -0.207,-0.137 -0.344,-0.343 -0.482,-0.481 -0.482,-0.344 -0.964,-0.619 -1.445,-0.964 -0.482,-0.137 -0.963,-0.274 -1.376,-0.481 h -0.482 c -0.206,-0.138 -0.344,-0.276 -0.482,-0.482 h -0.963 c -0.688,-0.138 -1.308,-0.275 -1.927,-0.481 -0.138,-0.138 -0.344,-0.276 -0.481,-0.483 -0.138,-0.137 -0.345,-0.274 -0.482,-0.412 v -0.964 c 0.137,-0.137 0.344,-0.343 0.482,-0.481 v -0.482 -0.482 c -0.138,-0.274 -0.345,-0.619 -0.482,-0.963 0.137,-0.619 0.344,-1.238 0.482,-1.927 0.137,-0.137 0.343,-0.275 0.481,-0.413 v -2.889 c -0.138,-0.276 -0.344,-0.62 -0.481,-0.964 -0.138,-0.413 -0.345,-0.895 -0.482,-1.376 0.137,-0.138 0.344,-0.345 0.482,-0.482 v -0.482 c 0.137,-0.274 0.343,-0.619 0.481,-0.963 v -0.481 c -0.344,-0.138 -0.619,-0.276 -0.963,-0.483 v -0.481 -0.413 -0.963 c -0.138,-0.345 -0.344,-0.619 -0.482,-0.964 -0.137,-0.344 -0.275,-0.619 -0.413,-0.963 v -0.482 -0.482 c 0.138,-0.138 0.276,-0.275 0.413,-0.412 v -0.964 -0.481 c 0.138,-0.345 0.344,-0.619 0.482,-0.964 v -0.963 c 0.137,-0.138 0.344,-0.344 0.482,-0.482 0.481,0 0.481,0 0.481,-0.895 h -0.963 c -0.138,-0.619 -0.344,-1.307 -0.482,-1.927 0.138,-0.344 0.344,-0.619 0.482,-0.963 h 0.482 v -0.481 h -0.964 v -0.483 -0.481 -0.481 -0.482 c -0.137,-0.069 -0.275,-0.275 -0.413,-0.413 z m -1.445,0.895 c 0.482,-0.276 0.964,-0.551 1.445,-0.895 h -1.445 z m 28.971,22.777 c -0.138,-0.138 -0.345,-0.275 -0.482,-0.413 h 0.482 v -0.276 c -0.069,-0.068 -0.138,-0.137 -0.207,-0.206 0.069,-0.069 0.138,-0.137 0.207,-0.207 v -0.275 c -0.138,0.207 -0.345,0.345 -0.482,0.482 h 0.275 c 0.069,-0.069 0.138,-0.137 0.207,-0.207 v 0.413 c -0.069,-0.068 -0.138,-0.137 -0.207,-0.206 h -0.275 v 0.482 h 0.482 z m 0,24.772 c -0.138,-0.137 -0.345,-0.343 -0.482,-0.482 h 0.275 c 0.069,0.069 0.138,0.139 0.207,0.207 v -0.413 c -0.069,0.069 -0.138,0.138 -0.207,0.206 h -0.275 c -0.138,-0.137 -0.344,-0.344 -0.482,-0.481 h 0.482 0.482 v -0.482 c -0.138,0.207 -0.345,0.344 -0.482,0.482 h -0.482 c -0.137,-0.344 -0.344,-0.62 -0.482,-0.963 0.276,-0.069 0.482,-0.138 0.757,-0.207 0.207,0.207 0.482,0.413 0.689,0.688 v -1.927 h -0.482 v -0.412 h 0.482 v -3.854 c -0.138,-0.137 -0.345,-0.275 -0.482,-0.413 l -0.482,-0.482 c -0.344,-0.481 -0.619,-0.963 -0.963,-1.445 -0.138,-0.137 -0.344,-0.344 -0.482,-0.482 v -0.481 c -0.137,-0.138 -0.275,-0.344 -0.413,-0.481 v -0.483 -0.481 -0.482 l 0.413,-0.413 v -1.445 c 0.482,-0.482 0.963,-0.963 1.445,-1.445 0.138,-0.137 0.344,-0.275 0.482,-0.482 0.137,-0.137 0.344,-0.274 0.482,-0.412 v -7.707 c -0.138,-0.138 -0.345,-0.275 -0.482,-0.413 h -0.482 v 0.481 c -0.137,0.276 -0.344,0.619 -0.482,0.895 v 0.275 c 0.07,0.069 0.138,0.138 0.276,0.207 -0.138,0.137 -0.206,0.206 -0.276,0.275 -0.069,-0.069 -0.137,-0.138 -0.206,-0.275 -0.275,-0.138 -0.481,-0.275 -0.757,-0.482 -0.137,0.207 -0.275,0.344 -0.413,0.482 -0.206,0.344 -0.344,0.688 -0.481,0.963 v 0.482 c -0.138,0.343 -0.344,0.688 -0.482,0.963 h -0.482 c -0.137,0.206 -0.344,0.344 -0.481,0.482 -0.138,0.138 -0.345,0.344 -0.482,0.481 -0.138,0.345 -0.344,0.619 -0.482,0.964 -0.138,0.138 -0.344,0.275 -0.482,0.412 -0.137,0.207 -0.343,0.345 -0.481,0.483 h -0.413 c -0.206,-1.24 -0.344,-2.478 -0.482,-3.785 v -0.963 -0.964 h 0.895 v -0.482 -0.413 -0.481 -0.482 -0.482 c -0.138,-0.138 -0.276,-0.274 -0.413,-0.481 v -0.482 c -0.206,-0.619 -0.344,-1.238 -0.482,-1.927 v -1.376 -0.964 -0.481 c 0.138,-0.619 0.276,-1.239 0.482,-1.858 0.137,-0.826 0.275,-1.582 0.413,-2.409 -0.138,-0.137 -0.276,-0.343 -0.413,-0.481 -0.482,0 -0.482,0 -0.482,-0.964 h 0.482 v -0.412 c -0.206,-0.345 -0.344,-0.62 -0.482,-0.964 -0.206,-0.138 -0.344,-0.344 -0.482,-0.481 -0.206,-0.483 -0.343,-0.964 -0.481,-1.446 -0.207,-0.137 -0.344,-0.343 -0.482,-0.481 v -0.482 c -0.206,-0.482 -0.344,-0.895 -0.481,-1.376 V -68.4 h -1.446 v 0.963 c -0.137,0.138 -0.275,0.345 -0.412,0.413 -0.207,0.689 -0.345,1.308 -0.482,1.927 v 0.964 c -0.206,0.137 -0.344,0.343 -0.482,0.481 -0.206,0.482 -0.344,0.964 -0.482,1.376 -0.206,0.345 -0.343,0.689 -0.481,0.964 -0.207,0.138 -0.344,0.344 -0.482,0.481 v 0.482 c 0.275,0.482 0.62,0.964 0.963,1.445 0.138,0.138 0.276,0.344 0.482,0.482 v 0.413 c 0.138,0.206 0.276,0.343 0.482,0.481 -0.206,1.17 -0.344,2.272 -0.482,3.372 H 64.34 c -0.069,0.069 -0.138,0.138 -0.207,0.207 v 0.206 0.964 c -0.275,0.344 -0.481,0.688 -0.757,0.963 -0.068,-0.275 -0.137,-0.619 -0.206,-0.963 -0.344,-0.275 -0.688,-0.62 -0.963,-0.964 h -0.482 v 0.482 c 0.275,0.688 0.619,1.307 0.963,1.927 v 0.481 c 0.138,0.482 0.275,0.964 0.482,1.445 h 1.445 v 0.413 H 63.17 c -0.207,0.344 -0.344,0.689 -0.482,0.964 v 0.963 h 1.445 v 1.445 h 0.964 v 0.688 c 0.069,0.138 0.137,0.207 0.206,0.275 0.688,0 0.688,0 0.688,0.482 -0.275,-0.069 -0.619,-0.137 -0.894,-0.275 -0.138,-0.069 -0.206,-0.137 -0.275,-0.207 -0.207,-0.137 -0.482,-0.343 -0.689,-0.481 -0.206,0.344 -0.343,0.619 -0.481,0.963 -0.207,-0.344 -0.344,-0.619 -0.482,-0.963 h -0.963 v 0.481 c 0.137,0.345 0.275,0.619 0.481,0.964 h 0.482 0.482 v 1.376 H 63.17 v 0.482 c -0.207,0.207 -0.344,0.344 -0.482,0.481 v 0.482 c 0.138,0.138 0.275,0.344 0.482,0.482 0.138,0.344 0.275,0.619 0.482,0.963 0.138,0.138 0.275,0.345 0.481,0.482 v 0.963 c 0.138,0.276 0.276,0.619 0.482,0.895 v 0.964 c 0.482,0 0.482,0 0.482,0.962 h -0.482 v 0.482 c 0.138,0.138 0.276,0.345 0.482,0.482 -0.757,2.822 -0.757,2.822 -0.964,6.124 -0.206,0.207 -0.343,0.345 -0.481,0.482 -0.207,0.207 -0.344,0.344 -0.482,0.482 -0.138,0.206 -0.275,0.413 -0.413,0.619 0.482,0.138 0.895,0.276 1.376,0.344 v 1.445 h 0.482 v 1.376 h -0.482 c 0.069,0.207 0.207,0.413 0.345,0.62 -0.482,0 -0.895,-0.069 -1.308,-0.138 v 0.482 c -0.207,0.206 -0.344,0.344 -0.482,0.482 v 0.963 h 1.445 c 0.138,0.207 0.276,0.344 0.482,0.481 -0.206,0.276 -0.344,0.62 -0.482,0.896 0.138,0.206 0.276,0.343 0.482,0.481 0.138,0.207 0.276,0.344 0.482,0.482 v 0.963 c -0.206,0.206 -0.344,0.344 -0.482,0.482 v 0.481 c -0.206,0.964 -0.344,1.927 -0.482,2.822 -0.206,0.206 -0.343,0.344 -0.481,0.481 0.138,0.482 0.275,0.964 0.481,1.445 H 63.652 63.17 c -0.207,-0.137 -0.344,-0.275 -0.482,-0.481 v 0.481 c -0.206,0.482 -0.344,0.964 -0.481,1.446 0.275,0.619 0.619,1.307 0.963,1.926 0.138,0.757 0.275,1.514 0.482,2.34 0.138,0.137 0.275,0.344 0.481,0.482 0.138,0.344 0.276,0.619 0.482,0.963 0.138,0.138 0.276,0.344 0.482,0.482 v 0.481 0.482 0.894 c 0.137,0.138 0.275,0.345 0.482,0.482 h 0.894 1.927 c 0.138,-0.137 0.275,-0.344 0.481,-0.482 0.276,-0.137 0.62,-0.275 0.964,-0.412 0.137,-0.138 0.275,-0.345 0.413,-0.482 h 0.481 c 0.344,-0.963 0.62,-1.927 0.964,-2.89 0.137,-1.101 0.344,-2.202 0.482,-3.303 H 71.703 C 71.015,-9.84 71.015,-9.84 71.221,-9.978 v -1.927 c 0.138,-0.481 0.344,-0.963 0.482,-1.445 0.068,-0.481 0.137,-0.963 0.275,-1.376 -0.275,-0.137 -0.482,-0.344 -0.757,-0.482 h -0.482 c -0.137,-0.137 -0.343,-0.275 -0.481,-0.481 v -0.482 -0.482 -0.963 -1.445 c 0.138,-0.138 0.344,-0.275 0.481,-0.481 -0.137,-0.758 -0.343,-1.515 -0.481,-2.34 -0.138,-0.138 -0.276,-0.276 -0.413,-0.482 0.137,-1.583 0.275,-3.166 0.413,-4.748 v -1.858 -0.482 c 0.344,-0.137 0.619,-0.344 0.963,-0.482 v -0.481 l -0.482,-0.482 c -0.481,0 -0.481,0 -0.481,-0.963 0.963,0 0.963,0 0.963,0.482 0.138,0.137 0.344,0.343 0.482,0.481 0.137,0.344 0.344,0.619 0.482,0.963 0.137,0.138 0.344,0.345 0.481,0.482 0.138,0.138 0.344,0.344 0.482,0.482 v 0.482 c -0.138,0.137 -0.344,0.275 -0.482,0.412 v 0.482 c 0.138,0.482 0.344,0.964 0.482,1.445 1.376,-0.206 1.376,-0.206 1.858,-0.963 -0.069,-0.275 -0.138,-0.619 -0.206,-0.964 0.206,0.345 0.481,0.689 0.687,0.964 v 0.482 c 0.276,-0.069 0.482,-0.138 0.757,-0.207 0.207,0.207 0.482,0.413 0.689,0.688 -0.138,0.207 -0.345,0.344 -0.482,0.482 h 0.482 v 0.275 c -0.069,0.069 -0.138,0.138 -0.207,0.206 0.069,0.069 0.138,0.139 0.207,0.207 z" /></g><g
           transform="translate(421.3623,536.3262)"
           id="g26"><path
             id="path28"
             style="fill:#231f20;fill-opacity:1;fill-rule:evenodd;stroke:none"
             d="M 0,0 V 0.481 H 0.482 C 0.345,0.344 0.138,0.137 0,0 M 38.535,-0.482 C 38.191,-0.275 37.848,-0.138 37.572,0 v 0.481 h 1.445 c 0,-0.963 0,-0.963 -0.482,-0.963 M 8.12,0.481 H 9.565 V -0.482 H 8.12 Z M 4.817,-0.482 C 4.817,0 4.817,0 5.712,0 V -0.482 Z M 0,-0.482 V 0 c 0.138,0.137 0.345,0.344 0.482,0.481 h 0.963 v -0.963 z m 21.401,0 h 2.34 v -0.482 h -2.34 z m -3.302,-0.482 c 0,0.482 0,0.482 0.963,0.482 v -0.482 z m -5.712,0.482 h 1.445 v -0.482 h -1.445 z m -2.34,-0.482 V 0 h 0.481 c 0,-0.964 0,-0.964 -0.481,-0.964 M 6.675,-0.482 H 8.12 V -0.964 H 6.675 Z m -4.266,0 H 4.336 V -0.964 H 2.409 Z m 36.126,-0.482 h 5.712 v -0.481 h -5.712 z m -8.601,0 h 7.157 v -0.481 h -7.157 z m -9.978,0 h 0.964 v -0.481 c -0.964,0 -0.964,0 -0.964,0.481 m 29.452,-1.445 c -0.137,0.482 -0.275,0.964 -0.413,1.445 H 49.89 V -2.409 Z M 46.587,-2.89 v 0.481 c 0.963,0 0.963,0 0.963,-0.481 z m -5.231,0 h 1.445 v -0.482 h -1.445 z m -11.422,0 h 0.964 v -0.482 h -0.964 z m -34.682,0 v -0.895 c -0.481,0 -0.481,0 -0.481,0.895 z m 52.78,-1.859 h 0.963 c 0,0.964 0,0.964 0.413,0.964 V -5.23 H 48.032 Z M 39.017,-5.23 h 1.377 v -0.482 h -1.377 z m -34.2,0 H 6.193 V -5.712 H 4.817 Z M 0.964,-5.712 v 0.482 c 0.963,0 0.963,0 0.963,-0.482 z m -2.821,0 h 1.376 v -0.481 h -1.376 z m -24.223,0 h 0.964 v -0.481 h -0.964 z m 69.846,-0.963 v 1.445 h 0.963 C 44.522,-5.712 44.385,-6.193 44.247,-6.675 Z M 7.639,-6.193 h 0.963 c 0,-0.482 0,-0.482 -0.963,-0.482 z m 36.127,-0.482 h 0.481 v -0.481 h -0.481 z m -0.483,0 h 0.483 v -0.482 c -0.207,0.207 -0.345,0.344 -0.483,0.482 m -14.725,0 h 1.376 V -7.156 H 28.558 Z M 6.193,-7.638 v 0.481 H 6.675 C 6.469,-7.294 6.331,-7.432 6.193,-7.638 M 5.712,-7.157 H 6.193 V -7.638 C 6.056,-7.432 5.85,-7.294 5.712,-7.157 m -1.376,0 h 0.963 v -0.481 c -0.963,0 -0.963,0 -0.963,0.481 m 1.857,-0.481 c 0.138,0.206 0.276,0.344 0.482,0.481 0.138,-0.137 0.275,-0.275 0.482,-0.481 V -8.12 c -0.964,0 -0.964,0 -0.964,0.482 M 7.157,-8.602 H 8.12 V -9.015 H 7.157 Z m -35.645,-0.413 h 0.481 v -0.482 h -0.481 z m 55.6,0 v -0.963 h -0.481 c 0,0.963 0,0.963 0.481,0.963 m -60.83,-0.963 v 0.481 h 0.963 c 0,-0.481 0,-0.481 -0.963,-0.481 m 50.853,-0.963 v 0.963 c 0.275,-0.207 0.619,-0.482 0.964,-0.689 -0.345,-0.068 -0.689,-0.137 -0.964,-0.274 m -30.415,0 v 0.481 c 0.137,-0.068 0.343,-0.138 0.481,-0.207 -0.069,-0.068 -0.138,-0.137 -0.206,-0.274 z m 0.481,-0.207 c -0.069,0.069 -0.138,0.138 -0.206,0.207 0.068,0.137 0.137,0.206 0.206,0.274 0.07,-0.068 0.138,-0.137 0.276,-0.274 -0.138,-0.069 -0.206,-0.138 -0.276,-0.207 m 32.755,0.207 h 0.481 v -0.482 h -0.481 z m -33.236,-0.482 v 0.482 h 0.275 c 0.068,-0.069 0.137,-0.138 0.206,-0.207 v -0.275 z m -10.46,0 c -0.138,0.206 -0.276,0.344 -0.413,0.482 0.55,0.343 1.17,0.688 1.858,0.963 v -0.963 c -0.481,-0.138 -0.964,-0.276 -1.445,-0.482 m -0.413,0 v 0.482 c 0.137,-0.138 0.275,-0.276 0.413,-0.482 z m 12.317,-0.482 c -0.344,0.207 -0.619,0.344 -0.963,0.482 v 0.275 c 0.07,0.069 0.138,0.138 0.276,0.207 h 1.169 c 0,-0.964 0,-0.964 -0.482,-0.964 m -12.11,0 c -0.07,0.138 -0.138,0.207 -0.207,0.276 v 0.206 h 0.413 v -0.482 z m -0.689,0 c 0.138,0.207 0.276,0.344 0.482,0.482 v -0.206 c -0.137,-0.069 -0.206,-0.138 -0.276,-0.276 z m -4.816,0 v 0.964 h 0.963 c -0.344,-0.276 -0.619,-0.62 -0.963,-0.964 m 5.298,-0.206 c -0.137,0.069 -0.206,0.137 -0.276,0.206 0.07,0.138 0.139,0.207 0.276,0.276 0.069,-0.069 0.137,-0.138 0.207,-0.276 -0.07,-0.069 -0.138,-0.137 -0.207,-0.206 m 0,0 c 0.069,0.069 0.137,0.137 0.207,0.206 h 0.206 z m -0.963,0.206 h 0.481 0.206 c 0.07,-0.069 0.139,-0.137 0.276,-0.206 l 0.413,0.206 c 0.481,0 0.481,0 0.481,-0.963 h -0.894 -0.963 z m 38.466,-1.376 h 0.482 v -0.481 H 13.35 Z m -23.328,0 h 0.481 v -0.481 h -0.481 z m -28.006,-0.482 v 0.482 c 0.137,-0.138 0.344,-0.344 0.481,-0.482 z m 27.525,-0.482 v 0.482 l 0.481,0.482 v -0.482 c -0.137,-0.137 -0.343,-0.343 -0.481,-0.482 m -27.044,0 v 0.482 h 0.482 0.482 v -0.482 z m -0.206,0 c -0.138,0.069 -0.207,0.139 -0.275,0.207 v 0.275 h 0.481 v -0.482 z m 56.771,1.377 h 0.413 v -1.858 H 19.062 Z M 4.817,-14.245 h 0.481 v -0.481 H 4.817 Z m -29.452,-0.481 h -0.481 v 1.445 h 0.481 z m -8.12,-0.275 c -0.068,0.137 -0.138,0.206 -0.206,0.275 0.068,0.069 0.138,0.137 0.206,0.206 0.069,-0.069 0.138,-0.137 0.276,-0.206 -0.138,-0.069 -0.207,-0.138 -0.276,-0.275 m 37.572,0.275 h 0.481 v -0.482 H 4.817 Z m -37.572,-0.482 v 0.207 c 0.069,0.137 0.138,0.206 0.276,0.275 h 0.207 c -0.138,-0.138 -0.345,-0.344 -0.483,-0.482 m -5.229,0 v 0.482 0.206 c 0.068,0.138 0.137,0.207 0.275,0.275 h 0.206 c -0.137,-0.344 -0.344,-0.619 -0.481,-0.963 m 43.283,-0.481 v 0.481 c 0.069,-0.138 0.275,-0.275 0.413,-0.481 z m -0.482,0.481 h 0.481 v -0.481 H 4.817 Z m -0.481,-0.481 c 0.138,0.206 0.274,0.343 0.481,0.481 v -0.481 z m -8.602,0.963 c 0.137,-0.344 0.344,-0.62 0.482,-0.963 -0.689,0.825 -0.689,0.825 -0.482,0.963 m -28.97,-1.17 c -0.07,0.069 -0.138,0.138 -0.206,0.207 0.068,0.137 0.136,0.206 0.206,0.274 0.069,-0.068 0.137,-0.137 0.275,-0.274 -0.138,-0.069 -0.206,-0.138 -0.275,-0.207 m 60.831,0.207 c 0.136,0.206 0.274,0.343 0.481,0.481 0.482,0 0.482,0 0.482,-0.963 -0.963,0 -0.963,0 -0.963,0.482 m -60.831,-0.482 v 0.275 c 0.069,0.069 0.137,0.138 0.275,0.207 h 0.206 c -0.138,-0.138 -0.344,-0.276 -0.481,-0.482 m 29.452,-0.482 v 0.964 h 0.481 c 0,-0.964 0,-0.964 -0.481,-0.964 m 22.846,1.927 c -0.207,-0.895 -0.344,-1.858 -0.482,-2.821 h -0.481 v 2.821 z m -9.015,-2.821 v 0.894 c 0.138,-0.206 0.275,-0.482 0.481,-0.688 -0.136,-0.069 -0.206,-0.138 -0.275,-0.206 z m 0.481,-0.276 c -0.136,0.138 -0.206,0.207 -0.275,0.276 0.069,0.068 0.139,0.137 0.275,0.206 0.07,-0.069 0.138,-0.138 0.207,-0.206 -0.069,-0.069 -0.137,-0.138 -0.207,-0.276 m 16.103,-0.206 H 26.15 v 2.34 h 0.481 z m -31.86,0 c -0.138,0.137 -0.344,0.344 -0.482,0.482 0.344,0.137 0.619,0.275 0.963,0.412 0.138,-0.275 0.345,-0.619 0.482,-0.894 z m -0.964,0 c 0.137,0.137 0.344,0.344 0.482,0.482 0.138,-0.138 0.344,-0.345 0.482,-0.482 z m 17.134,-0.482 c -0.137,0.138 -0.275,0.344 -0.413,0.482 v 0.206 c 0.07,0.138 0.138,0.207 0.207,0.276 h 0.688 c 0,-0.964 0,-0.964 -0.482,-0.964 m -0.894,0 v 0.964 h 0.206 c 0.069,-0.069 0.139,-0.138 0.275,-0.276 v -0.206 -0.482 z m -35.163,0 c -0.207,0.138 -0.344,0.344 -0.482,0.482 0,0.482 0.963,0.482 0.963,0.894 0.482,0 0.482,-0.894 0.895,-0.894 -0.138,-0.138 -0.276,-0.344 -0.413,-0.482 z m -0.482,0 v 0.482 c 0.138,-0.138 0.275,-0.344 0.482,-0.482 z m 19.405,0.482 h 0.964 v -0.963 h -0.964 z m -10.391,-0.964 v 0.482 c 0.138,-0.137 0.275,-0.344 0.482,-0.482 z m -0.481,0 c 0.137,0.138 0.275,0.345 0.481,0.482 v -0.482 z m -8.051,0 v 0.482 h 0.963 c -0.344,-0.137 -0.688,-0.344 -0.963,-0.482 m -0.482,0.482 h 0.482 v -0.482 c -0.207,0.138 -0.344,0.345 -0.482,0.482 m 9.014,-0.482 h 0.482 v -0.481 c -0.207,0.137 -0.344,0.344 -0.482,0.481 m 27.525,-0.963 v 0.963 c 0.482,0 0.482,0 0.482,-0.963 z m -27.043,0 v 0.482 c 0.276,-0.138 0.62,-0.344 0.963,-0.482 z m 18.511,0 H 2.89 v -0.481 H 2.409 Z m -6.675,-0.482 h -0.482 v 1.927 h 0.482 z m -1.927,0.964 h 0.482 v -0.963 h -0.482 z m 33.305,-1.445 h -0.481 v 1.445 h 0.481 z m -35.163,1.445 h 0.964 v -1.445 h -1.445 c 0,0.481 0.963,0.481 0.963,0.963 h -1.446 c 0,0.482 0,0.482 0.964,0.482 m -23.259,-1.445 v 0.481 c 0.138,-0.137 0.276,-0.344 0.482,-0.481 z m 15.69,-0.482 c -0.206,0.207 -0.344,0.344 -0.482,0.482 v 0.963 h 0.963 v -0.482 -0.481 c -0.206,-0.138 -0.343,-0.275 -0.481,-0.482 m -16.171,0.482 h 0.481 v -0.482 c -0.206,0.207 -0.343,0.344 -0.481,0.482 m 42.732,0 v -0.895 h -0.413 c 0,0.895 0,0.895 0.413,0.895 m -16.652,-1.377 h -0.482 v 1.376 h 0.482 z m -1.858,0.482 h 0.482 v -0.482 h -0.482 z m -0.482,0 h 0.482 v -0.482 c -0.688,0.344 -0.688,0.344 -0.482,0.482 m -23.259,-0.482 v 0.895 0.482 h 0.482 v -0.482 c 0.138,-0.138 0.275,-0.275 0.482,-0.413 v -0.482 z m 26.081,-0.481 v 1.376 c 0.343,0.207 0.619,0.344 0.963,0.482 v -1.377 c -0.344,-0.137 -0.62,-0.344 -0.963,-0.481 m -16.103,0 v 0.963 h 0.964 c -0.344,-0.344 -0.689,-0.619 -0.964,-0.963 m -9.978,0 v 0.481 h 0.964 c -0.344,-0.137 -0.688,-0.344 -0.964,-0.481 m -0.481,0 c -0.207,0.137 -0.345,0.344 -0.481,0.481 0.136,0.482 0.274,0.964 0.481,1.377 0.138,-0.138 0.275,-0.275 0.481,-0.482 v -0.895 -0.481 z m 26.562,-0.482 v 0.482 c 0.343,0.137 0.619,0.344 0.963,0.481 v -0.963 z m -9.91,0 v 0.482 h 0.895 c 0,-0.482 0,-0.482 -0.895,-0.482 m 9.428,-0.482 v 1.445 1.377 c 0.138,-0.138 0.344,-0.275 0.482,-0.482 v -1.376 -0.482 c -0.138,-0.137 -0.344,-0.344 -0.482,-0.482 m 8.12,-0.482 v 0.964 h 0.482 c 0,-0.964 0,-0.964 -0.482,-0.964 m -3.785,-0.481 c -0.275,0.206 -0.275,0.206 0,0 m 0,-0.482 v 0.482 c 0.138,-0.138 0.275,-0.344 0.481,-0.482 z m -4.335,1.445 c 0.138,0.138 0.344,0.345 0.482,0.482 h 0.963 c 0.275,-0.757 0.275,-0.757 -0.482,-2.409 -0.344,0.62 -0.619,1.308 -0.963,1.927 m 26.631,-1.927 h 0.963 v -0.481 H 20.92 Z m -52.23,1.445 h 0.481 v -1.927 h -0.481 z m 24.705,-0.963 h 0.412 c 0.137,-0.413 0.344,-0.756 0.482,-1.169 -0.069,-0.07 -0.138,-0.138 -0.206,-0.276 h -0.688 z m 0.894,-1.651 c -0.069,0.068 -0.138,0.138 -0.206,0.206 0.068,0.138 0.137,0.206 0.206,0.276 0.068,-0.07 0.138,-0.138 0.275,-0.276 -0.137,-0.068 -0.207,-0.138 -0.275,-0.206 m 32.823,1.651 c 0.344,-0.619 0.619,-1.239 0.964,-1.858 h -0.964 z m -59.384,-3.303 c 0.136,0.344 0.274,0.62 0.481,0.964 v -0.964 z m 0.481,-0.482 v 0.482 c 0.138,-0.137 0.275,-0.344 0.481,-0.482 z m -0.481,0.482 h 0.481 v -0.481 h -0.481 z m -0.483,-0.482 h 0.483 v -0.481 c -0.138,0.138 -0.345,0.344 -0.483,0.481 m 48.926,-0.963 c 0.275,0.344 0.482,0.62 0.758,0.963 0.068,-0.343 0.136,-0.619 0.206,-0.963 z m -14.244,0 H 1.446 v 3.303 h 0.481 z m 18.029,-0.482 v 0.482 c 0.138,-0.069 0.344,-0.137 0.482,-0.275 -0.069,-0.068 -0.138,-0.138 -0.207,-0.207 z m -2.34,1.445 h 0.482 v -1.445 h -0.482 z m -49.407,-1.445 c -0.207,0.207 -0.345,0.345 -0.481,0.482 v 0.482 0.481 h 0.481 0.481 v -0.481 c -0.206,-0.344 -0.343,-0.619 -0.481,-0.964 m 52.229,-0.206 c -0.069,0.069 -0.138,0.138 -0.207,0.206 0.069,0.069 0.138,0.139 0.207,0.207 0.069,-0.068 0.137,-0.138 0.275,-0.207 -0.138,-0.068 -0.206,-0.137 -0.275,-0.206 m 0,-0.275 v 0.275 c 0.069,0.069 0.137,0.138 0.275,0.206 h 0.207 c -0.138,-0.137 -0.345,-0.274 -0.482,-0.481 m -0.482,0 v 0.481 h 0.275 c 0.069,-0.068 0.138,-0.137 0.207,-0.206 v -0.275 z m -7.569,5.229 h 0.481 v -5.229 h -0.481 z m -10.46,-4.748 v -0.963 c -0.482,0 -0.482,0 -0.482,0.963 z m 25.185,0 h 0.482 v -1.444 h -0.482 z m -10.941,-0.963 h 0.964 v -0.481 h -0.964 z m 12.387,-0.481 c 0.275,0.206 0.55,0.343 0.894,0.481 v -0.964 c -0.894,0 -0.894,0 -0.894,0.483 m -1.927,-0.895 h 0.481 v -0.482 h -0.481 z m -32.342,-0.964 v 0.964 c 0.482,0 0.482,0 0.482,-0.964 z m -29.865,0.964 c 0.069,-0.345 0.275,-0.619 0.413,-0.964 h -1.376 c 0,0.482 0,0.482 0.963,0.964 M -13.28,-34.2 c 0.137,0.619 0.343,1.307 0.481,1.857 v -0.894 -0.482 z m 2.408,-0.482 c 0,0.482 0,0.482 0.894,0.482 v -0.964 c -0.275,0.207 -0.619,0.345 -0.894,0.482 m -2.408,0.482 c 0,-0.482 -0.964,-0.482 -0.964,-0.964 -0.482,0 -0.482,0 -0.482,0.964 z m 2.408,-0.482 c 0.275,-0.137 0.619,-0.275 0.894,-0.482 0,-0.482 0,-0.482 -0.894,-0.482 z m -25.186,0 h 0.481 v -0.964 h -0.481 z m 46.105,-1.445 v 1.445 h 0.894 v -0.482 -0.482 c -0.275,-0.137 -0.619,-0.275 -0.894,-0.481 m 0,1.445 v -1.445 H 9.565 9.083 v 1.445 z m -35.163,-0.482 h 0.481 v -0.963 h -0.481 z m 41.287,-1.444 v 0.962 h 0.964 c -0.344,-0.275 -0.619,-0.619 -0.964,-0.962 m -47.962,0 v 0.481 l 0.481,-0.481 z m 53.674,-0.482 h -0.481 v 2.408 h 0.481 z m -12.112,0 c -0.068,0.137 -0.137,0.206 -0.206,0.275 v 0.207 0.481 h 0.482 C 9.909,-36.402 9.841,-36.746 9.771,-37.09 m -0.688,0 c 0.139,0.206 0.275,0.344 0.482,0.482 v -0.207 C 9.428,-36.884 9.358,-36.953 9.29,-37.09 Z m -40.874,0.482 h 0.481 v -0.481 h -0.481 z m -0.481,1.926 c 0.136,-0.482 0.274,-0.964 0.481,-1.445 v -0.481 -0.482 c -0.207,0.825 -0.345,1.652 -0.481,2.408 m 41.837,-2.615 c -0.137,0.068 -0.207,0.138 -0.275,0.207 0.068,0.137 0.138,0.206 0.275,0.275 0.069,-0.069 0.138,-0.138 0.206,-0.275 -0.068,-0.069 -0.137,-0.139 -0.206,-0.207 m -0.482,-0.275 v 0.482 H 9.29 c 0.068,-0.069 0.138,-0.139 0.275,-0.207 -0.207,-0.068 -0.343,-0.138 -0.482,-0.275 m -2.89,2.408 c 0.207,-0.206 0.482,-0.482 0.689,-0.688 -0.069,-0.55 -0.138,-1.101 -0.207,-1.72 -0.206,0.826 -0.344,1.651 -0.482,2.408 m -30.346,-2.408 v 0.964 c 0.413,0 0.413,0 0.413,-0.964 z m 32.755,-0.482 v 2.408 H 7.639 v -1.926 H 6.675 c 0.069,0.619 0.138,1.17 0.207,1.72 -0.207,0.206 -0.482,0.482 -0.689,0.688 H 5.712 C 5.574,-35.438 5.368,-35.783 5.299,-36.127 H 4.817 c -0.207,0.344 -0.343,0.689 -0.481,0.963 l -0.482,0.482 c -0.207,0.344 -0.344,0.619 -0.482,0.963 -0.206,0.138 -0.344,0.345 -0.481,0.482 -0.207,0.137 -0.344,0.344 -0.482,0.482 -0.207,0.412 -0.345,0.895 -0.482,1.376 v 0.963 0.482 3.303 0.963 c 0.137,0.482 0.275,0.964 0.482,1.445 0.482,0 0.482,0 0.482,0.964 H 2.409 c -0.207,0.137 -0.345,0.344 -0.482,0.482 1.032,0.825 1.032,0.825 1.445,1.858 0.138,0.137 0.275,0.344 0.482,0.481 0.137,0.482 0.275,0.964 0.482,1.445 -0.345,0.138 -0.689,0.345 -0.964,0.482 v 0.482 c 0.138,0.619 0.275,1.238 0.482,1.858 0.137,0.206 0.275,0.344 0.482,0.482 h 0.481 0.482 0.413 c 0.138,0.343 0.344,0.619 0.481,0.963 0.138,0.137 0.276,0.344 0.482,0.481 0.138,0.139 0.275,0.345 0.482,0.482 h 0.482 c 0.137,-0.137 0.275,-0.343 0.481,-0.482 0.482,-0.137 0.963,-0.344 1.445,-0.481 0.138,-0.62 0.276,-1.239 0.482,-1.927 v -0.894 -0.964 h 0.481 v 0.482 c 0.138,-0.138 0.276,-0.344 0.413,-0.482 v -0.482 -0.963 -0.963 c -0.413,0 -0.413,0 -0.413,-0.895 h 0.413 c 0.138,-0.138 0.276,-0.344 0.482,-0.482 0.138,-0.137 0.275,-0.344 0.482,-0.481 v -0.482 c 0.138,-0.137 0.275,-0.344 0.482,-0.482 v -0.482 -0.481 -0.964 -5.229 c -0.207,-0.138 -0.344,-0.276 -0.482,-0.482 -0.207,-0.275 -0.344,-0.619 -0.482,-0.964 v -0.412 -0.482 c -0.206,-0.482 -0.344,-0.963 -0.482,-1.445 H 10.047 9.083 v -1.445 h 0.482 v -0.481 C 9.358,-36.746 9.222,-36.884 9.083,-37.09 v -0.482 C 8.877,-37.71 8.739,-37.848 8.602,-38.054 m -0.963,0.482 v 1.926 h 0.963 v -2.408 c -0.344,0.206 -0.688,0.344 -0.963,0.482 m -8.534,0 h 0.414 c 0.137,-0.138 0.343,-0.276 0.481,-0.482 -0.344,0.206 -0.619,0.344 -0.895,0.482 m -30.415,0.482 v 0.482 c 0.138,-0.482 0.276,-0.964 0.482,-1.446 -0.206,0.344 -0.344,0.689 -0.482,0.964 M 0.275,-38.467 C 0.138,-38.398 0.069,-38.329 0,-38.26 v 0.206 c 0.069,-0.137 0.138,-0.275 0.275,-0.413 M 0,-38.742 c -0.068,0.138 -0.138,0.207 -0.206,0.275 0.068,0.069 0.138,0.138 0.206,0.207 0.069,-0.069 0.138,-0.138 0.275,-0.207 C 0.138,-38.535 0.069,-38.604 0,-38.742 m -0.481,-0.206 v 0.481 h 0.275 c 0.068,-0.068 0.138,-0.137 0.206,-0.275 l -0.206,-0.206 z m -0.414,0 c 0.138,0.206 0.276,0.344 0.414,0.481 v -0.481 z m -37.089,0 v 0.481 c 0.137,-0.137 0.344,-0.275 0.481,-0.481 z M 0,-39.155 c -0.068,0.069 -0.138,0.138 -0.206,0.207 L 0,-38.742 C 0.069,-38.811 0.138,-38.88 0.275,-38.948 0.138,-39.017 0.069,-39.086 0,-39.155 m -0.481,-0.275 v 0.482 h 0.275 c 0.068,-0.069 0.138,-0.138 0.206,-0.207 v -0.275 z m -0.895,0.482 h 0.481 0.414 v -0.482 c -0.276,0.206 -0.62,0.344 -0.895,0.482 m 28.488,-0.964 h -0.481 v 1.445 h 0.481 z M 0,-39.43 v 0.275 c 0.069,0.069 0.138,0.138 0.275,0.207 0.207,-0.138 0.482,-0.276 0.689,-0.482 v -0.482 C 0.619,-39.705 0.345,-39.567 0,-39.43 m -0.481,0 H 0 v -0.482 c -0.138,0.207 -0.344,0.345 -0.481,0.482 m -37.022,-0.482 c -0.068,0.207 -0.137,0.345 -0.206,0.482 -0.138,0.138 -0.207,0.206 -0.275,0.275 v 0.207 h 0.481 c 0.138,-0.276 0.344,-0.619 0.482,-0.964 z m -0.481,0 v 0.275 c 0.068,0.07 0.137,0.138 0.275,0.207 0.069,-0.137 0.138,-0.275 0.206,-0.482 z m 38.948,-0.482 v 0.482 0.482 c 0.138,-0.137 0.344,-0.275 0.481,-0.482 -0.137,-0.138 -0.343,-0.275 -0.481,-0.482 m -38.467,0.482 h 0.482 v -0.481 h -0.482 z m -0.481,0 h 0.481 v -0.482 c -0.137,0.207 -0.344,0.344 -0.481,0.482 m 38.948,-0.963 v 0.481 c 0.138,0.207 0.344,0.344 0.481,0.482 0.482,0 0.482,0 0.482,-0.963 z m -0.482,0 C 0.345,-40.531 0.138,-40.187 0,-39.912 v 0.482 c 0.345,-0.137 0.619,-0.275 0.964,-0.482 v -0.482 -0.481 z m -37.985,0.481 h 0.482 v -0.481 c -0.138,0.206 -0.344,0.344 -0.482,0.481 m 37.985,-0.481 h 0.482 v -0.481 c -0.138,0.206 -0.345,0.343 -0.482,0.481 m -23.534,-0.963 c -0.069,0.137 -0.137,0.206 -0.207,0.275 v 0.688 c 0.138,-0.275 0.276,-0.619 0.483,-0.963 z m -0.207,-0.207 c -0.068,0.068 -0.137,0.138 -0.206,0.207 0.069,0.137 0.138,0.206 0.206,0.275 0.07,-0.069 0.138,-0.138 0.207,-0.275 -0.069,-0.069 -0.137,-0.139 -0.207,-0.207 m 44.66,1.17 h 0.481 V -42.32 H 21.401 Z M 10.528,-42.32 c 0.138,0.207 0.276,0.343 0.413,0.482 v -0.482 z m -33.993,0.482 c 0.069,-0.069 0.138,-0.139 0.206,-0.207 -0.344,-0.068 -0.619,-0.138 -0.894,-0.275 0,0.482 0,0.482 0.688,0.482 m 36.815,0 c 0.275,0.206 0.62,0.344 0.963,0.482 v -1.446 H 13.35 Z m -50.371,0 c -0.138,-0.275 -0.344,-0.62 -0.482,-0.964 -0.481,0 -0.481,0 -0.481,0.964 z m 10.459,-0.964 h 0.964 c 0,-0.413 0,-0.413 -0.964,-0.413 z m 47.963,-0.894 h 0.963 v -0.481 h -0.963 z m -30.416,0 h 0.482 v -0.964 h -0.482 z m -23.74,-0.964 h 0.964 v -0.481 h -0.964 z m 36.127,0 c 0.482,-0.275 0.964,-0.619 1.445,-0.963 H 3.372 Z m -36.127,-1.444 v 0.481 c 0.964,0 0.964,0 0.964,-0.481 z m 58.423,0 h 0.963 v -0.482 h -0.963 z m -59.867,0 h 1.444 v -0.482 h -1.444 z m 40.874,-0.964 -0.482,0.481 c -0.137,0.207 -0.343,0.345 -0.481,0.483 -0.138,0.206 -0.344,0.343 -0.413,0.481 H 4.817 c -0.481,0.344 -0.963,0.688 -1.445,0.963 -0.206,0.345 -0.344,0.619 -0.481,0.964 -0.344,0.137 -0.62,0.343 -0.964,0.481 -0.138,0.482 -0.344,0.964 -0.482,1.377 -0.137,0.206 -0.343,0.344 -0.481,0.482 v 0.481 h 0.963 c 0,0.963 0,0.963 -0.482,0.963 -0.137,0.207 -0.343,0.345 -0.481,0.482 -0.207,0.206 -0.482,0.344 -0.689,0.482 -0.137,0.068 -0.206,0.137 -0.275,0.206 0.069,0.138 0.138,0.207 0.275,0.275 -0.137,0.138 -0.206,0.276 -0.275,0.413 v -0.206 c -0.068,-0.069 -0.138,-0.138 -0.206,-0.207 h -0.275 c -0.138,-0.137 -0.276,-0.275 -0.414,-0.481 h -0.481 c -0.206,0.344 -0.344,0.619 -0.481,0.894 -0.207,0.206 -0.345,0.344 -0.482,0.482 v 0.482 c 0.137,0.206 0.275,0.344 0.482,0.482 v 0.481 c -0.207,0.206 -0.345,0.344 -0.482,0.481 -0.139,0.689 -0.345,1.308 -0.482,1.927 -0.138,0.345 -0.344,0.619 -0.482,0.964 -0.137,1.582 -0.343,3.165 -0.481,4.748 -0.138,0.138 -0.345,0.344 -0.482,0.482 -0.137,0.619 -0.344,1.238 -0.482,1.857 0.757,1.652 0.757,1.652 0.482,2.409 v 0.963 1.377 0.481 1.927 0.482 c -0.137,0.275 -0.344,0.619 -0.482,0.894 h 0.482 c 0.137,0.207 0.344,0.344 0.482,0.482 0.481,0 0.481,0 0.481,0.964 h -0.481 c -0.138,0.343 -0.345,0.619 -0.482,0.963 v 0.481 c 0.137,0.139 0.344,0.345 0.482,0.482 v 0.482 c 0.138,0.137 0.344,0.275 0.481,0.413 0.138,0.206 0.344,0.344 0.482,0.481 v 1.446 c 0.964,0 0.964,0 0.964,0.481 0.137,0.207 0.275,0.344 0.481,0.482 0.138,0.344 0.275,0.619 0.481,0.963 l 0.414,0.413 c 0.137,0.206 0.343,0.344 0.481,0.482 h 0.964 c 0.138,0.206 0.344,0.344 0.481,0.482 0.138,0.206 0.344,0.344 0.482,0.481 h 0.482 1.927 c 0,-0.481 0,-0.481 0.963,-0.481 v 0.481 h 0.413 c 0.138,-0.137 0.344,-0.275 0.481,-0.481 0,-0.482 0,-0.482 0.964,-0.482 v 0.482 H 7.639 C 7.776,-7.776 7.914,-7.914 8.12,-8.12 h 0.482 l 0.481,-0.482 c 0.139,-0.137 0.275,-0.275 0.482,-0.413 0.276,-0.137 0.62,-0.344 0.963,-0.482 h 0.413 c 0.138,-0.137 0.276,-0.274 0.482,-0.481 0.138,-0.275 0.275,-0.62 0.482,-0.963 h 0.482 c 0.137,-0.138 0.275,-0.276 0.481,-0.482 0.138,-0.275 0.276,-0.619 0.482,-0.964 0.137,-0.137 0.275,-0.275 0.482,-0.481 h 0.481 c 0.138,-0.138 0.276,-0.276 0.482,-0.413 v -1.445 c 0.138,-0.138 0.275,-0.344 0.413,-0.482 v -0.481 c 0.138,-0.482 0.344,-0.964 0.481,-1.446 0.138,-0.137 0.345,-0.275 0.482,-0.412 0.138,-0.345 0.345,-0.62 0.482,-0.964 v -0.482 c 0.138,-0.481 0.344,-0.963 0.482,-1.445 v -2.339 c 0.137,-0.619 0.275,-1.308 0.481,-1.927 0.138,-0.344 0.276,-0.619 0.483,-0.964 v -0.481 -0.482 c -0.207,-0.275 -0.345,-0.551 -0.483,-0.894 v -0.482 -0.482 -0.482 -1.445 -0.481 -0.482 -1.858 c -0.206,-0.344 -0.344,-0.619 -0.481,-0.963 v -1.446 h -0.964 v -0.962 -0.482 c -0.137,-0.139 -0.344,-0.275 -0.482,-0.482 -0.275,-0.413 -0.619,-0.895 -0.894,-1.376 v -0.482 -0.964 c -0.206,-0.137 -0.344,-0.275 -0.482,-0.481 v -0.481 c -0.343,-0.138 -0.688,-0.276 -0.963,-0.482 h -0.482 c -0.206,-0.139 -0.344,-0.275 -0.481,-0.482 -0.207,-0.138 -0.344,-0.276 -0.482,-0.482 -0.207,-0.137 -0.344,-0.275 -0.482,-0.413 -0.206,-0.344 -0.344,-0.619 -0.482,-0.963 -0.137,-0.275 -0.275,-0.62 -0.413,-0.964 H 10.047 C 9.841,-45.279 9.703,-45.417 9.565,-45.623 9.358,-45.761 9.222,-45.898 9.083,-46.104 8.877,-46.242 8.739,-46.38 8.602,-46.587 8.396,-46.725 8.258,-46.862 8.12,-47.068 Z m 14.245,-0.413 c 0,0.413 0,0.413 -0.964,0.413 v 1.445 c 0.482,0 0.482,0 0.482,-0.964 h 0.963 c 0,-0.894 0,-0.894 -0.481,-0.894 m -32.756,-0.963 v 0.963 h 0.482 c 0,-0.963 0,-0.963 -0.482,-0.963 m 38.948,0.963 h 0.482 v -1.927 h -0.482 z m -55.119,-1.445 h 0.482 v -0.482 h -0.482 z m 17.135,-0.964 c 0.275,-0.481 0.619,-0.964 0.894,-1.445 h -0.894 z m -15.69,-1.445 v 0.964 c 0.138,-0.275 0.276,-0.619 0.482,-0.964 z m 1.446,0.481 h 0.481 v -0.894 h -0.481 z m -0.964,-0.893 v 0.412 c 0.138,-0.138 0.275,-0.275 0.482,-0.412 z m -0.482,0.412 h 0.481 v -0.412 h -0.481 z m 17.066,-1.376 c -0.138,0.344 -0.344,0.619 -0.482,0.964 v 0.412 c -0.275,0.481 -0.619,0.964 -0.894,1.445 -0.344,0.138 -0.689,0.344 -0.964,0.482 v 0.482 0.482 c 0.482,0 0.482,0 0.482,0.963 h -0.482 c -0.206,0.137 -0.344,0.275 -0.481,0.413 -0.138,0.206 -0.344,0.343 -0.482,0.481 v 0.483 0.481 0.481 0.482 c -0.138,2.409 -0.344,4.748 -0.481,7.088 -0.138,0.207 -0.345,0.343 -0.483,0.482 -0.136,0.206 -0.343,0.344 -0.481,0.482 v 1.444 c 0,0.482 0.964,0.482 0.964,0.964 l 0.481,0.481 v 0.482 0.894 1.446 c -0.138,0.344 -0.344,0.62 -0.481,0.963 v 0.482 c -0.138,0.344 -0.345,0.619 -0.483,0.963 v 0.482 h 0.964 c -0.138,1.101 -0.344,2.202 -0.481,3.303 -0.483,0.138 -0.964,0.344 -1.446,0.481 -0.137,0.138 -0.275,0.345 -0.413,0.482 v 0.482 c 0.895,0 0.895,0 0.895,0.482 h -0.895 v 0.481 c -0.206,0.138 -0.343,0.344 -0.481,0.482 h -0.964 c -0.206,0.138 -0.344,0.275 -0.481,0.413 v 0.482 c 0.137,0.137 0.275,0.344 0.481,0.481 0.138,0.138 0.275,0.344 0.482,0.482 v -0.963 c 0.138,-0.138 0.276,-0.275 0.482,-0.482 0.138,0.207 0.275,0.344 0.481,0.482 v 0.481 0.482 c -0.343,0.138 -0.687,0.344 -0.963,0.482 v 0.481 c -0.207,0.138 -0.344,0.345 -0.482,0.482 -0.206,-0.137 -0.344,-0.344 -0.481,-0.482 -0.206,-0.137 -0.344,-0.344 -0.482,-0.481 -0.207,-0.138 -0.344,-0.344 -0.481,-0.482 -0.138,-0.138 -0.345,-0.344 -0.483,-0.482 -0.136,-0.344 -0.343,-0.619 -0.481,-0.963 h -0.895 c -0.206,-0.138 -0.343,-0.275 -0.481,-0.413 h -0.964 v -0.963 -0.964 c -0.206,-0.137 -0.344,-0.344 -0.481,-0.482 -0.207,-0.137 -0.344,-0.343 -0.482,-0.481 v -0.964 c -0.207,-0.137 -0.344,-0.274 -0.481,-0.481 v -0.482 c -0.207,-0.551 -0.345,-1.238 -0.483,-1.858 v -0.963 c -0.206,-0.344 -0.344,-0.619 -0.481,-0.964 v -0.481 l 0.481,-0.482 v -0.481 -0.483 -1.376 -0.481 -1.446 c -0.206,-0.137 -0.344,-0.275 -0.481,-0.481 -0.138,-0.138 -0.276,-0.275 -0.413,-0.481 v -0.964 c 0.137,-0.413 0.275,-0.895 0.413,-1.376 0.137,-0.276 0.275,-0.619 0.481,-0.964 v -0.963 -0.688 c -0.068,-0.069 -0.137,-0.138 -0.206,-0.275 -0.688,0 -0.688,0 -0.688,-0.482 0.275,0.137 0.55,0.207 0.894,0.275 0.07,0.068 0.138,0.138 0.207,0.207 h 0.276 v -0.964 c -0.207,-0.137 -0.345,-0.275 -0.483,-0.413 v -0.481 h -0.481 -0.413 c -0.206,0.137 -0.344,0.343 -0.482,0.481 -0.206,0.138 -0.344,0.276 -0.481,0.413 v 0.482 h -0.482 v -0.482 h -0.964 -0.481 c -0.207,0.206 -0.345,0.344 -0.481,0.482 v 1.445 h -0.964 c -0.138,0.344 -0.344,0.688 -0.482,0.963 -0.137,0.207 -0.344,0.345 -0.481,0.482 -0.138,0.344 -0.276,0.619 -0.413,0.963 h -0.482 c -0.207,0.138 -0.344,0.276 -0.482,0.413 -0.206,0.482 -0.344,0.964 -0.482,1.446 l -0.481,0.481 c -0.207,0.481 -0.345,0.963 -0.481,1.445 -0.138,0.206 -0.345,0.344 -0.483,0.482 l -0.481,0.481 v 0.482 c 0.137,0.137 0.343,0.344 0.481,0.482 h 0.483 c 0.136,0.138 0.274,0.275 0.481,0.412 v 1.446 h -0.964 c -0.138,0.207 -0.344,0.344 -0.481,0.481 v 0.482 l -0.482,0.482 c 0.344,0.138 0.619,0.344 0.963,0.481 0.138,-0.137 0.345,-0.343 0.483,-0.481 v -0.482 c 0.136,-0.137 0.274,-0.275 0.481,-0.482 0.138,0.345 0.275,0.62 0.481,0.964 v 0.481 c -0.206,0.138 -0.343,0.345 -0.481,0.482 v 0.964 c 0.138,0.137 0.275,0.343 0.481,0.481 v 0.895 h 0.482 v 1.926 h -0.482 v 0.482 0.482 0.482 c 0.276,0.137 0.62,0.344 0.964,0.481 v 0.482 c -0.207,0.138 -0.344,0.275 -0.482,0.413 v 0.482 c -0.206,0.137 -0.344,0.344 -0.482,0.481 v 1.927 c 0.138,0.138 0.276,0.344 0.482,0.482 v 0.482 0.412 0.482 c 0.138,0.482 0.275,0.964 0.482,1.445 h 0.482 c 0.137,0.344 0.275,0.619 0.413,0.963 h 0.481 c 0.138,0.139 0.344,0.345 0.482,0.482 l 0.481,0.482 c 0.138,0.482 0.276,0.963 0.483,1.376 v 0.482 c 0.136,0.206 0.274,0.344 0.481,0.482 h 0.481 c 0.138,-0.138 0.276,-0.276 0.482,-0.482 0.275,-0.138 0.62,-0.275 0.964,-0.482 v -0.963 h 0.963 c -0.206,-0.138 -0.344,-0.276 -0.482,-0.413 h -0.481 v -1.445 h 0.481 v -0.482 c -0.206,-0.275 -0.344,-0.619 -0.481,-0.963 v -0.482 c 0.137,-0.138 0.275,-0.275 0.481,-0.482 0,-0.412 -0.963,-0.412 -0.963,-0.894 v -0.482 c 0.138,-0.137 0.275,-0.344 0.482,-0.482 0.275,0.138 0.619,0.345 0.963,0.482 0.137,0.138 0.275,0.344 0.413,0.482 0.344,0.275 0.619,0.619 0.964,0.894 0.137,0.207 0.274,0.344 0.481,0.482 v 0.482 c 0.138,0.206 0.275,0.344 0.482,0.482 0.137,0.206 0.275,0.343 0.481,0.481 0.138,0.138 0.275,0.344 0.482,0.482 0.482,0.344 0.963,0.62 1.445,0.963 0.413,0.138 0.894,0.344 1.377,0.482 0.137,0.137 0.274,0.275 0.481,0.413 0.138,0.206 0.276,0.344 0.482,0.481 h 0.481 c 0.138,0.207 0.275,0.345 0.482,0.482 0.138,0.207 0.276,0.344 0.482,0.482 0.138,0.206 0.275,0.344 0.481,0.482 h 0.413 c 0.138,0.206 0.344,0.343 0.482,0.481 h 0.964 v -0.481 -0.482 h 0.481 c 0.344,-0.138 0.619,-0.275 0.963,-0.482 v -1.376 c 0.138,-0.138 0.275,-0.344 0.482,-0.482 h 0.895 v -0.482 -0.481 h 0.481 v -0.482 -0.481 c 0.138,-0.138 0.344,-0.276 0.482,-0.482 0.138,-0.138 0.345,-0.275 0.481,-0.482 0.138,-0.138 0.345,-0.275 0.483,-0.482 v -0.412 c 0.137,-0.138 0.344,-0.345 0.481,-0.482 v -1.445 c -0.964,0 -0.964,0 -0.964,-0.482 h 1.446 c 0,-0.482 -0.963,-0.482 -0.963,-0.963 h 1.445 v -0.895 h -0.482 -0.482 c -0.206,-0.138 -0.206,-0.138 0.482,-0.482 h 0.482 c 0.137,-0.137 0.344,-0.344 0.482,-0.481 0.137,-0.345 0.275,-0.619 0.412,-0.964 v -0.482 -0.481 -0.482 h -0.412 -0.482 v -1.858 h 0.482 c 0.137,-0.138 0.275,-0.344 0.412,-0.481 0.137,-0.138 0.344,-0.344 0.482,-0.482 0.138,-0.482 0.344,-0.964 0.482,-1.445 0.137,-0.344 0.343,-0.619 0.481,-0.964 -0.138,-0.137 -0.344,-0.274 -0.481,-0.481 h -1.376 c -0.138,-0.138 -0.345,-0.276 -0.482,-0.482 0.137,-0.138 0.344,-0.275 0.482,-0.481 0.275,-0.138 0.619,-0.276 0.894,-0.483 v -0.412 -0.964 -0.481 c -0.138,-1.308 -0.345,-2.546 -0.482,-3.854 v -1.376 -0.482 -2.89 c 0.137,-0.137 0.344,-0.275 0.482,-0.413 -0.275,-1.238 -0.619,-2.546 -0.894,-3.853 -0.138,-0.138 -0.345,-0.276 -0.482,-0.413 v -0.482 -0.481 -0.482 l -0.482,-0.482 c -0.138,-0.344 -0.344,-0.619 -0.482,-0.963 -0.137,-0.619 -0.344,-1.239 -0.481,-1.858 -0.138,-0.138 -0.345,-0.344 -0.483,-0.482 z m 31.379,-0.964 v -0.963 c -0.482,0 -0.482,0 -0.482,0.963 z m 0,-1.927 v 0.964 h 0.481 c 0,-0.964 0,-0.964 -0.481,-0.964 m 0,-0.894 h 0.964 c 0,-0.482 0,-0.482 -0.964,-0.482 z m -40.875,0 h 0.964 c 0,-0.482 0,-0.482 -0.964,-0.482 z m 46.104,-4.817 h 0.482 v -1.858 h -0.482 z m -0.481,-1.858 c -0.138,0.138 -0.344,0.345 -0.482,0.483 v 2.821 0.481 0.482 l -0.481,0.481 c -0.138,0.345 -0.345,0.62 -0.482,0.964 -0.207,0.344 -0.482,0.619 -0.688,0.963 -0.275,-0.619 -0.481,-1.307 -0.757,-1.927 h -0.413 v 1.927 0.413 0.481 h -0.481 v -0.894 h -0.964 v 0.894 c 0.481,0 0.481,0 0.481,0.964 h -0.481 v 0.963 0.964 l -0.482,0.482 v 0.482 c 0.138,0.137 0.344,0.274 0.482,0.412 v 0.964 l -0.482,0.481 v 0.964 c -0.137,0.344 -0.344,0.619 -0.481,0.963 v 0.482 c 0.481,0 0.481,0 0.481,0.894 h -0.963 c 0,0.964 0,0.964 -0.482,0.964 v 1.927 c 0.344,0.137 0.619,0.343 0.964,0.481 0.137,0.276 0.344,0.619 0.481,0.895 h 0.482 v 1.445 h -0.482 v 0.481 0.482 0.482 0.482 0.481 c 0.138,0.276 0.344,0.619 0.482,0.895 v 0.482 2.408 2.822 c -0.138,0.963 -0.344,1.926 -0.482,2.889 H 20.92 v -0.481 -0.964 h -0.207 c -0.138,0.069 -0.206,0.139 -0.275,0.207 -0.138,0.138 -0.344,0.206 -0.482,0.275 v 10.46 c -0.138,0.137 -0.344,0.344 -0.481,0.481 -0.138,0.345 -0.276,0.62 -0.413,0.964 -0.207,0.137 -0.344,0.344 -0.482,0.482 0.138,0.963 0.275,1.926 0.482,2.821 h 0.413 v 1.858 h -0.413 v 0.481 c -0.207,0.207 -0.344,0.345 -0.482,0.482 h -0.481 c -0.345,0.207 -0.689,0.344 -0.964,0.482 v 0.482 c 0.275,0.137 0.619,0.206 0.964,0.274 -0.345,0.207 -0.689,0.482 -0.964,0.689 v 0.481 c 0.481,0.138 0.964,0.345 1.445,0.482 0.275,0.138 0.619,0.276 0.895,0.413 h 0.481 v 1.445 c -0.138,0.207 -0.344,0.344 -0.481,0.482 v 0.482 c -0.276,0.206 -0.62,0.343 -0.895,0.481 -0.207,0.207 -0.345,0.344 -0.481,0.482 H 17.616 C 17.41,-5.505 17.272,-5.85 17.135,-6.193 16.997,-6.331 16.791,-6.469 16.653,-6.675 h -1.445 c -0.138,-0.138 -0.275,-0.275 -0.413,-0.482 0,-0.481 0,-0.481 -0.963,-0.481 v 0.481 0.482 0.482 c -0.207,0.206 -0.345,0.343 -0.482,0.481 h -0.963 c -0.207,0.207 -0.344,0.344 -0.482,0.482 H 9.083 C 8.877,-5.505 8.739,-5.85 8.602,-6.193 H 7.639 C 7.157,-5.987 6.675,-5.85 6.193,-5.712 V -5.23 H 4.817 V -5.712 H 4.336 3.854 3.372 2.891 1.927 c 0,0.482 0,0.482 -0.963,0.482 v -0.482 h -1.445 -1.376 -0.482 c -0.345,0.207 -0.62,0.344 -0.964,0.482 v 0.481 c -0.137,0.207 -0.343,0.345 -0.481,0.482 -0.345,0.138 -0.619,0.345 -0.964,0.482 v 0.895 h 0.964 c 0.138,0.206 0.344,0.344 0.481,0.481 v 0.482 0.482 c 0.344,0.206 0.619,0.344 0.964,0.481 V 0 h 0.963 c 0.138,-0.138 0.275,-0.275 0.481,-0.482 H 0 1.445 V 0.481 H 1.927 C 2.064,0.137 2.202,-0.138 2.409,-0.482 v -0.482 h 1.927 v 0.482 H 4.817 5.712 6.193 6.675 V -0.964 H 8.12 v 0.482 h 1.445 c 0.138,-0.138 0.276,-0.275 0.482,-0.482 0.481,0 0.481,0 0.481,0.964 h -0.481 c 0.138,0.137 0.275,0.344 0.481,0.481 h 0.413 0.482 C 11.561,0.344 11.698,0.137 11.905,0 c 0.138,-0.138 0.275,-0.275 0.482,-0.482 v -0.482 h 1.445 v 0.482 h 1.376 0.481 0.482 c 0.345,-0.138 0.62,-0.275 0.964,-0.482 h 0.964 0.963 0.413 0.481 c 0,-0.481 0,-0.481 0.964,-0.481 v 0.481 h 0.481 2.34 c 0.344,0.207 0.619,0.344 0.963,0.482 h 0.482 1.926 c 0.619,-0.138 1.24,-0.275 1.859,-0.482 h 0.963 v -0.481 h 7.157 v 0.481 c 0.138,0.207 0.274,0.344 0.481,0.482 V 0 c 0.276,-0.138 0.619,-0.275 0.963,-0.482 v -0.482 -0.481 h 5.712 v 0.481 h 3.785 0.482 0.481 c 0.138,-0.481 0.276,-0.963 0.413,-1.445 V -2.89 -3.785 c -0.413,0 -0.413,0 -0.413,-0.964 H 48.032 C 47.206,-4.886 46.38,-5.023 45.623,-5.23 h -0.481 -0.413 -0.963 v -1.445 h -0.483 c -0.344,0.206 -0.687,0.344 -0.963,0.482 -0.688,0.206 -1.307,0.343 -1.926,0.481 v 0.482 h -1.377 v -0.482 h -0.963 c 0,-0.963 0,-0.963 -0.482,-0.963 -0.207,0.344 -0.343,0.688 -0.481,0.963 H 36.608 C 35.921,-5.85 35.302,-5.987 34.682,-6.193 34.407,-6.331 34.063,-6.469 33.787,-6.675 33.581,-6.813 33.443,-6.95 33.306,-7.157 h -0.482 -0.481 c -0.207,0.207 -0.345,0.344 -0.483,0.482 -0.137,0.206 -0.343,0.344 -0.481,0.482 h -0.482 c -0.344,-0.138 -0.619,-0.276 -0.963,-0.482 h -1.376 c -0.344,0.206 -0.62,0.344 -0.963,0.482 h -0.483 c -0.137,-0.482 -0.343,-0.964 -0.481,-1.445 0.138,-0.138 0.344,-0.276 0.481,-0.482 v -0.895 c -0.481,0 -0.481,0 -0.481,-0.963 h 0.481 v -0.963 -0.482 c -0.137,-0.275 -0.343,-0.619 -0.481,-0.964 0.138,-0.137 0.344,-0.275 0.481,-0.481 v -0.895 c 0.138,-0.137 0.344,-0.343 0.483,-0.482 0.136,-0.344 0.274,-0.619 0.481,-0.963 -0.207,-0.138 -0.345,-0.275 -0.481,-0.481 -0.139,0.206 -0.345,0.343 -0.483,0.481 -0.137,-0.138 -0.343,-0.275 -0.481,-0.481 h -0.482 v -2.34 h 0.482 v -0.482 c 0.138,-0.137 0.344,-0.344 0.481,-0.482 v -0.481 h -0.481 v -1.445 h 0.481 v -4.267 -1.858 h 0.964 c 0.138,-0.344 0.276,-0.619 0.482,-0.963 h 0.413 v -0.482 -0.482 c 0.137,-0.343 0.343,-0.619 0.481,-0.963 v -0.482 -0.481 -0.482 c -0.344,-0.138 -0.619,-0.275 -0.894,-0.481 -0.206,-0.138 -0.344,-0.276 -0.482,-0.483 -0.207,-0.412 -0.345,-0.894 -0.481,-1.376 V -34.2 c -0.139,-0.138 -0.345,-0.276 -0.483,-0.482 v -0.482 c 0.138,-0.482 0.344,-0.963 0.483,-1.444 -0.483,-0.482 -0.483,-0.482 -0.483,-1.859 h -0.481 v -1.445 h 0.481 v -5.23 -0.481 -1.858 -1.927 -0.482 c 0.138,-0.137 0.344,-0.343 0.483,-0.481 0.136,-0.138 0.274,-0.275 0.481,-0.483 -0.207,-0.136 -0.345,-0.274 -0.481,-0.481 v -0.412 -0.482 c 0.136,-0.344 0.274,-0.62 0.481,-0.963 v -1.446 c -0.207,-0.343 -0.345,-0.619 -0.481,-0.964 v -0.481 c 0.136,-0.068 0.274,-0.275 0.481,-0.413 v -1.927 c -0.207,-0.481 -0.345,-0.963 -0.481,-1.444 -0.139,-0.344 -0.345,-0.619 -0.483,-0.964 v -0.482 -1.858 z m -64.615,24.636 v 0.068 -0.481 -0.276 0.069 c 0.068,-0.069 0.137,-0.137 0.275,-0.275 -0.138,-0.069 -0.207,-0.137 -0.275,-0.207 v -0.275 0.275 0.413 0.069 0.207 z m 0,7.707 v -0.069 h 0.481 c 0.138,-0.276 0.344,-0.62 0.482,-0.963 0.344,-0.138 0.62,-0.276 0.963,-0.483 0.138,-0.137 0.276,-0.274 0.482,-0.412 -0.963,-0.482 -0.963,-0.482 -0.963,-0.964 h 1.376 l 0.481,-0.481 c 0.138,-0.619 0.345,-1.238 0.483,-1.927 0.136,-0.138 0.344,-0.275 0.481,-0.481 0.138,-0.138 0.344,-0.276 0.482,-0.482 0.137,-0.139 0.343,-0.275 0.481,-0.482 0.138,-0.138 0.345,-0.276 0.483,-0.482 0.136,-0.137 0.274,-0.275 0.481,-0.413 l 0.481,-0.481 0.482,-0.482 c 0.138,-0.275 0.275,-0.62 0.482,-0.964 0.137,-0.137 0.275,-0.275 0.482,-0.481 0.137,-0.138 0.275,-0.275 0.413,-0.481 v -0.482 c 0.137,-0.139 0.344,-0.275 0.481,-0.482 0.344,-0.138 0.619,-0.276 0.963,-0.482 v -0.894 c 0.619,-0.345 1.239,-0.619 1.927,-0.964 0.138,-0.138 0.275,-0.275 0.482,-0.482 0.138,-0.137 0.275,-0.275 0.482,-0.481 l 0.481,-0.481 c 0.138,-0.138 0.276,-0.276 0.482,-0.483 0.137,-0.138 0.275,-0.275 0.413,-0.481 0.137,-0.138 0.275,-0.276 0.481,-0.413 0.138,-0.138 0.276,-0.344 0.483,-0.482 v -0.963 c 0.137,-0.137 0.274,-0.345 0.481,-0.482 0.138,-0.138 0.275,-0.344 0.482,-0.482 h 0.481 c 0.138,-0.137 0.275,-0.343 0.482,-0.481 0.138,-0.275 0.275,-0.619 0.482,-0.964 0.138,-0.275 0.275,-0.619 0.481,-0.894 0.138,-0.138 0.276,-0.344 0.482,-0.482 0.137,-0.619 0.275,-1.308 0.413,-1.927 0.138,-0.137 0.345,-0.343 0.481,-0.481 v -0.483 c 0.138,-0.136 0.345,-0.274 0.483,-0.481 v -0.413 h -0.964 c -0.138,0.138 -0.276,0.345 -0.413,0.413 -0.206,0.207 -0.344,0.345 -0.482,0.481 -0.206,0.139 -0.343,0.345 -0.481,0.483 -0.344,0.138 -0.689,0.344 -0.964,0.481 -0.825,-0.137 -1.582,-0.343 -2.408,-0.481 v 0.481 c -0.138,0.138 -0.276,0.344 -0.413,0.482 v 0.481 c -0.206,0.138 -0.344,0.345 -0.482,0.483 -0.206,0.137 -0.344,0.343 -0.481,0.481 -0.207,0.344 -0.344,0.619 -0.482,0.964 -0.207,0.137 -0.344,0.274 -0.482,0.412 -0.206,0.345 -0.344,0.689 -0.482,0.964 -0.343,-0.138 -0.688,-0.275 -0.962,-0.483 h -0.483 -0.481 c -0.138,0.208 -0.344,0.345 -0.482,0.483 -0.137,0.344 -0.344,0.619 -0.481,0.963 v 0.482 c -0.138,0.137 -0.276,0.344 -0.413,0.482 -0.207,0.137 -0.345,0.343 -0.482,0.481 -0.207,0.138 -0.344,0.344 -0.482,0.482 v 0.413 c -0.206,0.343 -0.344,0.688 -0.482,0.964 h -0.481 c 0,0.481 0,0.481 -0.964,0.481 v -0.481 h -1.444 v 0.962 c -0.138,0.344 -0.345,0.689 -0.483,0.964 -0.137,0.137 -0.343,0.344 -0.481,0.482 -0.138,0.137 -0.344,0.343 -0.413,0.481 h -0.482 c -0.343,0.138 -0.619,0.276 -0.963,0.413 h -0.482 c 0.138,0.344 0.344,0.689 0.482,0.964 v 0.963 0.481 0.482 c -0.138,0.345 -0.344,0.688 -0.482,0.964 -0.137,0.206 -0.344,0.344 -0.481,0.481 v -0.068 z m 0,17.065 v 0 -0.275 -0.413 -0.069 -0.206 -0.482 -1.927 -0.412 -3.854 h 0.481 c 0.138,0.207 0.344,0.344 0.482,0.482 0.482,0 0.482,0 0.482,0.963 h 0.963 c 0.069,0.138 0.275,0.344 0.413,0.482 0.344,0.481 0.619,0.963 0.964,1.445 v 0.482 0.412 c 0.136,0.207 0.344,0.344 0.481,0.482 0.138,0.207 0.344,0.344 0.482,0.482 v 0.275 c -0.07,0.069 -0.138,0.138 -0.206,0.207 0.068,0.137 0.136,0.206 0.206,0.274 0.069,-0.068 0.137,-0.137 0.275,-0.274 h 0.206 v 0.481 0.207 c -0.068,0.137 -0.138,0.206 -0.206,0.275 0.068,0.069 0.138,0.137 0.206,0.206 0.069,-0.069 0.138,-0.137 0.276,-0.206 h 0.207 c 0.136,0.137 0.274,0.344 0.481,0.481 h 0.481 c 0.138,0.139 0.276,0.345 0.482,0.482 h 0.482 c 0.137,0.138 0.275,0.344 0.482,0.482 l 0.413,0.413 v 0.963 0.964 h 0.963 c 0.137,0.206 0.343,0.343 0.481,0.481 h 0.483 c 0.136,0.207 0.274,0.344 0.481,0.482 0.138,0.207 0.275,0.344 0.481,0.481 h 0.482 c 0.138,0.138 0.275,0.345 0.482,0.482 0.138,0.138 0.275,0.276 0.482,0.413 -0.207,0.206 -0.344,0.344 -0.482,0.482 0.275,0.344 0.619,0.688 0.963,0.963 0.138,0.207 0.276,0.344 0.482,0.482 0.137,0.206 0.275,0.344 0.413,0.482 0.137,0.206 0.275,0.343 0.481,0.481 0.138,0.482 0.276,0.963 0.483,1.445 h -0.483 c -0.344,0.138 -0.619,0.345 -0.894,0.482 v 0.895 h 0.894 c 0.689,1.445 0.689,1.445 0.551,2.339 -0.344,-0.275 -0.688,-0.55 -1.032,-0.894 -0.276,-0.138 -0.619,-0.276 -0.895,-0.482 -0.481,-0.482 -0.963,-0.963 -1.445,-1.445 -0.206,-0.138 -0.344,-0.275 -0.482,-0.413 -0.206,-0.137 -0.343,-0.344 -0.481,-0.482 -0.207,-0.137 -0.345,-0.275 -0.481,-0.482 h -0.483 c -0.138,-0.274 -0.344,-0.619 -0.481,-0.963 h -0.482 c -0.137,-0.138 -0.344,-0.275 -0.481,-0.481 -0.138,-0.138 -0.276,-0.276 -0.413,-0.482 v -0.482 c -0.207,-0.137 -0.345,-0.275 -0.482,-0.481 h -0.482 c -0.206,-0.138 -0.344,-0.276 -0.482,-0.482 h -0.481 c -0.207,-0.138 -0.345,-0.276 -0.481,-0.482 -0.345,-0.137 -0.621,-0.275 -0.964,-0.413 h -0.482 v -0.482 h 0.963 c 0,-0.481 0,-0.481 -0.963,-0.481 v -0.482 c -0.137,-0.138 -0.345,-0.275 -0.481,-0.481 h -0.483 c -0.137,0.206 -0.343,0.343 -0.481,0.481 h -0.895 -0.481 c -0.344,-0.619 -0.62,-1.238 -0.964,-1.927 -0.137,-0.137 -0.344,-0.275 -0.481,-0.481 v -0.413 c 0.137,-0.138 0.344,-0.344 0.481,-0.482 h 0.482 0.482 v -0.482 h -0.964 c -0.137,-0.344 -0.344,-0.619 -0.481,-0.963 v 0.482 0.275 -0.069 c 0.068,0.138 0.137,0.207 0.275,0.275 -0.138,0.069 -0.207,0.139 -0.275,0.207 z" /></g></g></g></g></svg>